<svg width="24" height="24" viewBox="0 0 24 24" fill="none" xmlns="http://www.w3.org/2000/svg">
<path fill-rule="evenodd" clip-rule="evenodd" d="M9.36842 17.6316C9.27136 17.6316 9.17791 17.6161 9.0904 17.5875C6.2211 17.2301 4 14.7823 4 11.8158C4 8.60382 6.60382 6 9.81579 6C11.1809 6 12.4361 6.47032 13.4283 7.25775C13.9438 7.66683 14.3882 8.1615 14.7402 8.72028L14.8997 8.98924C15.4037 8.79229 15.9524 8.68421 16.5263 8.68421C18.9971 8.68421 21 10.6871 21 13.1579C21 15.6286 18.9971 17.6316 16.5263 17.6316C16.4221 17.6316 16.3188 17.628 16.2164 17.621C16.1717 17.628 16.1258 17.6316 16.0789 17.6316H9.36842Z" stroke="#07ECD8" stroke-width="1.5" stroke-linejoin="round"/>
</svg>
