<svg width="45" height="31" viewBox="0 0 45 31" fill="none" xmlns="http://www.w3.org/2000/svg">
<path d="M38.136 3.17645C35.3354 2.04284 32.3322 1.20765 29.1922 0.729302C29.1351 0.72007 29.0779 0.743141 29.0485 0.789284C28.6622 1.39529 28.2344 2.18588 27.9348 2.80728C24.5576 2.36124 21.1976 2.36124 17.8896 2.80728C17.59 2.17207 17.1466 1.39529 16.7586 0.789284C16.7292 0.74468 16.672 0.721609 16.6149 0.729302C13.4766 1.20612 10.4734 2.04132 7.67116 3.17645C7.6469 3.18568 7.6261 3.20107 7.6123 3.22106C1.91593 10.7286 0.355455 18.0517 1.12097 25.2839C1.12444 25.3193 1.14695 25.3531 1.17813 25.3746C4.93643 27.8095 8.57699 29.2876 12.1499 30.2674C12.2071 30.2828 12.2677 30.2643 12.3041 30.2228C13.1493 29.2046 13.9027 28.131 14.5487 27.0019C14.5868 26.9358 14.5504 26.8574 14.4725 26.8312C13.2775 26.4313 12.1395 25.9437 11.045 25.39C10.9584 25.3454 10.9514 25.2362 11.0311 25.1839C11.2614 25.0316 11.4918 24.8732 11.7118 24.7132C11.7516 24.684 11.807 24.6778 11.8538 24.6963C19.0448 27.5926 26.8299 27.5926 33.936 24.6963C33.9828 24.6763 34.0382 24.6825 34.0797 24.7117C34.2997 24.8716 34.5301 25.0316 34.7621 25.1839C34.8418 25.2362 34.8366 25.3454 34.75 25.39C33.6554 25.9545 32.5175 26.4313 31.3208 26.8297C31.2428 26.8558 31.2082 26.9358 31.2463 27.0019C31.9062 28.1294 32.6596 29.203 33.4891 30.2212C33.5238 30.2643 33.5861 30.2828 33.6433 30.2674C37.2336 29.2876 40.8741 27.8095 44.6324 25.3746C44.6653 25.3531 44.6861 25.3208 44.6896 25.2854C45.6058 16.9242 43.1551 9.66118 38.1931 3.22258C38.1809 3.20107 38.1602 3.18568 38.136 3.17645ZM15.6225 20.8802C13.4575 20.8802 11.6737 19.1268 11.6737 16.9734C11.6737 14.82 13.4229 13.0666 15.6225 13.0666C17.8394 13.0666 19.606 14.8354 19.5713 16.9734C19.5713 19.1268 17.822 20.8802 15.6225 20.8802ZM30.2227 20.8802C28.0578 20.8802 26.2739 19.1268 26.2739 16.9734C26.2739 14.82 28.0231 13.0666 30.2227 13.0666C32.4396 13.0666 34.2062 14.8354 34.1716 16.9734C34.1716 19.1268 32.4396 20.8802 30.2227 20.8802Z" fill="#5865F2"/>
</svg>
