<svg width="30" height="40" viewBox="0 0 30 40" fill="none" xmlns="http://www.w3.org/2000/svg">
<path d="M29.5605 8.91231L21.3105 0.450769C21.0285 0.161538 20.6475 0 20.25 0H3C1.3425 0 0 1.37692 0 3.07692V36.9231C0 38.6231 1.3425 40 3 40H27C28.6575 40 30 38.6231 30 36.9231V10C30 9.59231 29.8425 9.20154 29.5605 8.91231ZM18 32.3077H7.5C6.672 32.3077 6 31.6185 6 30.7692C6 29.92 6.672 29.2308 7.5 29.2308H18C18.828 29.2308 19.5 29.92 19.5 30.7692C19.5 31.6185 18.828 32.3077 18 32.3077ZM22.5 26.1538H7.5C6.672 26.1538 6 25.4646 6 24.6154C6 23.7662 6.672 23.0769 7.5 23.0769H22.5C23.328 23.0769 24 23.7662 24 24.6154C24 25.4646 23.328 26.1538 22.5 26.1538ZM22.5 20H7.5C6.672 20 6 19.3108 6 18.4615C6 17.6123 6.672 16.9231 7.5 16.9231H22.5C23.328 16.9231 24 17.6123 24 18.4615C24 19.3108 23.328 20 22.5 20ZM21 10.7692C20.172 10.7692 19.5 10.08 19.5 9.23077V2.92923L27.144 10.7692H21Z" fill="#363636"/>
</svg>
