<svg width="21" height="21" viewBox="0 0 21 21" fill="none" xmlns="http://www.w3.org/2000/svg">
<mask id="path-1-inside-1_13_4566" fill="white">
<path d="M20.4 10.8C20.4 12.1395 20.1362 13.4658 19.6236 14.7033C19.111 15.9409 18.3596 17.0653 17.4125 18.0125C16.4653 18.9596 15.3409 19.7109 14.1034 20.2235C12.8658 20.7361 11.5395 21 10.2 21C8.86052 21 7.53415 20.7361 6.29663 20.2235C5.05911 19.7109 3.93467 18.9596 2.98751 18.0125C2.04035 17.0653 1.28903 15.9409 0.776428 14.7033C0.263831 13.4658 -1.17101e-07 12.1395 0 10.8H3.59337C3.59337 11.6676 3.76426 12.5267 4.09627 13.3282C4.42829 14.1298 4.91493 14.8581 5.52841 15.4716C6.14189 16.085 6.8702 16.5717 7.67175 16.9037C8.47331 17.2357 9.33241 17.4066 10.2 17.4066C11.0676 17.4066 11.9267 17.2357 12.7282 16.9037C13.5298 16.5717 14.2581 16.085 14.8716 15.4716C15.4851 14.8581 15.9717 14.1298 16.3037 13.3282C16.6357 12.5267 16.8066 11.6676 16.8066 10.8H20.4Z"/>
</mask>
<path d="M20.4 10.8C20.4 12.1395 20.1362 13.4658 19.6236 14.7033C19.111 15.9409 18.3596 17.0653 17.4125 18.0125C16.4653 18.9596 15.3409 19.7109 14.1034 20.2235C12.8658 20.7361 11.5395 21 10.2 21C8.86052 21 7.53415 20.7361 6.29663 20.2235C5.05911 19.7109 3.93467 18.9596 2.98751 18.0125C2.04035 17.0653 1.28903 15.9409 0.776428 14.7033C0.263831 13.4658 -1.17101e-07 12.1395 0 10.8H3.59337C3.59337 11.6676 3.76426 12.5267 4.09627 13.3282C4.42829 14.1298 4.91493 14.8581 5.52841 15.4716C6.14189 16.085 6.8702 16.5717 7.67175 16.9037C8.47331 17.2357 9.33241 17.4066 10.2 17.4066C11.0676 17.4066 11.9267 17.2357 12.7282 16.9037C13.5298 16.5717 14.2581 16.085 14.8716 15.4716C15.4851 14.8581 15.9717 14.1298 16.3037 13.3282C16.6357 12.5267 16.8066 11.6676 16.8066 10.8H20.4Z" stroke="#FDFDFD" stroke-width="2" mask="url(#path-1-inside-1_13_4566)"/>
<mask id="path-2-inside-2_13_4566" fill="white">
<path d="M6.64069 0.641155C8.17107 0.0713245 9.81589 -0.122731 11.4369 0.0753067C13.0578 0.273343 14.6076 0.857682 15.9557 1.77919C17.3039 2.7007 18.4111 3.93244 19.1843 5.37083C19.9574 6.80923 20.3739 8.41224 20.3987 10.0451L16.8058 10.0997C16.7897 9.04206 16.5199 8.00378 16.0192 7.07212C15.5184 6.14045 14.8012 5.34265 13.928 4.74578C13.0548 4.14891 12.051 3.77043 11.0011 3.64216C9.95117 3.51389 8.88581 3.63958 7.89457 4.00866L6.64069 0.641155Z"/>
</mask>
<path d="M6.64069 0.641155C8.17107 0.0713245 9.81589 -0.122731 11.4369 0.0753067C13.0578 0.273343 14.6076 0.857682 15.9557 1.77919C17.3039 2.7007 18.4111 3.93244 19.1843 5.37083C19.9574 6.80923 20.3739 8.41224 20.3987 10.0451L16.8058 10.0997C16.7897 9.04206 16.5199 8.00378 16.0192 7.07212C15.5184 6.14045 14.8012 5.34265 13.928 4.74578C13.0548 4.14891 12.051 3.77043 11.0011 3.64216C9.95117 3.51389 8.88581 3.63958 7.89457 4.00866L6.64069 0.641155Z" stroke="#FDFDFD" stroke-width="2" mask="url(#path-2-inside-2_13_4566)"/>
<mask id="path-3-inside-3_13_4566" fill="white">
<path d="M-9.81665e-05 10.2C-9.8331e-05 8.31851 0.520322 6.47366 1.5036 4.86952C2.48688 3.26538 3.89469 1.96447 5.57134 1.11067L7.20194 4.31277C6.11596 4.86578 5.20411 5.70839 4.56723 6.74741C3.93035 7.78643 3.59327 8.98135 3.59327 10.2L-9.81665e-05 10.2Z"/>
</mask>
<path d="M-9.81665e-05 10.2C-9.8331e-05 8.31851 0.520322 6.47366 1.5036 4.86952C2.48688 3.26538 3.89469 1.96447 5.57134 1.11067L7.20194 4.31277C6.11596 4.86578 5.20411 5.70839 4.56723 6.74741C3.93035 7.78643 3.59327 8.98135 3.59327 10.2L-9.81665e-05 10.2Z" stroke="#FDFDFD" stroke-width="2" mask="url(#path-3-inside-3_13_4566)"/>
</svg>
