<svg width="44" height="33" viewBox="0 0 44 33" fill="none" xmlns="http://www.w3.org/2000/svg">
<path d="M39.458 8.89078C39.4843 9.23599 39.4843 9.58119 39.4843 9.92958C39.4843 20.545 30.5725 32.7879 14.2769 32.7879V32.7815C9.46314 32.7879 4.74937 31.5375 0.69696 29.18C1.39692 29.2563 2.10039 29.2945 2.80562 29.2961C6.79487 29.2993 10.6701 28.0855 13.8085 25.8504C10.0175 25.7852 6.69312 23.5437 5.53178 20.2714C6.85978 20.5037 8.22812 20.456 9.53156 20.133C5.39846 19.3758 2.42494 16.0828 2.42494 12.2585C2.42494 12.2235 2.42494 12.1901 2.42494 12.1567C3.65645 12.7787 5.03532 13.1239 6.44577 13.1621C2.553 10.8029 1.35306 6.10687 3.70381 2.43528C8.20181 7.45428 14.8383 10.5055 21.9625 10.8284C21.2485 8.03811 22.2238 5.1142 24.5255 3.15273C28.0937 0.111107 33.7057 0.267007 37.0599 3.50112C39.044 3.14637 40.9456 2.48618 42.6859 1.55079C42.0245 3.41044 40.6404 4.99012 38.7914 5.99392C40.5474 5.8062 42.2631 5.37987 43.8788 4.72923C42.6894 6.34549 41.1912 7.75335 39.458 8.89078Z" fill="#3AC7F3"/>
</svg>
