<svg width="36" height="23" viewBox="0 0 36 23" fill="none" xmlns="http://www.w3.org/2000/svg">
<path d="M8.57557 17.8762C7.49875 17.8762 6.81113 17.3388 6.63064 16.382C6.43835 16.5989 6.24452 16.8004 6.04967 16.9845C5.4246 17.5763 4.79338 17.8762 4.17396 17.8762C2.88639 17.8762 2.14749 17.1496 2.14749 15.8836C2.14749 15.8149 2.15057 15.7421 2.15621 15.6672C2.1598 14.4135 2.50797 12.9782 3.19046 11.3999C3.86476 9.84112 4.39137 8.73354 4.79953 8.01567L4.95337 7.74441H5.26462C5.75277 7.74637 6.23125 7.8807 6.64909 8.13309C6.88084 8.26419 7.08326 8.44139 7.24386 8.65375C7.40445 8.86612 7.51982 9.10915 7.58285 9.36784L7.62951 9.54936L7.55311 9.72062C7.24545 10.4036 6.91881 11.1871 6.57577 12.0491C6.31371 12.6928 6.09227 13.3523 5.91276 14.0238C5.95275 13.9626 5.99583 13.8958 6.04198 13.8233C6.47321 13.1403 6.94137 12.3363 7.43312 11.4256C7.92897 10.5087 8.3761 9.6673 8.7617 8.92429L8.76837 8.91199C8.97348 8.54433 9.12269 8.25564 9.21858 8.0531L9.3637 7.74544H9.70366C10.1903 7.74767 10.6672 7.88144 11.084 8.13258C11.1133 8.1495 11.142 8.16693 11.1697 8.18386C10.9597 8.00628 10.7807 7.79505 10.64 7.55879C10.3113 7.0132 10.1462 6.44915 10.1462 5.87075C10.1479 5.52218 10.2047 5.17607 10.3144 4.84521C10.5543 4.04991 10.9994 3.43458 11.6368 3.01616C12.2521 2.61159 12.9115 2.40084 13.5925 2.38648H13.6151H13.6376C15.6518 2.51775 16.8629 3.47663 17.1757 5.1739C18.2249 4.81804 19.3207 4.42013 20.4416 3.98735C21.8219 3.46125 23.1259 2.99719 24.3191 2.60698L24.3314 2.60287L24.3443 2.59928C25.4349 2.30034 26.4625 2.14856 27.3978 2.14856H27.4163H27.4342C29.6606 2.29778 31.0815 3.04078 31.6569 4.35706L31.6635 4.37244L31.6697 4.38885C31.8789 4.96674 31.9809 5.45849 31.9809 5.89229C31.9809 6.27943 31.8599 6.68606 31.622 7.09986C31.3533 7.56648 30.9041 7.86901 30.2939 8.00695C30.0835 8.0591 29.8677 8.08697 29.6509 8.09002C29.3598 8.0962 29.0722 8.02545 28.8171 7.88491L28.5469 7.73108V7.35163C28.5469 6.79681 28.2044 6.3184 27.5003 5.8887C27.0178 5.59232 26.3661 5.44259 25.5626 5.44259C25.0172 5.44827 24.4734 5.50112 23.9371 5.60052C22.2275 6.01074 20.6421 6.59273 19.2253 7.32856L19.2171 7.33317L19.2089 7.33676C18.4228 7.71211 17.6511 8.04541 16.9122 8.32948C16.5076 9.5309 15.8595 10.839 14.9831 12.2224C14.0484 13.6977 13.0074 15.0042 11.8891 16.1051C10.6784 17.2968 9.60572 17.8762 8.60736 17.8762H8.57557ZM11.402 8.3623C11.7063 8.62694 11.9187 8.98137 12.0086 9.3745L12.0516 9.5509L11.9788 9.71755C11.6773 10.4036 11.3522 11.1877 11.0133 12.0476C10.7463 12.7065 10.5218 13.3818 10.341 14.0694C10.6579 13.6756 11.0589 13.0839 11.5445 12.1968C12.1696 11.06 12.6449 9.94881 12.9613 8.88532C12.3402 8.81456 11.8204 8.64022 11.402 8.3623ZM12.6541 5.83383C12.75 5.95228 12.9295 6.0856 13.3407 6.0856C13.4012 6.0856 13.4659 6.08201 13.5335 6.07586C13.5432 5.99074 13.5482 5.90514 13.5484 5.81947C13.5484 5.31645 13.3694 5.28876 13.2259 5.26722H13.2197H13.2054C13.1067 5.27181 13.0096 5.2926 12.9177 5.32875C12.839 5.36333 12.7696 5.41604 12.7152 5.48259C12.682 5.56828 12.6601 5.6579 12.65 5.74922V5.77025C12.6499 5.79151 12.6513 5.81276 12.6541 5.83383Z" fill="#070707"/>
<path d="M18.2325 17.8675C17.2865 17.8675 16.5276 17.6347 15.9763 17.1757C15.4159 16.7076 15.081 16.0169 14.9805 15.1221C14.9504 14.8407 14.9352 14.558 14.9349 14.275C14.9349 12.9367 15.339 11.523 16.1358 10.0703C16.9896 8.51557 18.2187 7.72693 19.7888 7.72693C20.4364 7.72693 21.044 7.97819 21.5953 8.47403C22.1188 8.95399 22.3824 9.64264 22.3824 10.5251C22.3824 10.62 22.3793 10.7169 22.3726 10.8143V10.8266V10.8394C22.2849 11.6386 22.0161 12.4073 21.5865 13.0869C21.9669 12.5383 22.3146 11.9678 22.628 11.3784L22.7818 11.0969H24.7708L24.4632 11.8409C23.6971 13.6756 22.7295 15.1441 21.586 16.2045C20.3754 17.3239 19.2801 17.8675 18.2325 17.8675ZM19.1976 12.0696C19.1668 12.1583 19.1463 12.2331 19.1288 12.2957C19.1663 12.2639 19.2073 12.2265 19.2529 12.1824C19.4318 11.99 19.5755 11.7676 19.6775 11.5255C19.7432 11.3819 19.7989 11.2338 19.8442 11.0825C19.6139 11.2912 19.3965 11.624 19.1976 12.0696Z" fill="#070707"/>
<path d="M20.8569 22.7091C18.329 22.7091 17.5065 21.4569 17.2614 20.4067L17.2557 20.3821L17.2521 20.3575C17.2272 20.1791 17.2144 19.9992 17.2137 19.8191C17.2137 19.0617 17.4772 18.4346 17.9972 17.9593C18.4441 17.549 19.0314 17.3258 19.6381 17.3358C19.9161 17.3383 20.1928 17.3749 20.4621 17.4445L20.8056 17.5306L20.862 17.8798C20.9056 18.1495 21.0215 18.8664 22.6208 18.953C22.8511 18.9638 23.0905 18.9689 23.3279 18.9689C24.2735 18.9689 25.3211 18.8664 26.4497 18.6613C26.2053 18.0052 26.0813 17.3103 26.0836 16.6102C26.0836 16.2697 26.1441 15.7093 26.2676 14.896C26.3902 14.0915 26.6266 13.1721 26.9645 12.1624C27.1065 11.7009 27.2132 11.3107 27.2829 10.9974C27.043 11.1574 26.7794 11.4517 26.5138 11.863C26.0041 12.6561 25.6273 13.5271 25.3985 14.4417C25.2934 14.8202 25.2365 15.2104 25.2293 15.6031C25.2212 15.9161 25.284 16.2269 25.4129 16.5123L25.5785 16.8558L25.3093 17.1255C24.8114 17.6229 24.2166 17.8752 23.5413 17.8752C22.2481 17.8752 21.5061 17.1486 21.5061 15.8826C21.5061 15.8092 21.5097 15.7287 21.5158 15.6508C21.6011 14.2374 21.9307 12.8495 22.4901 11.5486C23.0418 10.2452 23.5828 9.11453 24.0976 8.18745C24.133 8.12335 24.1704 8.0572 24.2079 7.99464L24.3617 7.73364H24.6658C25.1098 7.73364 25.5826 7.85825 26.0713 8.10438C26.3267 8.22919 26.5549 8.40348 26.7425 8.61715C27.4229 8.03156 28.1454 7.73518 28.8961 7.73518C31.02 7.73518 31.3374 8.83507 31.3374 9.4909C31.3374 9.5109 31.3374 9.53398 31.3113 10.2057C31.2918 10.7144 31.0549 11.5676 30.56 12.8911C30.2138 13.8614 29.9443 14.8573 29.754 15.8698C29.7045 16.136 29.6791 16.4061 29.6781 16.6769C29.6758 17.1048 29.7505 17.5296 29.8986 17.9311C30.0011 17.9054 30.1037 17.8798 30.2021 17.8516C30.5098 17.7701 30.801 17.6978 31.0672 17.6419H31.0769H31.0861C31.6949 17.5262 32.3125 17.4639 32.9321 17.4558C33.9202 17.4558 34.654 17.6609 35.1745 18.0834C35.7221 18.5274 36 19.0433 36 19.6176C36 19.956 35.8462 20.3821 35.5247 20.9595C35.1565 21.6153 34.2269 22.0122 32.5983 22.2076L32.5752 22.2101H32.5516C32.3691 22.2163 32.1896 22.2194 32.0184 22.2194C30.0724 22.2194 28.6577 21.782 27.8039 20.919C26.6702 21.3395 25.517 21.7338 24.3684 22.0932C23.0654 22.5014 21.8824 22.7091 20.8569 22.7091ZM31.9635 19.5299C32.066 19.5345 32.1614 19.5371 32.2491 19.5371C32.4946 19.5431 32.7392 19.5072 32.9726 19.4309C32.9398 19.4279 32.9019 19.4258 32.8588 19.4258C32.8157 19.4258 32.7608 19.4284 32.7091 19.4325H32.6865H32.6639C32.4053 19.4365 32.1476 19.466 31.8948 19.5207L31.9635 19.5299Z" fill="#070707"/>
<path d="M8.36069 17.6612C7.28388 17.6612 6.59626 17.1238 6.41576 16.167C6.22364 16.3844 6.02999 16.5853 5.83479 16.7695C5.20973 17.3613 4.57851 17.6612 3.95908 17.6612C2.67152 17.6612 1.93262 16.9346 1.93262 15.6686C1.93262 15.5999 1.93569 15.5276 1.94133 15.4522C1.94544 14.1985 2.29309 12.7633 2.97559 11.1855C3.64988 9.62613 4.1765 8.51907 4.58466 7.80119L4.73849 7.52993H5.05077C5.53738 7.53217 6.01434 7.66594 6.43114 7.91707C6.66338 8.04807 6.86625 8.22534 7.02722 8.4379C7.18819 8.65046 7.30381 8.8938 7.36695 9.15285L7.41361 9.33437L7.33721 9.50563C7.02955 10.1892 6.70291 10.9722 6.35987 11.8341C6.09781 12.4778 5.87637 13.1374 5.69686 13.8088C5.73685 13.7478 5.77993 13.6816 5.82608 13.6088C6.25731 12.9253 6.72547 12.1187 7.21722 11.2106C7.71358 10.2938 8.1602 9.45231 8.5458 8.7093L8.55247 8.697C8.75758 8.32934 8.90679 8.04065 9.00268 7.83811L9.14831 7.53045H9.48776C9.97453 7.53269 10.4517 7.66645 10.8686 7.91759C10.8974 7.93451 10.9261 7.95194 10.9538 7.96886C10.744 7.79085 10.5651 7.57949 10.4241 7.34329C10.098 6.7977 9.93285 6.22955 9.93285 5.65115C9.93457 5.30258 9.99134 4.95647 10.101 4.62561C10.341 3.8303 10.7861 3.21498 11.4235 2.79656C12.0388 2.3925 12.6982 2.18124 13.3792 2.16739H13.4017H13.4248C15.4384 2.29815 16.6496 3.25703 16.9629 4.95429C18.012 4.59843 19.1078 4.20052 20.2293 3.76774C21.6091 3.24164 22.9131 2.77759 24.1068 2.38737L24.1191 2.38327L24.1314 2.37968C25.2216 2.09048 26.2492 1.93665 27.1845 1.93665H27.2024H27.2203C29.4468 2.08586 30.8677 2.82835 31.443 4.14463L31.4497 4.16053L31.4558 4.17642C31.6655 4.75431 31.7671 5.24606 31.7671 5.67986C31.7671 6.067 31.6461 6.47363 31.4081 6.88743C31.1394 7.35405 30.6903 7.65966 30.0801 7.79452C29.8694 7.84605 29.6534 7.87323 29.4365 7.87554C29.1454 7.8816 28.8579 7.81086 28.6028 7.67043L28.3325 7.5166V7.13715C28.3325 6.58285 27.9905 6.10392 27.286 5.67422C26.8035 5.37784 26.1517 5.22811 25.3482 5.22811C24.8028 5.23375 24.259 5.28677 23.7227 5.38656C22.0132 5.79677 20.4282 6.37877 19.0109 7.11459L19.0027 7.11869L18.9945 7.12228C18.2084 7.49763 17.4367 7.83093 16.6978 8.115C16.2932 9.31642 15.6456 10.6245 14.7693 12.0079C13.8345 13.4832 12.7931 14.7897 11.6747 15.8906C10.4646 17.0823 9.39136 17.6617 8.393 17.6617L8.36069 17.6612ZM11.1876 8.14731C11.4918 8.41218 11.704 8.76679 11.7937 9.16003L11.8368 9.33642L11.7639 9.50256C11.4624 10.1886 11.1379 10.9727 10.7984 11.8326C10.532 12.4916 10.3078 13.1669 10.1272 13.8544C10.4446 13.4606 10.8451 12.8689 11.3307 11.9818C11.9557 10.845 12.4311 9.73433 12.7474 8.67033C12.126 8.59957 11.6045 8.42472 11.1876 8.14731ZM12.4393 5.62038C12.5351 5.73883 12.7146 5.87215 13.1259 5.87215C13.1864 5.87215 13.251 5.86907 13.3187 5.86241C13.3285 5.77729 13.3336 5.6917 13.334 5.60602C13.334 5.10248 13.1551 5.07531 13.011 5.05326H13.0048H12.9905C12.8919 5.05784 12.7947 5.07863 12.7028 5.11479C12.6243 5.1494 12.555 5.20211 12.5008 5.26862C12.4675 5.35426 12.4456 5.44391 12.4357 5.53526V5.5568C12.4354 5.57805 12.4366 5.59929 12.4393 5.62038Z" fill="#070707"/>
<path d="M18.0182 17.6526C17.0716 17.6526 16.3132 17.4198 15.762 16.9609C15.2016 16.4932 14.8667 15.802 14.7667 14.9098C14.7364 14.6286 14.7211 14.346 14.7211 14.0632C14.7211 12.7249 15.1247 11.3107 15.9215 9.85852C16.7753 8.30329 18.0044 7.51465 19.5745 7.51465C20.2221 7.51465 20.8297 7.7659 21.3809 8.26175C21.9045 8.7417 22.1681 9.43035 22.1681 10.3128C22.1681 10.4077 22.165 10.5051 22.1583 10.602V10.6148V10.6272C22.0708 11.4266 21.802 12.1954 21.3722 12.8751C21.7522 12.3265 22.0996 11.756 22.4126 11.1666L22.5665 10.8851H24.5555L24.2478 11.6286C23.4823 13.4638 22.5142 14.9319 21.3707 15.9923C20.1606 17.1091 19.0653 17.6526 18.0182 17.6526ZM18.9827 11.8547C18.952 11.9434 18.9315 12.0183 18.9145 12.0809C18.9514 12.0491 18.9925 12.0116 19.0381 11.9675C19.2171 11.7746 19.3608 11.5518 19.4627 11.3091C19.5283 11.1653 19.584 11.0171 19.6293 10.8656C19.3996 11.0763 19.1822 11.4091 18.9827 11.8547Z" fill="#070707"/>
<path d="M20.642 22.4942C18.1141 22.4942 17.2916 21.242 17.0465 20.1918L17.0409 20.1677L17.0378 20.1431C17.0124 19.9646 16.9994 19.7845 16.9988 19.6042C16.9988 18.8468 17.2624 18.2197 17.7823 17.7444C18.2293 17.3341 18.8166 17.1109 19.4232 17.1209C19.7015 17.1234 19.9784 17.1601 20.2477 17.2301L20.5908 17.3157L20.6472 17.6649C20.6907 17.9346 20.8066 18.6515 22.406 18.7381C22.6362 18.7489 22.8757 18.7546 23.1136 18.7546C24.0586 18.7546 25.1067 18.652 26.2353 18.4469C25.9905 17.7909 25.8663 17.096 25.8687 16.3958C25.8687 16.0558 25.9292 15.4949 26.0528 14.6816C26.1753 13.8776 26.4117 12.9577 26.7496 11.9481C26.8917 11.4866 26.9983 11.0963 27.0681 10.783C26.8281 10.943 26.5645 11.2374 26.2989 11.6486C25.7894 12.4417 25.4128 13.3128 25.1841 14.2273C25.0787 14.6057 25.0216 14.996 25.0144 15.3887C25.0066 15.7017 25.0694 16.0124 25.198 16.2979L25.3641 16.6414L25.0929 16.9096C24.595 17.407 24.0007 17.6593 23.3248 17.6593C22.0316 17.6593 21.2902 16.9327 21.2902 15.6667C21.2902 15.5933 21.2933 15.5154 21.2994 15.4354C21.3847 14.022 21.7144 12.6341 22.2737 11.3332C22.8239 10.0339 23.3654 8.90323 23.8781 7.97665C23.9135 7.91204 23.9514 7.8459 23.9889 7.78334L24.1427 7.52234H24.4473C24.8908 7.52234 25.3636 7.64745 25.8523 7.89307C26.1078 8.01788 26.3359 8.19218 26.5235 8.40584C27.2039 7.82026 27.9264 7.52388 28.6771 7.52388C30.801 7.52388 31.1184 8.62428 31.1184 9.2796C31.1184 9.30011 31.1184 9.32267 31.0928 9.9944C31.0728 10.5031 30.8364 11.3563 30.3411 12.6798C29.9953 13.6502 29.7258 14.6461 29.535 15.6584C29.4884 15.9244 29.4657 16.194 29.4673 16.464C29.4649 16.8919 29.5394 17.3167 29.6873 17.7182C29.7898 17.6926 29.8924 17.667 29.9908 17.6393C30.2985 17.5572 30.5898 17.4854 30.8564 17.429H30.8656H30.8754C31.4841 17.3133 32.1018 17.251 32.7213 17.2429C33.7094 17.2429 34.4432 17.448 34.9642 17.8705C35.5113 18.3146 35.7892 18.8304 35.7892 19.4047C35.7892 19.7432 35.6354 20.1693 35.3144 20.7467C34.9457 21.403 34.0161 21.7994 32.3875 21.9947H32.3645H32.3409C32.1583 22.0004 31.9789 22.0035 31.8076 22.0035C29.8621 22.0035 28.4469 21.5661 27.5931 20.7031C26.4599 21.1235 25.3067 21.5179 24.1601 21.8773C22.8526 22.2865 21.6676 22.4942 20.642 22.4942ZM31.7491 19.315C31.8517 19.3201 31.9465 19.3222 32.0342 19.3222C32.2796 19.3283 32.5243 19.2928 32.7577 19.2171C32.7199 19.2133 32.6819 19.2116 32.6439 19.2119C32.5962 19.2119 32.546 19.2119 32.4942 19.2181H32.4716H32.4491C32.1913 19.2222 31.9345 19.2517 31.6825 19.3063C31.7045 19.3099 31.7266 19.3119 31.7491 19.314V19.315Z" fill="#070707"/>
<path d="M8.14586 17.4464C7.06904 17.4464 6.38142 16.9096 6.20092 15.9522C6.0088 16.1696 5.81515 16.3705 5.61995 16.5547C4.99489 17.1465 4.36367 17.4464 3.74476 17.4464C2.45668 17.4464 1.71829 16.7204 1.71829 15.4538C1.71829 15.3851 1.72086 15.3128 1.7265 15.2379C1.7306 13.9842 2.07826 12.5485 2.76075 10.9707C3.43556 9.41134 3.96166 8.30427 4.36982 7.58639L4.52365 7.31514H4.83593C5.32254 7.31738 5.7995 7.45114 6.2163 7.70228C6.44805 7.83338 6.65047 8.01058 6.81107 8.22295C6.97166 8.43531 7.08703 8.67834 7.15006 8.93703L7.19723 9.11906L7.12032 9.29033C6.81266 9.97333 6.48602 10.7563 6.14298 11.6183C5.88092 12.262 5.65948 12.9215 5.47997 13.593C5.52048 13.5325 5.56304 13.4658 5.60919 13.393C6.04094 12.7095 6.50858 11.9029 7.00033 10.9948C7.49669 10.0779 7.94383 9.23649 8.32892 8.49348L8.33558 8.48118C8.54069 8.11403 8.68991 7.82483 8.78579 7.62229L8.93142 7.31463H9.27087C9.75766 7.31679 10.2348 7.45056 10.6518 7.70177C10.681 7.71869 10.7092 7.73664 10.7374 7.75304C10.5274 7.57519 10.3482 7.3638 10.2072 7.12746C9.88107 6.58188 9.71596 6.01373 9.71596 5.43789C9.71786 5.0893 9.77479 4.74319 9.88466 4.41235C10.1241 3.61705 10.5692 3.00224 11.2066 2.58382C11.8219 2.17924 12.4813 1.96849 13.1623 1.95414H13.1854H13.2079C15.2216 2.08489 16.4327 3.04377 16.746 4.74104C17.7951 4.38518 18.8909 3.98727 20.0124 3.55449C21.3922 3.0289 22.6962 2.56433 23.8899 2.17411L23.9022 2.17001L23.9145 2.16642C25.0057 1.86748 26.0328 1.7157 26.9681 1.7157H26.986H27.004C29.2309 1.86491 30.6513 2.60792 31.2266 3.92368L31.2338 3.93958L31.2394 3.95547C31.4492 4.53388 31.5507 5.02562 31.5507 5.45891C31.5507 5.84657 31.4302 6.25268 31.1918 6.66649C30.9231 7.13362 30.4764 7.43872 29.8642 7.57409C29.6533 7.62535 29.4372 7.65253 29.2202 7.65511C28.9291 7.66114 28.6415 7.5904 28.3864 7.45L28.1162 7.29617V6.91672C28.1162 6.36241 27.7742 5.88349 27.0701 5.45379C26.5871 5.15741 25.9354 5.00768 25.1319 5.00768C24.5866 5.0133 24.0429 5.06631 23.5069 5.16612C21.7973 5.57634 20.2118 6.15833 18.7945 6.89416L18.7863 6.89826L18.7781 6.90236C17.9921 7.2772 17.2203 7.6105 16.4814 7.89508C16.0769 9.09599 15.4292 10.4041 14.5529 11.7875C13.6181 13.2627 12.5767 14.5693 11.4583 15.6702C10.2482 16.8619 9.1755 17.4413 8.17662 17.4413L8.14586 17.4464ZM10.9728 7.93251C11.2769 8.1975 11.4893 8.55204 11.5794 8.94523L11.6219 9.12163L11.5491 9.28776C11.2476 9.97436 10.923 10.7579 10.5836 11.6178C10.3171 12.277 10.0929 12.9525 9.91235 13.6401C10.2298 13.2458 10.6302 12.6546 11.1158 11.767C11.7414 10.6307 12.2162 9.51954 12.5331 8.45554C11.9111 8.38478 11.3896 8.20992 10.9728 7.93251ZM12.2244 5.40559C12.3203 5.52404 12.4998 5.65736 12.911 5.65736C12.972 5.65736 13.0361 5.65428 13.1038 5.64761C13.1137 5.5625 13.1188 5.47691 13.1192 5.39123C13.1192 4.88769 12.9402 4.86051 12.7962 4.83846H12.79C12.7852 4.83799 12.7804 4.83799 12.7757 4.83846C12.6771 4.84284 12.5799 4.86345 12.488 4.89948C12.4094 4.93409 12.3402 4.9868 12.286 5.05331C12.2526 5.13895 12.2307 5.2286 12.2208 5.31995V5.34149C12.2206 5.36291 12.2218 5.38433 12.2244 5.40559Z" fill="#070707"/>
<path d="M17.8034 17.4383C16.8568 17.4383 16.0984 17.2055 15.5472 16.746C14.9867 16.2784 14.6519 15.5872 14.5519 14.695C14.5215 14.4138 14.5063 14.1312 14.5063 13.8484C14.5063 12.5101 14.9098 11.0958 15.7067 9.64367C16.5604 8.08844 17.7895 7.2998 19.3596 7.2998C20.0072 7.2998 20.6149 7.55106 21.1661 8.04691C21.6896 8.52686 21.9532 9.21551 21.9532 10.098C21.9532 10.1928 21.9501 10.2903 21.9435 10.3872V10.3974V10.4097C21.8562 11.2092 21.5874 11.9781 21.1574 12.6577C21.5378 12.1092 21.8855 11.5387 22.1988 10.9492L22.3527 10.6677H24.3396L24.032 11.4112C23.2664 13.2464 22.2983 14.7144 21.1548 15.7749C19.9462 16.8942 18.853 17.4383 17.8034 17.4383ZM18.7684 11.6404C18.7376 11.7286 18.7171 11.8035 18.6997 11.866C18.7366 11.8342 18.7781 11.7968 18.8233 11.7532C19.0024 11.5602 19.1461 11.3372 19.2478 11.0943C19.3144 10.9516 19.371 10.8044 19.417 10.6538C19.1848 10.8615 18.9673 11.1943 18.7684 11.6404Z" fill="#070707"/>
<path d="M20.4272 22.2793C17.8992 22.2793 17.0768 21.0277 16.8317 19.977L16.826 19.9529L16.8229 19.9283C16.7978 19.7497 16.7848 19.5697 16.784 19.3894C16.784 18.632 17.0475 18.0049 17.5675 17.5296C18.0145 17.1195 18.6018 16.8963 19.2083 16.906C19.4864 16.9089 19.7631 16.9455 20.0324 17.0152L20.3754 17.1009L20.4318 17.4501C20.4754 17.7203 20.5913 18.4366 22.1906 18.5233C22.4214 18.5341 22.6608 18.5397 22.8982 18.5397C23.8438 18.5397 24.8914 18.4372 26.02 18.232C25.7753 17.576 25.6512 16.8811 25.6538 16.181C25.6538 15.8405 25.7138 15.2795 25.8374 14.4663C25.96 13.6622 26.1964 12.7423 26.5343 11.7332C26.6768 11.2717 26.7835 10.881 26.8527 10.5677C26.6127 10.7277 26.3492 11.022 26.0835 11.4332C25.5742 12.2265 25.1976 13.0975 24.9688 14.012C24.8633 14.3904 24.8063 14.7806 24.7991 15.1734C24.7913 15.4864 24.854 15.7971 24.9826 16.0825L25.1488 16.4261L24.8791 16.6958C24.3817 17.1932 23.7869 17.4455 23.111 17.4455C21.8178 17.4455 21.0764 16.7194 21.0764 15.4528C21.0764 15.3795 21.0794 15.3021 21.0861 15.2216C21.1712 13.8081 21.5008 12.4202 22.0604 11.1194C22.6121 9.81648 23.1531 8.68582 23.6684 7.75873C23.7033 7.69412 23.7412 7.62798 23.7787 7.56542L23.9325 7.30493H24.2371C24.6806 7.30493 25.1534 7.42953 25.6421 7.67515C25.8975 7.79996 26.1257 7.97426 26.3133 8.18792C26.9937 7.60234 27.7162 7.30647 28.4669 7.30647C30.5913 7.30647 30.9082 8.40636 30.9082 9.06219C30.9082 9.08219 30.9082 9.10475 30.8826 9.77648C30.8631 10.2851 30.6262 11.1384 30.1308 12.4619C29.785 13.4324 29.5155 14.4285 29.3248 15.441C29.2757 15.7073 29.2504 15.9774 29.2494 16.2481C29.247 16.676 29.3215 17.1008 29.4694 17.5024C29.5719 17.4767 29.6745 17.4511 29.7729 17.4229C30.0806 17.3409 30.3724 17.2691 30.6385 17.2132H30.6477H30.6575C31.2662 17.0974 31.8838 17.0351 32.5034 17.027C33.491 17.027 34.2248 17.2321 34.7458 17.6547C35.2934 18.0987 35.5708 18.6151 35.5708 19.1889C35.5708 19.5273 35.4201 19.9539 35.096 20.5308C34.7273 21.1871 33.7977 21.5835 32.1696 21.7789L32.146 21.7814H32.1224C31.9399 21.7871 31.7604 21.7902 31.5892 21.7902C29.6437 21.7902 28.229 21.3533 27.3747 20.4898C26.2415 20.9102 25.0883 21.3051 23.9391 21.664C22.6362 22.0717 21.4527 22.2793 20.4272 22.2793ZM31.5343 19.1002C31.6368 19.1053 31.7317 19.1079 31.8194 19.1079C32.0652 19.1134 32.3102 19.0771 32.5439 19.0007C32.5059 18.997 32.4678 18.9952 32.4296 18.9956C32.3819 18.9956 32.3316 18.9956 32.2799 19.0022H32.2578H32.2363C31.9776 19.0062 31.72 19.0357 31.4671 19.0904C31.4897 19.095 31.5122 19.0971 31.5343 19.0991V19.1002Z" fill="#070707"/>
<path d="M7.93101 17.2316C6.8542 17.2316 6.16709 16.6948 5.98608 15.7374C5.79396 15.9548 5.60048 16.1557 5.40562 16.3399C4.78004 16.9317 4.14934 17.2316 3.52991 17.2316C2.24184 17.2316 1.50345 16.5056 1.50345 15.239C1.50345 15.1703 1.50601 15.098 1.51165 15.0231C1.51576 13.7694 1.86341 12.3337 2.54591 10.7559C3.22071 9.19654 3.74681 8.08948 4.15498 7.3716L4.30881 7.10034H4.62109C5.10786 7.10259 5.58498 7.23635 6.00197 7.48748C6.23355 7.6188 6.43583 7.79606 6.59641 8.0084C6.75698 8.22073 6.87245 8.46365 6.93573 8.72223L6.98239 8.90427L6.90547 9.07553C6.60038 9.75854 6.27118 10.5415 5.92814 11.4035C5.66594 12.0476 5.44433 12.7074 5.26461 13.3792C5.30529 13.3187 5.34836 13.252 5.39383 13.1792C5.82558 12.4962 6.29374 11.6891 6.78497 10.781C7.28133 9.86417 7.72847 9.02272 8.11356 8.27971L8.12022 8.26741C8.32533 7.90027 8.47455 7.61106 8.57044 7.40852L8.71606 7.10086H9.0591C9.54572 7.10309 10.0227 7.23686 10.4395 7.488C10.4687 7.50492 10.4969 7.52287 10.5251 7.53928C10.3151 7.36142 10.1359 7.15004 9.99491 6.9137C9.66879 6.36811 9.50368 5.79996 9.50368 5.22156C9.50558 4.87296 9.56251 4.52685 9.67238 4.19602C9.91235 3.40123 10.3569 2.7859 10.9948 2.36748C11.6101 1.96291 12.269 1.75216 12.9505 1.7378H12.9731H12.9956C15.0093 1.86856 16.2204 2.82795 16.5337 4.5247C17.5824 4.16935 18.6781 3.77093 19.7996 3.33867C21.1794 2.81257 22.4834 2.348 23.6771 1.95778L23.6894 1.95368L23.7017 1.9506C24.7929 1.65114 25.82 1.49988 26.7558 1.49988H26.7737H26.7917C29.0181 1.64909 30.4385 2.3921 31.0138 3.70786L31.021 3.72376L31.0267 3.74017C31.2364 4.31806 31.3384 4.8098 31.3384 5.24361C31.3384 5.63075 31.2174 6.03686 30.9795 6.45067C30.7103 6.9178 30.2616 7.22289 29.6514 7.35827C29.4403 7.41265 29.2237 7.44258 29.0058 7.44749C28.7147 7.45353 28.4272 7.38278 28.1721 7.24238L27.9018 7.08855V6.70551C27.9018 6.1507 27.5598 5.67228 26.8558 5.24207C26.3728 4.9462 25.7215 4.79596 24.918 4.79596C24.3726 4.80158 23.8288 4.85459 23.2926 4.9544C21.583 5.36462 19.9975 5.94661 18.5802 6.68244L18.572 6.68654L18.5643 6.69064C17.7777 7.06548 17.0065 7.39929 16.2671 7.68336C15.8636 8.88632 15.2154 10.1949 14.3406 11.5768C13.4059 13.0521 12.3649 14.3586 11.2466 15.46C10.0359 16.6517 8.96322 17.2306 7.96486 17.2306L7.93101 17.2316ZM10.7579 7.71772C11.0629 7.98236 11.276 8.33695 11.3666 8.73044L11.4091 8.90683L11.3363 9.07297C11.0348 9.75957 10.7102 10.5436 10.3708 11.403C10.1043 12.0622 9.8801 12.7377 9.69955 13.4254C10.017 13.031 10.4174 12.4398 10.9035 11.5522C11.5286 10.4159 12.0034 9.30474 12.3203 8.24074C11.6971 8.17066 11.1763 7.99632 10.7579 7.71772ZM12.0096 5.1913C12.1055 5.30924 12.2849 5.44256 12.6962 5.44256C12.7572 5.44256 12.8213 5.43948 12.8895 5.43333C12.8989 5.34818 12.9038 5.26261 12.9044 5.17695C12.9044 4.67341 12.7254 4.64623 12.5818 4.62418H12.5757H12.5608C12.4622 4.62855 12.365 4.64917 12.2731 4.6852C12.1947 4.71999 12.1255 4.77268 12.0711 4.83903C12.0378 4.92467 12.0159 5.01432 12.006 5.10567V5.12721C12.006 5.14862 12.0072 5.17002 12.0096 5.1913Z" fill="#070707"/>
<path d="M17.5885 17.2234C16.6419 17.2234 15.8836 16.9906 15.3323 16.5317C14.7719 16.0636 14.4365 15.3723 14.3365 14.4806C14.3064 14.1993 14.2912 13.9165 14.2909 13.6335C14.2909 12.2952 14.695 10.881 15.4913 9.42883C16.3456 7.8736 17.5747 7.08496 19.1443 7.08496C19.7919 7.08496 20.4 7.33673 20.9507 7.83206C21.4743 8.31202 21.7378 9.00066 21.7378 9.88314C21.7378 9.97749 21.7348 10.0749 21.7286 10.1718V10.1846V10.197C21.6414 10.9963 21.3727 11.7652 20.943 12.4449C21.3221 11.8957 21.6686 11.3246 21.9809 10.7349L22.1347 10.4533H24.1243L23.8166 11.1969C23.051 13.0321 22.0829 14.5001 20.94 15.561C19.7314 16.6794 18.6361 17.2234 17.5885 17.2234ZM18.5535 11.4256C18.5228 11.5137 18.5023 11.5886 18.4848 11.6517C18.5218 11.6194 18.5633 11.5819 18.6089 11.5384C18.7878 11.3453 18.9314 11.1223 19.033 10.8795C19.0988 10.7358 19.1545 10.5878 19.1996 10.4364C18.9699 10.6472 18.7504 10.9794 18.5535 11.4256Z" fill="#070707"/>
<path d="M20.2123 22.065C17.6849 22.065 16.8619 20.8128 16.6173 19.7622L16.6117 19.7381L16.6081 19.7134C16.583 19.5351 16.57 19.3552 16.5691 19.175C16.5691 18.4172 16.8327 17.7906 17.3526 17.3147C17.7998 16.9048 18.3869 16.6817 18.9935 16.6912C19.2718 16.6939 19.5486 16.7306 19.818 16.8004L20.1611 16.8865L20.2175 17.2357C20.2611 17.5055 20.3769 18.2218 21.9768 18.3085C22.207 18.3192 22.4465 18.3249 22.6839 18.3249C23.6294 18.3249 24.677 18.2223 25.8056 18.0172C25.5612 17.3611 25.4372 16.6663 25.4395 15.9661C25.4395 15.6256 25.4995 15.0647 25.6231 14.2514C25.7456 13.4474 25.982 12.5275 26.3205 11.5184C26.4625 11.0569 26.5691 10.6661 26.6384 10.3528C26.3989 10.5128 26.1353 10.8077 25.8692 11.2184C25.3601 12.0117 24.9835 12.8827 24.7545 13.7971C24.6492 14.1755 24.5923 14.5658 24.5852 14.9585C24.5772 15.2715 24.6398 15.5822 24.7683 15.8677L24.9344 16.2112L24.6647 16.4809C24.1673 16.9783 23.5725 17.2306 22.8972 17.2306C21.604 17.2306 20.862 16.5045 20.862 15.238C20.862 15.1652 20.8651 15.0872 20.8718 15.0067C20.9569 13.5933 21.2865 12.2053 21.846 10.9046C22.3978 9.60163 22.9387 8.47097 23.4541 7.54389C23.4889 7.47928 23.5269 7.41313 23.5643 7.35109L23.7207 7.09009H24.0248C24.4688 7.09009 24.9416 7.21469 25.4298 7.46031C25.6852 7.58512 25.9134 7.75941 26.101 7.97308C26.7814 7.38749 27.5039 7.09163 28.2546 7.09163C30.379 7.09163 30.6959 8.19152 30.6959 8.84735C30.6959 8.86735 30.6959 8.88991 30.6703 9.56215C30.6508 10.0703 30.4139 10.9241 29.9186 12.2475C29.5727 13.2179 29.3032 14.2138 29.1125 15.2262C29.0634 15.4925 29.0382 15.7626 29.0371 16.0333C29.0346 16.4612 29.1093 16.8861 29.2576 17.2875C29.3602 17.2619 29.4627 17.2363 29.5606 17.2081C29.8683 17.126 30.1601 17.0542 30.4262 16.9983H30.4354H30.4452C31.0539 16.8826 31.6716 16.8203 32.2911 16.8122C33.2792 16.8122 34.0125 17.0173 34.5335 17.4398C35.0811 17.8839 35.3585 18.4002 35.3585 18.974C35.3585 19.3125 35.2078 19.7391 34.8837 20.3165C34.5155 20.9723 33.5854 21.3687 31.9573 21.564L31.9337 21.5671H31.9102C31.7276 21.5727 31.5512 21.5758 31.3769 21.5758C29.4314 21.5758 28.0167 21.1389 27.1624 20.2754C26.0292 20.6959 24.876 21.0907 23.7294 21.4497C22.4214 21.8573 21.2384 22.065 20.2123 22.065ZM31.3194 18.8858C31.422 18.891 31.5169 18.8935 31.6051 18.8935C31.8505 18.8993 32.0951 18.8634 32.3286 18.7874C32.2952 18.7843 32.2578 18.7823 32.2142 18.7823C32.1706 18.7823 32.1163 18.7823 32.065 18.7889H32.0424H32.0199C31.7612 18.7926 31.5035 18.8222 31.2507 18.8771C31.2748 18.8802 31.2974 18.8828 31.3194 18.8843V18.8858Z" fill="#070707"/>
<path d="M7.71617 17.0173C6.63935 17.0173 5.95224 16.48 5.77123 15.5226C5.57912 15.74 5.38563 15.9409 5.19078 16.1251C4.5652 16.7169 3.9345 17.0173 3.31507 17.0173C2.02699 17.0173 1.2886 16.2907 1.2886 15.0242C1.2886 14.956 1.29117 14.8832 1.29681 14.8083C1.30091 13.5546 1.64908 12.1188 2.33158 10.5411C3.00587 8.98172 3.53197 7.87466 3.94014 7.15678L4.09397 6.88501H4.40573C4.89251 6.88718 5.36965 7.02095 5.78662 7.27215C6.01832 7.40343 6.2207 7.58074 6.38128 7.79318C6.54187 8.00562 6.65727 8.24869 6.72037 8.50741L6.76703 8.68893L6.69063 8.8602C6.38297 9.54321 6.05633 10.3267 5.71329 11.1882C5.4513 11.8331 5.23004 12.4938 5.05079 13.1664C5.09147 13.1052 5.13455 13.0384 5.18001 12.9659C5.61176 12.2829 6.07992 11.4758 6.57116 10.5677C7.06752 9.6514 7.51465 8.80943 7.89974 8.06694L7.9064 8.05464C8.11151 7.68698 8.26073 7.39778 8.35662 7.19524L8.50224 6.88757H8.84221C9.32882 6.88981 9.80578 7.02358 10.2226 7.27471C10.2518 7.29215 10.2805 7.30958 10.3082 7.32599C10.0979 7.14837 9.91837 6.93716 9.77699 6.70093C9.45087 6.15585 9.28576 5.58719 9.28576 5.01135C9.2877 4.66276 9.34464 4.31666 9.45446 3.98581C9.69443 3.19102 10.139 2.5757 10.7769 2.15728C11.3922 1.7527 12.0511 1.54195 12.7326 1.5276H12.7552H12.7777C14.7919 1.65835 16.0025 2.61775 16.3158 4.31501C17.3649 3.95915 18.4602 3.56124 19.5817 3.12846C20.9646 2.60339 22.268 2.14189 23.4618 1.75014L23.4741 1.74655L23.4869 1.74296C24.5776 1.44402 25.6052 1.29224 26.5404 1.29224H26.5584H26.5763C28.8028 1.44145 30.2232 2.18445 30.7985 3.50022L30.8057 3.51612L30.8113 3.53253C31.021 4.11042 31.1231 4.60216 31.1231 5.03597C31.1231 5.42311 31.002 5.82922 30.7641 6.24354C30.4949 6.71016 30.0462 7.01269 29.4361 7.15063C29.2252 7.20216 29.0091 7.22934 28.792 7.23164C28.5011 7.23776 28.2136 7.16701 27.9588 7.02654L27.688 6.87271V6.49377C27.688 5.93895 27.346 5.46054 26.642 5.03084C26.1589 4.73446 25.5077 4.58473 24.7042 4.58473C24.1588 4.59016 23.615 4.643 23.0787 4.74266C21.3692 5.15288 19.7837 5.73487 18.3664 6.47069L18.3587 6.4748L18.3505 6.4789C17.5639 6.85425 16.7927 7.18755 16.0533 7.47162C15.6492 8.67304 15.0011 9.98111 14.1248 11.364C13.19 12.8398 12.1491 14.1458 11.0307 15.2473C9.82006 16.4389 8.74735 17.0184 7.74899 17.0184L7.71617 17.0173ZM10.5431 7.5029C10.8473 7.76784 11.0596 8.12239 11.1497 8.51562L11.1927 8.69201L11.1194 8.85917C10.8184 9.54577 10.4933 10.3298 10.1539 11.1892C9.88769 11.8484 9.66367 12.5239 9.48317 13.2116C9.80006 12.8178 10.201 12.226 10.6866 11.3389C11.3117 10.2021 11.787 9.09095 12.1034 8.02746C11.4816 7.95602 10.9615 7.78116 10.5431 7.5029ZM11.7947 4.97648C11.8911 5.09442 12.0701 5.22774 12.4813 5.22774C12.5424 5.22774 12.6064 5.22466 12.6746 5.21851C12.684 5.13336 12.689 5.04779 12.6895 4.96213C12.6895 4.45859 12.5106 4.43141 12.367 4.40936H12.3608H12.346C12.2474 4.41374 12.1502 4.43435 12.0583 4.47038C11.9798 4.50507 11.9106 4.55777 11.8563 4.62421C11.8231 4.70989 11.8012 4.79952 11.7911 4.89085V4.91085C11.7911 4.93278 11.7923 4.95469 11.7947 4.97648Z" fill="#070707"/>
<path d="M17.3736 17.0086C16.4276 17.0086 15.6687 16.7758 15.1175 16.3169C14.557 15.8487 14.2216 15.158 14.1217 14.2632C14.0915 13.9819 14.0763 13.6991 14.076 13.4161C14.076 12.0778 14.4801 10.6641 15.2764 9.21142C16.1307 7.65619 17.3598 6.86755 18.9294 6.86755C19.5775 6.86755 20.1852 7.11932 20.7359 7.61517C21.2594 8.09512 21.5235 8.78326 21.5235 9.66625C21.5235 9.7606 21.5199 9.85803 21.5137 9.95545V9.96776V9.98058C21.4265 10.7798 21.1578 11.5485 20.7282 12.228C21.1084 11.6795 21.456 11.109 21.7691 10.5195L21.9229 10.238H23.912L23.6017 10.9815C22.8362 12.8167 21.8686 14.2853 20.7251 15.3457C19.5165 16.4645 18.4212 17.0086 17.3736 17.0086ZM18.3402 11.2107C18.3094 11.2989 18.2889 11.3738 18.2715 11.4368C18.3084 11.4045 18.35 11.3671 18.3956 11.3235C18.5747 11.1305 18.7184 10.9075 18.8202 10.6646C18.8856 10.5209 18.9413 10.3728 18.9868 10.2216C18.755 10.4323 18.5376 10.7646 18.3402 11.2107Z" fill="#070707"/>
<path d="M19.9975 21.8502C17.4701 21.8502 16.6476 20.598 16.4025 19.5473L16.3968 19.5232L16.3932 19.4986C16.3682 19.3202 16.3551 19.1403 16.3543 18.9602C16.3543 18.2023 16.6178 17.5757 17.1378 17.0999C17.5849 16.6899 18.1721 16.4668 18.7787 16.4763C19.0569 16.4791 19.3338 16.5158 19.6032 16.5856L19.9462 16.6717L20.0031 17.0209C20.0467 17.2906 20.1626 18.0075 21.7619 18.0941C21.9922 18.1044 22.2316 18.11 22.4691 18.11C23.4146 18.11 24.4622 18.0075 25.5908 17.8024C25.3463 17.1463 25.2223 16.4514 25.2247 15.7513C25.2247 15.4108 25.2847 14.8503 25.4088 14.0371C25.5308 13.2326 25.7651 12.3132 26.1056 11.3035C26.2476 10.842 26.3543 10.4518 26.4235 10.1385C26.1841 10.2985 25.9205 10.5928 25.6544 11.0036C25.1451 11.797 24.7686 12.6682 24.5396 13.5828C24.4343 13.9612 24.3774 14.3515 24.3704 14.7442C24.3624 15.0572 24.4251 15.368 24.554 15.6533L24.7196 15.9964L24.4499 16.2661C23.9525 16.764 23.3577 17.0163 22.6824 17.0163C21.3892 17.0163 20.6472 16.2897 20.6472 15.0231C20.6472 14.9503 20.6503 14.8724 20.6569 14.7919C20.7425 13.3785 21.0721 11.9907 21.6312 10.6897C22.1834 9.38679 22.7244 8.25613 23.2392 7.32904C23.2741 7.26495 23.312 7.1988 23.3495 7.13625L23.5033 6.87524H23.8074C24.2514 6.87524 24.7242 6.99985 25.2124 7.24547C25.4679 7.37044 25.6962 7.54471 25.8841 7.75823C26.564 7.17214 27.287 6.87627 28.0377 6.87627C30.1621 6.87627 30.479 7.97616 30.479 8.63199C30.479 8.65199 30.479 8.67455 30.4534 9.34679C30.4339 9.85546 30.197 10.7087 29.7022 12.0322C29.3561 13.003 29.0866 13.9995 28.8961 15.0124C28.847 15.2786 28.8218 15.5487 28.8207 15.8195C28.8182 16.2474 28.8929 16.6723 29.0412 17.0737C29.1438 17.0481 29.245 17.0216 29.3448 16.9942C29.6524 16.9122 29.9437 16.8404 30.2098 16.7845H30.2196H30.2288C30.8375 16.6686 31.4552 16.6062 32.0748 16.5979C33.0629 16.5979 33.7961 16.803 34.3171 17.226C34.8647 17.6695 35.1421 18.1859 35.1421 18.7602C35.1421 19.0981 34.9914 19.5248 34.6673 20.1021C34.2992 20.758 33.369 21.1543 31.7409 21.3497L31.7174 21.3528H31.6938C31.5117 21.3589 31.3323 21.3615 31.1605 21.3615C29.215 21.3615 27.8003 20.9246 26.9466 20.0611C25.8128 20.4821 24.6596 20.8764 23.511 21.2353C22.2065 21.6425 21.0236 21.8502 19.9975 21.8502ZM31.1046 18.671C31.2072 18.6756 31.3025 18.6782 31.3902 18.6782C31.6357 18.684 31.8803 18.6481 32.1137 18.572C32.0804 18.5689 32.043 18.5669 31.9994 18.5669C31.9558 18.5669 31.902 18.5695 31.8502 18.5736H31.8276H31.805C31.5464 18.5773 31.2887 18.6068 31.0359 18.6618L31.1046 18.671Z" fill="#070707"/>
<path d="M7.50181 16.8025C6.42499 16.8025 5.73737 16.2651 5.55687 15.3083C5.36407 15.5252 5.17076 15.7267 4.97591 15.9108C4.35084 16.5025 3.71962 16.8025 3.1002 16.8025C1.81263 16.8025 1.07373 16.0759 1.07373 14.8099C1.07373 14.7412 1.07681 14.6684 1.08245 14.5935C1.08604 13.3398 1.43421 11.9045 2.1167 10.3262C2.79099 8.76742 3.3171 7.65984 3.72577 6.94196L3.8796 6.67071H4.19188C4.67864 6.67341 5.1556 6.80771 5.57226 7.05939C5.8042 7.19054 6.00679 7.36788 6.16748 7.58043C6.32818 7.79299 6.44357 8.03624 6.50652 8.29516L6.55318 8.47668L6.47678 8.64794C6.16912 9.33095 5.84248 10.1145 5.49944 10.9759C5.23746 11.6198 5.01602 12.2795 4.83643 12.9511C4.87643 12.8903 4.9195 12.8234 4.96565 12.7506C5.39689 12.0676 5.86505 11.2636 6.35679 10.3529C6.85264 9.43607 7.29978 8.59461 7.68538 7.85161L7.69153 7.83931C7.89664 7.47165 8.04637 7.18245 8.14226 6.98042L8.28737 6.67276H8.62734C9.11395 6.67499 9.59091 6.80876 10.0077 7.0599C10.0369 7.07682 10.0657 7.09425 10.0933 7.11117C9.88334 6.93363 9.70434 6.72239 9.56365 6.48611C9.23753 5.94052 9.07242 5.37237 9.07242 4.79397C9.07413 4.4454 9.13089 4.09929 9.24061 3.76843C9.48059 2.97313 9.92567 2.3578 10.563 1.93938C11.1784 1.53481 11.8378 1.32406 12.5187 1.3097H12.5413H12.5639C14.578 1.44097 15.7892 2.39985 16.102 4.09712C17.1511 3.74125 18.2469 3.34334 19.3678 2.91057C20.7482 2.38447 22.0521 1.92041 23.2454 1.53019L23.2577 1.52609L23.2705 1.5225C24.3612 1.22356 25.3887 1.07178 26.324 1.07178H26.342H26.3599C28.5864 1.22099 30.0073 1.964 30.5826 3.27976L30.5892 3.29566L30.5949 3.31207C30.8046 3.88996 30.9067 4.3817 30.9067 4.81551C30.9067 5.20265 30.7856 5.60876 30.5477 6.02308C30.2785 6.4897 29.8298 6.79223 29.2196 6.93017C29.0089 6.98166 28.793 7.00885 28.5761 7.01119C28.285 7.01737 27.9974 6.94662 27.7423 6.80608L27.4721 6.65225V6.27331C27.4721 5.71849 27.1296 5.24008 26.4256 4.81038C25.943 4.514 25.2913 4.36427 24.4878 4.36427C23.9424 4.3697 23.3986 4.42254 22.8623 4.5222C21.1528 4.93242 19.5673 5.51441 18.1505 6.25023L18.1423 6.25485L18.1341 6.25844C17.3475 6.63379 16.5763 6.96709 15.8369 7.25116C15.4328 8.45258 14.7847 9.76065 13.9083 11.1441C12.9736 12.6193 11.9326 13.9259 10.8143 15.0268C9.60365 16.2185 8.53094 16.7979 7.53257 16.7979L7.50181 16.8025ZM10.3282 7.28808C10.6324 7.55302 10.8448 7.90758 10.9348 8.3008L10.9779 8.47719L10.9051 8.64384C10.6041 9.32993 10.279 10.114 9.93951 10.9739C9.67327 11.6329 9.44924 12.3082 9.26881 12.9957C9.5857 12.6019 9.98412 12.0102 10.4723 11.1231C11.0968 9.9873 11.5717 8.8751 11.8885 7.81162C11.2671 7.74086 10.747 7.56634 10.3282 7.28808ZM11.5799 4.76167C11.6763 4.88011 11.8557 5.01292 12.267 5.01292C12.3275 5.01292 12.3921 5.00985 12.4598 5.00369C12.4692 4.91855 12.4742 4.83297 12.4746 4.74731C12.4746 4.24377 12.2957 4.21659 12.1521 4.19506H12.146H12.1316C12.0329 4.19929 11.9357 4.22009 11.8439 4.25659C11.7652 4.29104 11.6957 4.34377 11.6414 4.41042C11.6083 4.49611 11.5864 4.58574 11.5763 4.67706V4.69808C11.5763 4.71933 11.5775 4.74055 11.5799 4.76167Z" fill="#070707"/>
<path d="M17.1608 16.7937C16.2148 16.7937 15.4559 16.5609 14.9047 16.102C14.3442 15.6338 14.0094 14.9431 13.9089 14.0509C13.8787 13.7696 13.8635 13.4868 13.8632 13.2038C13.8632 11.8655 14.2673 10.4518 15.0636 8.99911C15.9179 7.44389 17.147 6.65576 18.7171 6.65576C19.3647 6.65576 19.9724 6.90702 20.5236 7.40286C21.0471 7.88282 21.3107 8.57095 21.3107 9.45394C21.3107 9.5488 21.3071 9.64572 21.3009 9.74314V9.75545V9.76827C21.2132 10.5675 20.9444 11.3361 20.5149 12.0157C20.8952 11.4671 21.2429 10.8966 21.5563 10.3072L21.7101 10.0257H23.6997L23.392 10.7692C22.6259 12.6044 21.6583 14.073 20.5149 15.1334C19.3017 16.2502 18.2064 16.7937 17.1608 16.7937ZM18.1259 10.9958C18.0951 11.0845 18.0746 11.1594 18.0572 11.222C18.0946 11.1902 18.1356 11.1527 18.1813 11.1086C18.3597 10.9152 18.5027 10.6918 18.6038 10.4487C18.6692 10.305 18.7249 10.1569 18.7704 10.0057C18.5402 10.2175 18.3228 10.5513 18.1238 10.9958H18.1259Z" fill="#070707"/>
<path d="M19.7826 21.6353C17.2552 21.6353 16.4327 20.3831 16.1876 19.3329L16.182 19.3083L16.1784 19.2837C16.1535 19.1053 16.1406 18.9254 16.1399 18.7453C16.1399 17.9874 16.4035 17.3608 16.9234 16.885C17.3705 16.4749 17.9577 16.2517 18.5643 16.2614C18.8426 16.2642 19.1194 16.3009 19.3888 16.3707L19.7324 16.4568L19.7888 16.806C19.8324 17.0757 19.9483 17.7926 21.5476 17.8792C21.7778 17.8895 22.0173 17.8951 22.2547 17.8951C23.2002 17.8951 24.2478 17.7926 25.3764 17.5875C25.132 16.9314 25.008 16.2365 25.0103 15.5364C25.0103 15.1959 25.0703 14.6355 25.1944 13.8222C25.3164 13.0177 25.5533 12.0983 25.8913 11.0886C26.0333 10.6271 26.1399 10.2369 26.2097 9.92362C25.9697 10.0836 25.7061 10.3779 25.4405 10.7887C24.93 11.5831 24.5526 12.4555 24.3232 13.3715C24.2181 13.7499 24.1612 14.1402 24.154 14.5329C24.147 14.8452 24.2105 15.1551 24.3396 15.4395L24.5052 15.7825L24.2355 16.0522C23.7381 16.5501 23.1433 16.8024 22.468 16.8024C21.1748 16.8024 20.4328 16.0758 20.4328 14.8098C20.4328 14.7365 20.4364 14.6585 20.4426 14.578C20.5279 13.1646 20.8575 11.7767 21.4168 10.4759C21.9686 9.17292 22.5095 8.04226 23.0244 7.11518C23.0597 7.05108 23.0972 6.98493 23.1346 6.92237L23.291 6.66138H23.5951C24.0391 6.66138 24.5119 6.78598 25.0006 7.03211C25.2561 7.15689 25.4842 7.33118 25.6718 7.54488C26.3522 6.95929 27.0747 6.66291 27.8254 6.66291C29.9498 6.66291 30.2672 7.7628 30.2672 8.41864C30.2672 8.43863 30.2672 8.46171 30.2411 9.13344C30.2216 9.6421 29.9847 10.4954 29.4899 11.8188C29.1437 12.7891 28.874 13.7851 28.6833 14.7975C28.6342 15.0637 28.609 15.3338 28.6079 15.6046C28.6051 16.0322 28.6791 16.4568 28.8263 16.8583C28.9289 16.8327 29.0301 16.8062 29.1299 16.7788C29.4376 16.6973 29.7288 16.625 29.9949 16.5691H30.0047H30.0139C30.6226 16.4534 31.2403 16.3911 31.8599 16.383C32.848 16.383 33.5813 16.5881 34.1022 17.0106C34.6499 17.4547 34.9278 17.9705 34.9278 18.5448C34.9278 18.8832 34.774 19.3093 34.4524 19.8867C34.0843 20.5426 33.1541 20.9389 31.5261 21.1343L31.5025 21.1374H31.4794C31.2969 21.1435 31.1174 21.1461 30.9461 21.1461C28.9976 21.1461 27.5854 20.7092 26.7317 19.8462C25.598 20.2667 24.4447 20.661 23.2961 21.0199C21.9916 21.4276 20.8087 21.6353 19.7826 21.6353ZM30.8897 18.4561C30.9923 18.4607 31.0877 18.4633 31.1753 18.4633C31.4208 18.4693 31.6655 18.4334 31.8989 18.3571C31.866 18.3541 31.8281 18.352 31.7845 18.352C31.7409 18.352 31.6871 18.352 31.6353 18.3587H31.6127H31.5902C31.3315 18.3624 31.0738 18.3919 30.821 18.4469L30.8897 18.4561Z" fill="#070707"/>
<path d="M7.28696 16.5876C6.21015 16.5876 5.52252 16.0502 5.34203 15.0934C5.14974 15.3103 4.95591 15.5118 4.76106 15.6959C4.136 16.2877 3.50478 16.5876 2.88535 16.5876C1.59779 16.5876 0.858887 15.861 0.858887 14.595C0.858887 14.5263 0.861964 14.4535 0.867604 14.3786C0.871194 13.1249 1.21936 11.6896 1.90186 10.1119C2.57615 8.55253 3.10277 7.44546 3.51093 6.72758L3.66476 6.45633H3.97704C4.46365 6.45856 4.94061 6.59233 5.35741 6.84347C5.58907 6.97478 5.79136 7.15219 5.95179 7.36474C6.11221 7.57728 6.22736 7.82045 6.29014 8.07924L6.3368 8.26076L6.2604 8.43202C5.95274 9.11503 5.6261 9.89855 5.28306 10.7605C5.021 11.4042 4.79957 12.0638 4.62005 12.7352C4.66005 12.674 4.70312 12.6073 4.74927 12.5352C5.18051 11.8517 5.64866 11.0451 6.14041 10.137C6.6378 9.2181 7.08493 8.3787 7.46951 7.6357L7.47618 7.62339C7.68128 7.25573 7.8305 6.96705 7.92639 6.7645L8.0715 6.45684H8.41147C8.89823 6.45914 9.37534 6.59289 9.79235 6.84398C9.82107 6.8609 9.84978 6.87834 9.87747 6.89526C9.66774 6.71724 9.48878 6.50589 9.34778 6.26968C9.02166 5.72409 8.85655 5.15594 8.85655 4.5801C8.85828 4.23153 8.91504 3.88542 9.02474 3.55456C9.26471 2.75926 9.7098 2.14394 10.3472 1.72552C10.9625 1.32145 11.6219 1.11019 12.3029 1.09635H12.3254H12.348C14.3622 1.2271 15.5733 2.18598 15.8861 3.88325C16.9352 3.52739 18.031 3.12948 19.1519 2.6967C20.5349 2.17521 21.8388 1.71116 23.0321 1.32145L23.0444 1.31735L23.0572 1.31376C24.1478 1.01482 25.1754 0.863037 26.1107 0.863037H26.1287H26.1466C28.3731 1.01277 29.7939 1.75526 30.3693 3.07154L30.3759 3.08692L30.3821 3.10333C30.5913 3.68122 30.6933 4.17296 30.6933 4.60677C30.6933 4.99391 30.5723 5.40053 30.3344 5.81434C30.0657 6.28096 29.6165 6.58349 29.0063 6.72143C28.7956 6.77295 28.5797 6.80014 28.3628 6.80245C28.0717 6.80851 27.7841 6.73776 27.529 6.59734L27.2588 6.44351V6.06457C27.2588 5.50975 26.9163 5.03134 26.2123 4.60164C25.7297 4.30526 25.078 4.15553 24.2745 4.15553C23.7291 4.16121 23.1853 4.21406 22.649 4.31346C20.9394 4.72368 19.3545 5.30567 17.9372 6.04201L17.929 6.04611L17.9208 6.0497C17.1342 6.42351 16.3625 6.75681 15.6225 7.04088C15.218 8.2423 14.5698 9.55038 13.694 10.9338C12.7587 12.4091 11.7178 13.7156 10.5995 14.8165C9.38932 16.0082 8.31609 16.5876 7.31773 16.5876H7.28696ZM10.1133 7.0737C10.4177 7.3383 10.6301 7.69275 10.72 8.08591L10.763 8.26281L10.6902 8.42895C10.3887 9.11555 10.0636 9.89906 9.72569 10.759C9.4593 11.418 9.23511 12.0933 9.05448 12.7808C9.37188 12.387 9.76979 11.7953 10.2579 10.9082C10.883 9.77138 11.3584 8.66072 11.6747 7.59672C11.0522 7.52596 10.5318 7.35162 10.1133 7.0737ZM11.3666 4.54677C11.4624 4.66522 11.6419 4.79854 12.0532 4.79854C12.1137 4.79854 12.1783 4.79495 12.246 4.7888C12.2556 4.70368 12.2606 4.61808 12.2608 4.53241C12.2608 4.02888 12.0819 4.00119 11.9383 3.97965H11.9321H11.9178C11.8192 3.98423 11.722 4.00502 11.6301 4.04118C11.5515 4.07589 11.4821 4.12858 11.4276 4.19501C11.3944 4.28071 11.3726 4.37033 11.3625 4.46165V4.48268C11.3623 4.50411 11.3637 4.52553 11.3666 4.54677Z" fill="#070707"/>
<path d="M16.9445 16.5789C15.9979 16.5789 15.2395 16.3461 14.6883 15.8872C14.1278 15.4195 13.793 14.7283 13.693 13.8361C13.6625 13.5547 13.6471 13.272 13.6469 12.989C13.6469 11.6507 14.0509 10.2369 14.8478 8.78427C15.7015 7.22955 16.9306 6.44092 18.5007 6.44092C19.1484 6.44092 19.756 6.69217 20.3072 7.18802C20.8307 7.66797 21.0943 8.35662 21.0943 9.2391C21.0943 9.33396 21.0912 9.43087 21.0846 9.5283V9.54112V9.55343C20.997 10.3526 20.7282 11.1213 20.2985 11.8009C20.6785 11.2514 21.0259 10.68 21.3389 10.0898L21.4927 9.80776H23.4818L23.1741 10.5518C22.4085 12.387 21.4404 13.855 20.297 14.9155C19.0868 16.0379 17.9915 16.5789 16.9445 16.5789ZM17.909 10.781C17.8782 10.8697 17.8577 10.9446 17.8408 11.0071C17.8777 10.9753 17.9187 10.9379 17.9644 10.8938C18.1443 10.7011 18.2889 10.4782 18.3915 10.2354C18.4571 10.0915 18.5128 9.94334 18.5582 9.79186C18.3254 10.0026 18.1085 10.3354 17.909 10.781Z" fill="#070707"/>
<path d="M19.5709 21.422C17.0429 21.422 16.2204 20.1698 15.9753 19.1196L15.9697 19.0955L15.9661 19.0709C15.9412 18.8923 15.9283 18.7123 15.9276 18.532C15.9276 17.7746 16.1912 17.1475 16.7112 16.6722C17.1581 16.2619 17.7454 16.0387 18.352 16.0487C18.6301 16.0512 18.9069 16.0879 19.176 16.1579L19.5196 16.243L19.576 16.5922C19.6196 16.8619 19.7355 17.5788 21.3348 17.6654C21.565 17.6762 21.8045 17.6813 22.0424 17.6813C22.9875 17.6813 24.035 17.5788 25.1636 17.3736C24.9193 16.7175 24.7952 16.0227 24.7975 15.3226C24.7975 14.9821 24.858 14.4216 24.9816 13.6084C25.1042 12.8038 25.3405 11.8845 25.6785 10.8748C25.8205 10.4133 25.9272 10.0231 25.9969 9.7098C25.7569 9.86978 25.4934 10.1641 25.2277 10.5753C24.718 11.3684 24.3413 12.2395 24.1125 13.1541C24.0073 13.5325 23.9505 13.9228 23.9433 14.3155C23.9355 14.6285 23.9982 14.9392 24.1268 15.2246L24.293 15.5682L24.0232 15.8379C23.5253 16.3353 22.931 16.5876 22.2552 16.5876C20.962 16.5876 20.22 15.861 20.22 14.5949C20.22 14.5216 20.2236 14.4411 20.2298 14.3637C20.315 12.9503 20.6446 11.5623 21.204 10.2615C21.7558 8.95808 22.2968 7.82742 22.8116 6.90085C22.847 6.83624 22.8844 6.77009 22.9218 6.70753L23.0756 6.44653H23.3802C23.8238 6.44653 24.2965 6.57114 24.7852 6.81726C25.0407 6.94208 25.2688 7.11637 25.4564 7.33003C26.1369 6.74445 26.8594 6.44807 27.6101 6.44807C29.734 6.44807 30.0514 7.54847 30.0514 8.20379C30.0514 8.22379 30.0514 8.24686 30.0252 8.91859C30.0057 9.42726 29.7688 10.2805 29.274 11.604C28.928 12.5743 28.6585 13.5702 28.4679 14.5826C28.4179 14.849 28.392 15.1193 28.3905 15.3903C28.3882 15.8182 28.4629 16.243 28.611 16.6445C28.7135 16.6189 28.8161 16.5932 28.9145 16.565C29.2222 16.4835 29.5135 16.4112 29.7796 16.3553H29.7893H29.7986C30.4073 16.2396 31.025 16.1773 31.6445 16.1692C32.6326 16.1692 33.3664 16.3743 33.8874 16.7968C34.4345 17.2408 34.7124 17.7567 34.7124 18.331C34.7124 18.6694 34.5586 19.0955 34.2376 19.6729C33.8689 20.3287 32.9393 20.7256 31.3107 20.921L31.2876 20.9236H31.2641C31.0815 20.9292 30.902 20.9323 30.7308 20.9323C28.7848 20.9323 27.3701 20.4949 26.5163 19.6319C25.3826 20.0524 24.2294 20.4467 23.0808 20.8061C21.7758 21.2128 20.5964 21.422 19.5709 21.422ZM30.678 18.2428C30.7805 18.2474 30.8754 18.25 30.9631 18.25C31.2078 18.2543 31.4516 18.2172 31.684 18.1402C31.6462 18.1365 31.6082 18.1348 31.5702 18.1351C31.5225 18.1351 31.4722 18.1351 31.4205 18.1413H31.3979H31.3753C31.1167 18.1452 30.859 18.1747 30.6062 18.2295C30.6308 18.2361 30.6528 18.2382 30.6754 18.2428H30.678Z" fill="#070707"/>
<path d="M7.07212 16.3727C5.9953 16.3727 5.30768 15.8353 5.12718 14.8785C4.93507 15.0959 4.74141 15.2967 4.54622 15.481C3.92115 16.0727 3.28993 16.3727 2.67102 16.3727C1.38294 16.3727 0.644043 15.6466 0.644043 14.3801C0.644043 14.3114 0.647119 14.2391 0.652759 14.1637C0.656861 12.9105 1.00452 11.4747 1.68702 9.89694C2.36131 8.33761 2.88792 7.23054 3.29608 6.51266L3.44992 6.24141H3.76219C4.24881 6.24364 4.72576 6.37741 5.14257 6.62855C5.37431 6.75965 5.57673 6.93685 5.73733 7.14922C5.89793 7.36158 6.0133 7.60461 6.07632 7.8633L6.12298 8.04533L6.04658 8.21608C5.73892 8.89961 5.41228 9.6826 5.06924 10.5446C4.80718 11.1883 4.58575 11.8478 4.40623 12.5192C4.44623 12.4582 4.4893 12.3921 4.53545 12.3193C4.9672 11.6357 5.43485 10.8292 5.92659 9.92104C6.42295 9.00421 6.86958 8.16276 7.25518 7.41975L7.26184 7.40745C7.46695 7.03979 7.61617 6.7511 7.71206 6.54856L7.85768 6.2409H8.19713C8.68392 6.24306 9.16106 6.37683 9.57802 6.62804C9.60674 6.64496 9.63545 6.66239 9.66314 6.67931C9.45341 6.5013 9.27445 6.28994 9.13345 6.05373C8.80733 5.50815 8.64222 4.94 8.64222 4.3616C8.6442 4.01305 8.70095 3.66698 8.81041 3.33606C9.05038 2.54075 9.49547 1.92594 10.1328 1.50752C10.7482 1.10295 11.4076 0.892199 12.0885 0.877842H12.1116H12.1342C14.1478 1.0086 15.359 1.96748 15.6723 3.66474C16.7214 3.30888 17.8172 2.91097 18.9386 2.47819C20.3185 1.95209 21.6225 1.48804 22.8162 1.09782L22.8285 1.09372L22.8408 1.09013C23.932 0.791183 24.9591 0.639404 25.8943 0.639404H25.9123H25.9302C28.1567 0.78862 29.5776 1.53162 30.1529 2.84739L30.1596 2.86328L30.1657 2.87918C30.3754 3.45707 30.477 3.94882 30.477 4.38262C30.477 4.76976 30.3559 5.17639 30.118 5.59019C29.8493 6.05681 29.4001 6.36242 28.7905 6.49728C28.5796 6.54893 28.3635 6.57629 28.1464 6.57881C27.8553 6.58485 27.5677 6.51411 27.3127 6.3737L27.0424 6.21987V5.84042C27.0424 5.28612 26.7004 4.80719 25.9959 4.37749C25.5134 4.08111 24.8616 3.93138 24.0581 3.93138C23.5129 3.937 22.9692 3.99002 22.4331 4.08983C20.7231 4.50004 19.1381 5.08204 17.7208 5.81786L17.7126 5.82196L17.7044 5.82555C16.9183 6.2009 16.1466 6.5342 15.4077 6.81827C15.0031 8.01969 14.3555 9.32777 13.4792 10.7112C12.5459 12.1921 11.504 13.5007 10.3856 14.6021C9.1755 15.7938 8.10227 16.3732 7.10391 16.3732L7.07212 16.3727ZM9.89902 6.8593C10.2032 7.12428 10.4155 7.47882 10.5056 7.87201L10.5482 8.04841L10.4754 8.21454C10.1739 8.90114 9.84928 9.68465 9.50982 10.5446C9.24343 11.2036 9.01924 11.8789 8.83861 12.5664C9.15601 12.1726 9.55649 11.5809 10.0421 10.6938C10.6677 9.55698 11.1425 8.44632 11.4589 7.38232C10.8374 7.31105 10.3159 7.13619 9.89902 6.8593ZM11.1507 4.33237C11.2466 4.45082 11.426 4.58414 11.8373 4.58414C11.8978 4.58414 11.9624 4.58106 12.0301 4.5744C12.0399 4.48928 12.0451 4.40369 12.0455 4.31801C12.0455 3.81447 11.8665 3.78729 11.7224 3.76525H11.7163H11.7019C11.6033 3.76983 11.5061 3.79062 11.4142 3.82678C11.3357 3.86138 11.2665 3.9141 11.2122 3.98061C11.1789 4.06624 11.157 4.15589 11.1471 4.24725V4.26879C11.1469 4.28987 11.1481 4.31093 11.1507 4.33186V4.33237Z" fill="#070707"/>
<path d="M16.7296 16.3646C15.783 16.3646 15.0246 16.1318 14.4734 15.6723C13.913 15.2047 13.5781 14.5135 13.4781 13.6213C13.4478 13.3401 13.4325 13.0575 13.4325 12.7747C13.4325 11.4363 13.836 10.0221 14.6329 8.56997C15.4877 7.0132 16.7168 6.22559 18.2889 6.22559C18.9366 6.22559 19.5442 6.47684 20.0954 6.97269C20.619 7.45264 20.8825 8.14129 20.8825 9.02377C20.8825 9.11863 20.8794 9.21605 20.8728 9.31297V9.32579V9.3381C20.7844 10.1373 20.5145 10.9057 20.0836 11.5845C20.4639 11.0359 20.8117 10.4654 21.1251 9.87599L21.2789 9.59448H23.2679L22.9603 10.338C22.1947 12.1732 21.2266 13.6413 20.0831 14.7017C18.8725 15.8205 17.7762 16.3646 16.7296 16.3646ZM17.6941 10.5667C17.6634 10.6549 17.6428 10.7298 17.6259 10.7923C17.6628 10.7605 17.7039 10.7231 17.7495 10.6795C17.9287 10.4865 18.0724 10.2635 18.1741 10.0206C18.2394 9.87668 18.2949 9.72849 18.3402 9.57705C18.111 9.78779 17.8936 10.1206 17.6941 10.5667Z" fill="#070707"/>
<path d="M19.3535 21.2056C16.8255 21.2056 16.003 19.9534 15.7579 18.9032L15.7523 18.8791L15.7492 18.8545C15.7239 18.676 15.7108 18.4959 15.7102 18.3156C15.7102 17.5582 15.9738 16.9311 16.4937 16.4558C16.9409 16.0455 17.5284 15.8225 18.1351 15.8328C18.4134 15.8356 18.6903 15.8722 18.9597 15.942L19.3027 16.0276L19.3591 16.3768C19.4027 16.6465 19.5186 17.3634 21.1179 17.45C21.3486 17.4608 21.5876 17.4664 21.8255 17.4664C22.7711 17.4664 23.8187 17.3639 24.9473 17.1588C24.7026 16.5027 24.5785 15.8079 24.5811 15.1077C24.5811 14.7677 24.6411 14.2068 24.7647 13.3935C24.8873 12.5895 25.1237 11.6696 25.4616 10.6605C25.6036 10.199 25.7103 9.80823 25.78 9.49493C25.54 9.65491 25.2765 9.94924 25.0108 10.3605C24.5014 11.1537 24.1248 12.0247 23.8961 12.9392C23.7899 13.3175 23.7322 13.7078 23.7243 14.1006C23.7161 14.4145 23.7789 14.7261 23.9079 15.0123L24.074 15.3559L23.8043 15.6256C23.3069 16.123 22.7121 16.3753 22.0363 16.3753C20.7431 16.3753 20.0016 15.6492 20.0016 14.3826C20.0016 14.3093 20.0047 14.2314 20.0113 14.1514C20.0964 12.738 20.4261 11.35 20.9856 10.0492C21.5373 8.74629 22.0783 7.61511 22.5931 6.68854C22.6285 6.62393 22.6665 6.55779 22.7039 6.49523L22.8603 6.23474H23.1603C23.6038 6.23474 24.0766 6.35934 24.5652 6.60496C24.8207 6.72977 25.0489 6.90407 25.2365 7.11773C25.9169 6.53215 26.6394 6.23628 27.3901 6.23628C29.514 6.23628 29.8314 7.33617 29.8314 7.992C29.8314 8.012 29.8314 8.03456 29.8057 8.70629C29.7858 9.21496 29.5494 10.0682 29.054 11.3917C28.7083 12.3621 28.4388 13.358 28.248 14.3703C28.1987 14.6366 28.1734 14.9067 28.1726 15.1774C28.1701 15.6053 28.2446 16.0302 28.3926 16.4317C28.4951 16.4065 28.5977 16.3804 28.6961 16.3527C29.0038 16.2707 29.2955 16.1989 29.5617 16.1425H29.5709H29.5806C30.1894 16.0267 30.807 15.9644 31.4266 15.9563C32.4147 15.9563 33.1485 16.1614 33.6695 16.584C34.2166 17.028 34.4945 17.5444 34.4945 18.1182C34.4945 18.4566 34.3438 18.8832 34.0197 19.4601C33.651 20.1164 32.7214 20.5128 31.0928 20.7082H31.0697H31.0461C30.8636 20.7138 30.6841 20.7169 30.5129 20.7169C28.5674 20.7169 27.1522 20.2795 26.2984 19.4165C25.1652 19.837 24.012 20.2313 22.8654 20.5907C21.5625 20.9979 20.379 21.2056 19.3535 21.2056ZM30.4606 18.0264C30.5631 18.0315 30.658 18.0336 30.7457 18.0336C30.9904 18.039 31.2344 18.0029 31.4671 17.9269C31.4293 17.9232 31.3913 17.9215 31.3533 17.9218C31.3056 17.9218 31.2553 17.9218 31.2036 17.9284H31.181H31.1595C30.9016 17.9325 30.6449 17.9621 30.3929 18.0166C30.4159 18.0213 30.438 18.0233 30.4606 18.0254V18.0264Z" fill="#070707"/>
<path d="M6.85725 16.1579C5.78044 16.1579 5.09281 15.621 4.91232 14.6637C4.7202 14.8811 4.52654 15.0819 4.33135 15.2662C3.70628 15.8579 3.07507 16.1579 2.45615 16.1579C1.16808 16.1579 0.429688 15.4318 0.429688 14.1652C0.429688 14.0965 0.432252 14.0242 0.437892 13.9494C0.441994 12.6956 0.789652 11.2599 1.47215 9.6821C2.14695 8.12277 2.67305 7.0157 3.08122 6.29782L3.23505 6.02657H3.54733C4.03409 6.02886 4.5112 6.16262 4.92821 6.41371C5.15986 6.54486 5.36218 6.72208 5.52269 6.93444C5.6832 7.14681 5.79849 7.38981 5.86145 7.64846L5.90863 7.83049L5.83171 8.00175C5.52662 8.68476 5.19742 9.46776 4.85437 10.3297C4.59239 10.9735 4.37096 11.633 4.19136 12.3044C4.23204 12.2439 4.27512 12.1772 4.32058 12.1044C4.75233 11.4214 5.21998 10.6143 5.71172 9.7062C6.20809 8.78937 6.65522 7.94791 7.04031 7.20491L7.04698 7.1926C7.25208 6.82546 7.4013 6.53626 7.49719 6.33371L7.64281 6.02605H7.98227C8.46905 6.02822 8.94619 6.16199 9.36316 6.41319C9.39238 6.43011 9.42059 6.44806 9.44879 6.46447C9.23876 6.28661 9.05961 6.07523 8.91858 5.83889C8.59246 5.2933 8.42735 4.72516 8.42735 4.14932C8.42925 3.80072 8.48619 3.45461 8.59605 3.12378C8.83552 2.32899 9.2806 1.71366 9.91797 1.29524C10.5333 0.890667 11.1927 0.679919 11.8737 0.665561H11.8967H11.9193C13.933 0.796318 15.1441 1.75571 15.4574 3.45246C16.5065 3.09711 17.6023 2.69869 18.7238 2.26643C20.1036 1.74033 21.4076 1.27576 22.6013 0.88554L22.6136 0.881438L22.6259 0.87836C23.7171 0.578903 24.7442 0.427124 25.6795 0.427124H25.6979H25.7154C27.9423 0.57634 29.3627 1.31934 29.938 2.63511L29.9452 2.651L29.9508 2.6669C30.1606 3.2453 30.2626 3.73705 30.2626 4.17034C30.2626 4.55799 30.1416 4.96411 29.9037 5.37791C29.635 5.84504 29.1884 6.15014 28.5761 6.28551C28.3652 6.33701 28.1491 6.3642 27.9321 6.36653C27.641 6.37257 27.3534 6.30183 27.0983 6.16142L26.8281 6.00759V5.63378C26.8281 5.07897 26.4861 4.60004 25.782 4.17034C25.299 3.87447 24.6473 3.72423 23.8443 3.72423C23.2989 3.72985 22.755 3.78287 22.2188 3.88268C20.5092 4.29289 18.9237 4.87489 17.5064 5.61071L17.4982 5.61481L17.49 5.61891C16.704 5.99375 15.9328 6.32705 15.1933 6.61163C14.7893 7.81254 14.1411 9.12062 13.2648 10.5041C12.33 11.9793 11.2891 13.2858 10.1703 14.3873C8.96012 15.5789 7.88741 16.1579 6.88853 16.1579H6.85725ZM9.68415 6.64394C9.98808 6.90893 10.2001 7.26351 10.2897 7.65666L10.3323 7.83305L10.2595 7.99919C9.95797 8.68579 9.63338 9.46981 9.29393 10.3292C9.02745 10.9884 8.80326 11.6639 8.62272 12.3516C8.94012 11.9573 9.34059 11.366 9.8267 10.4784C10.4518 9.34213 10.9266 8.23096 11.2435 7.16696C10.6225 7.0962 10.101 6.92135 9.68415 6.64394ZM10.9358 4.11701C11.0317 4.23546 11.2112 4.36878 11.6224 4.36878C11.6834 4.36878 11.7475 4.36571 11.8152 4.35955C11.825 4.27444 11.8302 4.18885 11.8306 4.10317C11.8306 3.59963 11.6516 3.57245 11.5081 3.5504H11.5019H11.487C11.3885 3.55478 11.2913 3.57539 11.1994 3.61142C11.1208 3.64603 11.0516 3.69874 10.9974 3.76525C10.964 3.85089 10.9421 3.94054 10.9322 4.03189V4.05343C10.932 4.07468 10.9332 4.09592 10.9358 4.11701Z" fill="#070707"/>
<path d="M16.5148 16.1497C15.5682 16.1497 14.8098 15.9169 14.2586 15.4575C13.6976 14.9898 13.3628 14.2986 13.2628 13.4064C13.2327 13.1252 13.2174 12.8426 13.2171 12.5598C13.2171 11.2215 13.6207 9.80726 14.4175 8.3551C15.2718 6.79987 16.5004 6.01123 18.0705 6.01123C18.7181 6.01123 19.3263 6.26249 19.877 6.75834C20.4005 7.23829 20.6641 7.92694 20.6641 8.80941C20.6641 8.90428 20.661 9.0017 20.6549 9.09861V9.11143V9.12374C20.5673 9.92328 20.2981 10.6922 19.8677 11.3717C20.2481 10.8231 20.5959 10.2526 20.9092 9.66317L21.063 9.38166H23.052L22.7418 10.1252C21.9763 11.9604 21.0081 13.4284 19.8647 14.4888C18.6576 15.6057 17.5623 16.1497 16.5148 16.1497ZM17.4798 10.3518C17.449 10.44 17.4285 10.5149 17.4111 10.5774C17.448 10.5456 17.4895 10.5082 17.5352 10.4646C17.714 10.2715 17.8575 10.0485 17.9592 9.80572C18.025 9.66212 18.0807 9.51408 18.1259 9.36269C17.8962 9.57293 17.6787 9.90571 17.4798 10.3518Z" fill="#070707"/>
<path d="M19.1386 20.9908C16.6106 20.9908 15.7882 19.7391 15.543 18.6885L15.5374 18.6643L15.5343 18.6397C15.5093 18.4613 15.4962 18.2815 15.4954 18.1013C15.4954 17.3435 15.7589 16.7169 16.2789 16.241C16.726 15.831 17.3132 15.6079 17.9197 15.6175C18.198 15.6202 18.4749 15.6569 18.7443 15.7267L19.0873 15.8123L19.1437 16.162C19.1873 16.4318 19.3032 17.1481 20.903 17.2348C21.1333 17.2455 21.3727 17.2512 21.6101 17.2512C22.5557 17.2512 23.6033 17.1486 24.7319 16.9435C24.4872 16.2875 24.3631 15.5926 24.3658 14.8924C24.3658 14.5519 24.4258 13.991 24.5493 13.1777C24.6719 12.3737 24.9083 11.4538 25.2462 10.4447C25.3887 9.98317 25.4954 9.59244 25.5646 9.27913C25.3251 9.43912 25.0611 9.73345 24.7955 10.1447C24.2861 10.9379 23.9096 11.8089 23.6807 12.7234C23.5747 13.1016 23.5172 13.4917 23.5094 13.8843C23.5016 14.1973 23.5643 14.508 23.693 14.7935L23.8591 15.137L23.5894 15.4067C23.092 15.9041 22.4972 16.1564 21.8214 16.1564C20.5282 16.1564 19.7867 15.4303 19.7867 14.1638C19.7867 14.0904 19.7898 14.013 19.7965 13.9325C19.8816 12.5191 20.2112 11.1311 20.7707 9.83036C21.3225 8.52741 21.8634 7.39676 22.3788 6.46967C22.4136 6.40506 22.4516 6.33892 22.489 6.27687L22.6429 6.01587H22.9469C23.3905 6.01587 23.8632 6.14047 24.3519 6.38609C24.6074 6.5109 24.8355 6.6852 25.0231 6.89886C25.7036 6.31328 26.4261 6.01741 27.1768 6.01741C29.3012 6.01741 29.6181 7.1173 29.6181 7.77313C29.6181 7.79313 29.6181 7.81569 29.5924 8.48742C29.5729 8.99609 29.336 9.84933 28.8407 11.1733C28.4948 12.1437 28.2253 13.1396 28.0346 14.152C27.9863 14.419 27.9619 14.6898 27.9618 14.9611C27.9595 15.389 28.034 15.8138 28.1818 16.2154C28.2843 16.1897 28.3869 16.1641 28.4853 16.1359C28.793 16.0538 29.0848 15.9821 29.3509 15.9262H29.3601H29.3699C29.9786 15.8104 30.5963 15.7481 31.2158 15.74C32.2034 15.74 32.9372 15.9451 33.4582 16.3677C34.0058 16.8117 34.2832 17.3281 34.2832 17.9019C34.2832 18.2403 34.1325 18.6669 33.8084 19.2438C33.4397 19.9001 32.5101 20.2965 30.882 20.4919L30.8584 20.4944H30.8349C30.6523 20.5001 30.4728 20.5031 30.3016 20.5031C28.3561 20.5031 26.9414 20.0663 26.0871 19.2028C24.9539 19.6232 23.8007 20.0181 22.6516 20.377C21.3476 20.7836 20.1641 20.9908 19.1386 20.9908ZM30.2457 17.8116C30.3482 17.8167 30.4431 17.8193 30.5313 17.8193C30.7767 17.8251 31.0214 17.7892 31.2548 17.7132C31.2168 17.7094 31.1786 17.7077 31.1405 17.708C31.0928 17.708 31.0425 17.708 30.9912 17.7147H30.9687H30.9461C30.6875 17.7187 30.4298 17.7482 30.177 17.8029C30.2011 17.8065 30.2236 17.8085 30.2457 17.8106V17.8116Z" fill="#070707"/>
<path d="M6.64241 15.943C5.56559 15.943 4.87848 15.4061 4.69747 14.4488C4.50536 14.6662 4.31187 14.8671 4.11702 15.0513C3.49144 15.643 2.86073 15.943 2.24131 15.943C0.953232 15.943 0.214844 15.2169 0.214844 13.9504C0.214844 13.8822 0.214843 13.8094 0.223047 13.7345C0.22715 12.4808 0.57532 11.045 1.25782 9.46725C1.93211 7.90792 2.45821 6.80085 2.86637 6.08297L3.02021 5.81172H3.33248C3.81927 5.81389 4.2964 5.94766 4.71337 6.19886C4.94507 6.33013 5.14745 6.50745 5.30804 6.71989C5.46862 6.93233 5.58402 7.1754 5.64712 7.43412L5.69378 7.61564L5.61687 7.78691C5.31177 8.46992 4.98257 9.25343 4.63953 10.1149C4.37772 10.7586 4.15646 11.4182 3.97703 12.0896C4.01771 12.029 4.06078 11.9624 4.10625 11.8896C4.538 11.2066 5.00616 10.3995 5.49739 9.49135C5.99375 8.57452 6.44089 7.73307 6.82598 6.99006L6.83264 6.97827C7.03775 6.61062 7.18697 6.32141 7.28286 6.11887L7.42848 5.81121H7.76845C8.25506 5.81344 8.73202 5.94721 9.14882 6.19835C9.17805 6.21578 9.20625 6.23322 9.23446 6.24962C9.02482 6.07315 8.84569 5.86336 8.70425 5.62866C8.37813 5.08308 8.21302 4.51493 8.21302 3.93652C8.21497 3.58793 8.2719 3.24183 8.38172 2.91098C8.6217 2.11619 9.06627 1.50087 9.70415 1.08245C10.3195 0.677874 10.9784 0.467125 11.6599 0.452768H11.6824H11.705C13.7191 0.583524 14.9298 1.54292 15.2431 3.23967C16.2917 2.88432 17.3875 2.4859 18.5089 2.05363C19.8893 1.52753 21.1927 1.06296 22.3865 0.672746L22.3988 0.668643L22.4116 0.665567C23.5023 0.36611 24.5299 0.214844 25.4651 0.214844H25.4831H25.501C27.7275 0.36406 29.1479 1.10706 29.7232 2.42283L29.7304 2.43872L29.736 2.45513C29.9457 3.03302 30.0478 3.52477 30.0478 3.95857C30.0478 4.34571 29.9268 4.75183 29.6888 5.16614C29.4196 5.63276 28.9709 5.93786 28.3608 6.07323C28.1499 6.12473 27.9338 6.15191 27.7167 6.15425C27.4256 6.16031 27.138 6.08957 26.8829 5.94914L26.6127 5.79531V5.41637C26.6127 4.86156 26.2707 4.38315 25.5667 3.95293C25.0836 3.65706 24.4324 3.50682 23.6289 3.50682C23.0835 3.51244 22.5397 3.56546 22.0034 3.66527C20.2939 4.07548 18.7084 4.65747 17.2911 5.3933L17.2834 5.3974L17.2752 5.40151C16.4886 5.77685 15.7174 6.11015 14.978 6.39423C14.5739 7.59513 13.9258 8.90372 13.0495 10.2867C12.1147 11.7624 11.0738 13.0684 9.95541 14.1699C8.74476 15.3615 7.67205 15.9405 6.67369 15.9405L6.64241 15.943ZM9.4693 6.42909C9.7735 6.69403 9.98588 7.04859 10.0759 7.44181L10.119 7.61821L10.0457 7.78229C9.74415 8.46889 9.41957 9.25292 9.08011 10.1123C8.81363 10.7715 8.58944 11.447 8.4089 12.1347C8.7263 11.7409 9.12677 11.1491 9.61288 10.262C10.2379 9.12523 10.7133 8.01407 11.0297 6.95058C10.4078 6.88119 9.88772 6.70736 9.4693 6.42909ZM10.721 3.90268C10.8169 4.02062 10.9963 4.15394 11.4076 4.15394C11.4686 4.15394 11.5327 4.15086 11.6009 4.14471C11.6103 4.05956 11.6152 3.97398 11.6158 3.88832C11.6158 3.38478 11.4368 3.35761 11.2932 3.33556H11.2871H11.2722C11.1736 3.33993 11.0764 3.36055 10.9845 3.39658C10.906 3.43127 10.8368 3.48397 10.7825 3.55041C10.7491 3.63601 10.7272 3.72568 10.7174 3.81705V3.83397C10.7172 3.85692 10.7184 3.87987 10.721 3.90268Z" fill="#070707"/>
<path d="M16.2999 15.9354C15.3539 15.9354 14.595 15.7026 14.0437 15.2437C13.4833 14.7755 13.1479 14.0848 13.0479 13.1926C13.0178 12.9112 13.0026 12.6285 13.0023 12.3455C13.0023 11.0072 13.4064 9.59295 14.2027 8.14079C15.0585 6.58454 16.2891 5.7959 17.8572 5.7959C18.5048 5.7959 19.113 6.04767 19.6637 6.54352C20.1872 7.02347 20.4508 7.71161 20.4508 8.59459C20.4508 8.68894 20.4477 8.78637 20.4415 8.88328V8.8961V8.90892C20.3543 9.70812 20.0856 10.4768 19.656 11.1564C20.0362 10.6078 20.3838 10.0373 20.6969 9.44784L20.8507 9.16633H22.8398L22.5321 9.90985C21.7665 11.745 20.7984 13.2131 19.6555 14.274C18.4428 15.3908 17.3475 15.9354 16.2999 15.9354ZM17.2634 10.137C17.2326 10.2252 17.2121 10.3001 17.1947 10.3631C17.2316 10.3308 17.2731 10.2934 17.3188 10.2498C17.4979 10.0569 17.6414 9.83382 17.7428 9.5909C17.8087 9.44733 17.8644 9.29929 17.9095 9.14787C17.6813 9.35862 17.4639 9.69089 17.2634 10.137Z" fill="#070707"/>
<path d="M18.9237 20.7764C16.3963 20.7764 15.5733 19.5242 15.3287 18.4735L15.3231 18.4494L15.3195 18.4248C15.2944 18.2464 15.2814 18.0666 15.2805 17.8864C15.2805 17.1285 15.5441 16.5019 16.064 16.0261C16.5112 15.6162 17.0983 15.393 17.7049 15.4026C17.9832 15.4053 18.26 15.442 18.5294 15.5118L18.8725 15.5979L18.9289 15.9471C18.9725 16.2168 19.0883 16.9332 20.6882 17.0198C20.9184 17.0306 21.1579 17.0362 21.3953 17.0362C22.3408 17.0362 23.3884 16.9337 24.517 16.7286C24.2726 16.0725 24.1486 15.3777 24.1509 14.6775C24.1509 14.337 24.2109 13.7761 24.3345 12.9633C24.457 12.1588 24.6934 11.2394 25.0319 10.2297C25.1739 9.76825 25.2805 9.37752 25.3498 9.06422C25.1103 9.22471 24.8467 9.51904 24.5806 9.92977C24.0714 10.7232 23.6948 11.5944 23.4659 12.509C23.3605 12.8874 23.3036 13.2777 23.2966 13.6704C23.2886 13.9833 23.3513 14.2939 23.4802 14.579L23.6458 14.9226L23.3761 15.1923C22.8787 15.6897 22.2839 15.942 21.6086 15.942C20.3139 15.943 19.5709 15.2174 19.5709 13.9504C19.5709 13.8776 19.5739 13.7996 19.5806 13.7191C19.6662 12.3058 19.9958 10.9179 20.5549 9.61698C21.1066 8.31404 21.6476 7.18338 22.1629 6.25629C22.1978 6.19168 22.2357 6.12605 22.2732 6.06349L22.4295 5.80249H22.7336C23.1777 5.80249 23.6505 5.92709 24.1386 6.17271C24.3942 6.29738 24.6223 6.47169 24.8098 6.68548C25.4903 6.09938 26.2128 5.80351 26.9635 5.80351C29.0879 5.80351 29.4047 6.90341 29.4047 7.55924C29.4047 7.57924 29.4047 7.6018 29.3791 8.27404C29.3596 8.78219 29.1227 9.63595 28.6279 10.9594C28.2817 11.9297 28.012 12.9257 27.8213 13.9381C27.7722 14.2043 27.747 14.4744 27.7459 14.7452C27.7435 15.1731 27.8181 15.598 27.9664 15.9994C28.069 15.9738 28.1715 15.9481 28.2695 15.9199C28.5771 15.8379 28.8689 15.7661 29.135 15.7102H29.1443H29.154C29.7627 15.5945 30.3804 15.5322 31 15.5241C31.9881 15.5241 32.7213 15.7292 33.2423 16.1517C33.7899 16.5958 34.0674 17.1121 34.0674 17.6864C34.0674 18.0243 33.9166 18.451 33.5925 19.0283C33.2244 19.6842 32.2942 20.0806 30.6662 20.2759L30.6426 20.279H30.619C30.437 20.2846 30.26 20.2877 30.0857 20.2877C28.1403 20.2877 26.7255 19.8508 25.8713 18.9873C24.738 19.4083 23.5848 19.8026 22.4383 20.1616C21.1328 20.5687 19.9498 20.7764 18.9237 20.7764ZM30.0308 17.5972C30.1334 17.6018 30.2283 17.6044 30.3165 17.6044C30.5619 17.6102 30.8065 17.5743 31.04 17.4982C31.0066 17.4952 30.9692 17.4931 30.9256 17.4931C30.882 17.4931 30.8277 17.4931 30.7764 17.4998H30.7538H30.7313C30.4726 17.5035 30.2149 17.533 29.9621 17.588L30.0308 17.5972Z" fill="#070707"/>
<path d="M6.42756 15.7302C5.35075 15.7302 4.66364 15.1928 4.48263 14.2355C4.29051 14.4529 4.09703 14.6539 3.90217 14.8385C3.2766 15.4297 2.64589 15.7302 2.02646 15.7302C0.738388 15.7302 0 15.0036 0 13.7371C0 13.6689 0.00307652 13.5961 0.00871698 13.5212C0.0123064 12.2675 0.360477 10.8323 1.04297 9.25395C1.71726 7.69462 2.24337 6.58755 2.65153 5.86967L2.80536 5.59841H3.11712C3.60442 5.60125 4.08189 5.73572 4.49904 5.98761C4.73026 6.11837 4.93234 6.29497 5.0929 6.50658C5.25346 6.71819 5.36912 6.96036 5.43279 7.21825L5.47945 7.39977L5.40305 7.57104C5.09539 8.25405 4.76875 9.03756 4.42571 9.89901C4.16365 10.5429 3.94221 11.2026 3.7627 11.8742C3.8027 11.813 3.84577 11.7462 3.89192 11.6737C4.32316 10.9907 4.79132 10.1867 5.28255 9.276C5.77891 8.35917 6.22604 7.51771 6.61165 6.77471L6.6178 6.7624C6.82291 6.39474 6.97264 6.10554 7.06852 5.90351L7.21364 5.59585H7.55361C8.04062 5.59971 8.51754 5.73506 8.93398 5.98761C8.96321 6.00504 8.99192 6.02247 9.01961 6.03888C8.80961 5.86134 8.6306 5.6501 8.48992 5.41382C8.1638 4.86823 7.99869 4.29957 7.99869 3.72168C8.00045 3.37311 8.05721 3.02701 8.16688 2.69614C8.40685 1.90135 8.85142 1.28602 9.48931 0.867605C10.1046 0.46303 10.7635 0.252282 11.445 0.237924H11.4691H11.4917C13.5058 0.369193 14.7165 1.32807 15.0298 3.02534C16.0789 2.66948 17.1747 2.27157 18.2956 1.83879C19.676 1.31269 20.98 0.848633 22.1732 0.458416L22.1855 0.454313L22.1983 0.450723C23.289 0.151779 24.3165 0 25.2518 0H25.2698H25.2877C27.5142 0.149216 28.9351 0.892218 29.5099 2.20798L29.517 2.22388L29.5227 2.24029C29.7324 2.81818 29.8345 3.30992 29.8345 3.74373C29.8345 4.13087 29.7134 4.53698 29.4755 4.9513C29.2063 5.41792 28.7576 5.72045 28.1474 5.85839C27.9367 5.90988 27.7208 5.93707 27.5039 5.93941C27.2128 5.94559 26.9252 5.87484 26.6702 5.7343L26.3999 5.58047V5.20153C26.3999 4.64672 26.0574 4.1683 25.3534 3.7386C24.8708 3.44222 24.2191 3.29249 23.4156 3.29249C22.8702 3.29792 22.3264 3.35076 21.7901 3.45042C20.0806 3.86064 18.4951 4.44263 17.0778 5.17846L17.0701 5.18256L17.0619 5.18666C16.2753 5.56201 15.5041 5.89531 14.7647 6.17938C14.3606 7.3808 13.7125 8.68887 12.8362 10.0723C11.9014 11.5476 10.8605 12.8536 9.7421 13.955C8.53146 15.1467 7.45874 15.7261 6.46038 15.7261L6.42756 15.7302ZM9.25446 6.21579C9.55866 6.48073 9.77104 6.83529 9.86107 7.22851L9.90414 7.4049L9.83081 7.57104C9.52982 8.25764 9.20472 9.04166 8.86527 9.90106C8.59909 10.5603 8.37507 11.2358 8.19457 11.9234C8.51146 11.5296 8.90988 10.9379 9.39804 10.0508C10.0231 8.91398 10.4984 7.80281 10.8148 6.73933C10.1913 6.66754 9.67117 6.49251 9.25446 6.21425V6.21579ZM10.5061 3.68937C10.6025 3.80731 10.7815 3.94063 11.1932 3.94063C11.2537 3.94063 11.3184 3.93755 11.386 3.9314C11.3954 3.84626 11.4004 3.76068 11.4009 3.67502C11.4009 3.17148 11.222 3.1443 11.0784 3.12276H11.0722H11.0579C10.9591 3.12708 10.8617 3.1477 10.7697 3.18378C10.6912 3.21847 10.622 3.27118 10.5677 3.33762C10.5345 3.42331 10.5126 3.51293 10.5025 3.60425V3.62528C10.5026 3.64618 10.5038 3.66706 10.5061 3.68784V3.68937Z" fill="#070707"/>
<path d="M16.084 15.72C15.138 15.72 14.3791 15.4872 13.8278 15.0283C13.2674 14.5601 12.9325 13.8694 12.832 12.9772C12.8019 12.6958 12.7867 12.4131 12.7864 12.1301C12.7864 10.7918 13.1905 9.37806 13.9868 7.92538C14.8411 6.37016 16.0702 5.58203 17.6403 5.58203C18.2879 5.58203 18.8955 5.83329 19.4463 6.32913C19.9698 6.80909 20.2339 7.49722 20.2339 8.38021C20.2339 8.47456 20.2303 8.57199 20.2241 8.66941V8.68172V8.69454C20.1364 9.49372 19.8676 10.2624 19.438 10.942C19.8183 10.3934 20.1658 9.82291 20.479 9.23346L20.6328 8.95195H22.6223L22.3116 9.69547C21.546 11.5307 20.5784 12.9992 19.435 14.0596C18.2279 15.1759 17.1326 15.72 16.084 15.72ZM17.0491 9.92211C17.0183 10.0108 16.9978 10.0852 16.9803 10.1482C17.0178 10.1159 17.0588 10.079 17.1044 10.0349C17.2835 9.8419 17.4273 9.61886 17.529 9.37601C17.5945 9.23225 17.6501 9.08424 17.6957 8.93298C17.4685 9.14373 17.249 9.47446 17.0501 9.92211H17.0491Z" fill="#070707"/>
<path d="M18.7089 20.5615C16.1815 20.5615 15.359 19.3094 15.1139 18.2592L15.1082 18.2346L15.1046 18.21C15.0796 18.0316 15.0665 17.8517 15.0657 17.6716C15.0657 16.9137 15.3297 16.2871 15.8492 15.8112C16.2963 15.4013 16.8835 15.1782 17.49 15.1877C17.7683 15.1905 18.0452 15.2271 18.3146 15.2969L18.6581 15.3831L18.7145 15.7323C18.7581 16.002 18.874 16.7188 20.4733 16.8055C20.7036 16.8158 20.943 16.8214 21.1804 16.8214C22.126 16.8214 23.1736 16.7188 24.3022 16.5137C24.0577 15.8576 23.9337 15.1628 23.9361 14.4627C23.9361 14.1222 23.9961 13.5617 24.1202 12.7485C24.2422 11.9439 24.4791 11.0245 24.817 10.0149C24.959 9.5534 25.0657 9.16319 25.1354 8.84988C24.8955 9.00987 24.6319 9.3042 24.3663 9.71493C23.8563 10.5084 23.479 11.3798 23.2495 12.2947C23.1441 12.6731 23.0872 13.0633 23.0803 13.4561C23.0719 13.7692 23.1343 14.0801 23.2628 14.3657L23.4284 14.7088L23.1602 14.9785C22.6629 15.4764 22.0681 15.7287 21.3927 15.7287C20.0995 15.7287 19.3576 15.0021 19.3576 13.7355C19.3576 13.6627 19.3611 13.5848 19.3673 13.5043C19.4529 12.0909 19.7825 10.7031 20.3416 9.40214C20.8938 8.09919 21.4348 6.96853 21.9496 6.04145C21.9845 5.97735 22.0224 5.9112 22.0598 5.84864L22.2137 5.58765H22.5177C22.9618 5.58765 23.4346 5.71225 23.9227 5.95838C24.1784 6.08315 24.4067 6.25744 24.5945 6.47115C25.2744 5.88505 25.9974 5.58918 26.7481 5.58918C28.8725 5.58918 29.1899 6.68907 29.1899 7.3449C29.1899 7.3649 29.1899 7.38746 29.1638 8.05971C29.1443 8.56837 28.9074 9.42162 28.4125 10.7451C28.0664 11.7154 27.7967 12.7113 27.606 13.7238C27.5569 13.99 27.5317 14.2601 27.5306 14.5309C27.5281 14.9588 27.6028 15.3837 27.7511 15.7851C27.8536 15.7595 27.9548 15.733 28.0546 15.7056C28.3623 15.6241 28.6535 15.5518 28.9197 15.4959H28.9294H28.9386C29.5474 15.38 30.165 15.3175 30.7846 15.3092C31.7727 15.3092 32.506 15.5143 33.027 15.9374C33.5746 16.3809 33.852 16.8973 33.852 17.4716C33.852 17.8095 33.7012 18.2361 33.3772 18.8135C33.009 19.4693 32.0788 19.8657 30.4508 20.0611L30.4272 20.0642H30.4036C30.2216 20.0703 30.0447 20.0729 29.8703 20.0729C27.9249 20.0729 26.5102 19.636 25.6564 18.7725C24.5227 19.1935 23.3695 19.5878 22.2209 19.9467C20.9179 20.3539 19.735 20.5615 18.7089 20.5615ZM29.816 17.3824C29.9185 17.387 30.0139 17.3895 30.1016 17.3895C30.3471 17.3956 30.5918 17.3597 30.8251 17.2834C30.7918 17.2803 30.7544 17.2783 30.7108 17.2783C30.6672 17.2783 30.6134 17.2808 30.5616 17.2849H30.539H30.5164C30.2578 17.2887 30.0001 17.3182 29.7473 17.3731L29.816 17.3824Z" fill="#070707"/>
<path d="M6.42756 15.7302C5.35075 15.7302 4.66364 15.1928 4.48263 14.2355C4.29051 14.4529 4.09703 14.6539 3.90217 14.8385C3.2766 15.4297 2.64589 15.7302 2.02646 15.7302C0.738388 15.7302 0 15.0036 0 13.7371C0 13.6689 0.00307652 13.5961 0.00871698 13.5212C0.0123064 12.2675 0.360477 10.8323 1.04297 9.25395C1.71726 7.69462 2.24337 6.58755 2.65153 5.86967L2.80536 5.59841H3.11712C3.60442 5.60125 4.08189 5.73572 4.49904 5.98761C4.73026 6.11837 4.93234 6.29497 5.0929 6.50658C5.25346 6.71819 5.36912 6.96036 5.43279 7.21825L5.47945 7.39977L5.40305 7.57104C5.09539 8.25405 4.76875 9.03756 4.42571 9.89901C4.16365 10.5429 3.94221 11.2026 3.7627 11.8742C3.8027 11.813 3.84577 11.7462 3.89192 11.6737C4.32316 10.9907 4.79132 10.1867 5.28255 9.276C5.77891 8.35917 6.22604 7.51771 6.61165 6.77471L6.6178 6.7624C6.82291 6.39474 6.97264 6.10554 7.06852 5.90351L7.21364 5.59585H7.55361C8.04062 5.59971 8.51754 5.73506 8.93398 5.98761C8.96321 6.00504 8.99192 6.02247 9.01961 6.03888C8.80961 5.86134 8.6306 5.6501 8.48992 5.41382C8.1638 4.86823 7.99869 4.29957 7.99869 3.72168C8.00045 3.37311 8.05721 3.02701 8.16688 2.69614C8.40685 1.90135 8.85142 1.28602 9.48931 0.867605C10.1046 0.46303 10.7635 0.252282 11.445 0.237924H11.4691H11.4917C13.5058 0.369193 14.7165 1.32807 15.0298 3.02534C16.0789 2.66948 17.1747 2.27157 18.2956 1.83879C19.676 1.31269 20.98 0.848633 22.1732 0.458416L22.1855 0.454313L22.1983 0.450723C23.289 0.151779 24.3165 0 25.2518 0H25.2698H25.2877C27.5142 0.149216 28.9351 0.892218 29.5099 2.20798L29.517 2.22388L29.5227 2.24029C29.7324 2.81818 29.8345 3.30992 29.8345 3.74373C29.8345 4.13087 29.7134 4.53698 29.4755 4.9513C29.2063 5.41792 28.7576 5.72045 28.1474 5.85839C27.9367 5.90988 27.7208 5.93707 27.5039 5.93941C27.2128 5.94559 26.9252 5.87484 26.6702 5.7343L26.3999 5.58047V5.20153C26.3999 4.64672 26.0574 4.1683 25.3534 3.7386C24.8708 3.44222 24.2191 3.29249 23.4156 3.29249C22.8702 3.29792 22.3264 3.35076 21.7901 3.45042C20.0806 3.86064 18.4951 4.44263 17.0778 5.17846L17.0701 5.18256L17.0619 5.18666C16.2753 5.56201 15.5041 5.89531 14.7647 6.17938C14.3606 7.3808 13.7125 8.68887 12.8362 10.0723C11.9014 11.5476 10.8605 12.8536 9.7421 13.955C8.53146 15.1467 7.45874 15.7261 6.46038 15.7261L6.42756 15.7302ZM9.25446 6.21579C9.55866 6.48073 9.77104 6.83529 9.86107 7.22851L9.90414 7.4049L9.83081 7.57104C9.52982 8.25764 9.20472 9.04166 8.86527 9.90106C8.59909 10.5603 8.37507 11.2358 8.19457 11.9234C8.51146 11.5296 8.90988 10.9379 9.39804 10.0508C10.0231 8.91398 10.4984 7.80281 10.8148 6.73933C10.1913 6.66754 9.67117 6.49251 9.25446 6.21425V6.21579ZM10.5061 3.68937C10.6025 3.80731 10.7815 3.94063 11.1932 3.94063C11.2537 3.94063 11.3184 3.93755 11.386 3.9314C11.3954 3.84626 11.4004 3.76068 11.4009 3.67502C11.4009 3.17148 11.222 3.1443 11.0784 3.12276H11.0722H11.0579C10.9591 3.12708 10.8617 3.1477 10.7697 3.18378C10.6912 3.21847 10.622 3.27118 10.5677 3.33762C10.5345 3.42331 10.5126 3.51293 10.5025 3.60425V3.62528C10.5026 3.64618 10.5038 3.66706 10.5061 3.68784V3.68937Z" fill="#070707"/>
<path d="M16.084 15.72C15.138 15.72 14.3791 15.4872 13.8278 15.0283C13.2674 14.5601 12.9325 13.8694 12.832 12.9772C12.8019 12.6958 12.7867 12.4131 12.7864 12.1301C12.7864 10.7918 13.1905 9.37806 13.9868 7.92538C14.8411 6.37016 16.0702 5.58203 17.6403 5.58203C18.2879 5.58203 18.8955 5.83329 19.4463 6.32913C19.9698 6.80909 20.2339 7.49722 20.2339 8.38021C20.2339 8.47456 20.2303 8.57199 20.2241 8.66941V8.68172V8.69454C20.1364 9.49372 19.8676 10.2624 19.438 10.942C19.8183 10.3934 20.1658 9.82291 20.479 9.23346L20.6328 8.95195H22.6223L22.3116 9.69547C21.546 11.5307 20.5784 12.9992 19.435 14.0596C18.2279 15.1759 17.1326 15.72 16.084 15.72ZM17.0491 9.92211C17.0183 10.0108 16.9978 10.0852 16.9803 10.1482C17.0178 10.1159 17.0588 10.079 17.1044 10.0349C17.2835 9.8419 17.4273 9.61886 17.529 9.37601C17.5945 9.23225 17.6501 9.08424 17.6957 8.93298C17.4685 9.14373 17.249 9.47446 17.0501 9.92211H17.0491Z" fill="#070707"/>
<path d="M18.7089 20.5615C16.1815 20.5615 15.359 19.3094 15.1139 18.2592L15.1082 18.2346L15.1046 18.21C15.0796 18.0316 15.0665 17.8517 15.0657 17.6716C15.0657 16.9137 15.3297 16.2871 15.8492 15.8112C16.2963 15.4013 16.8835 15.1782 17.49 15.1877C17.7683 15.1905 18.0452 15.2271 18.3146 15.2969L18.6581 15.3831L18.7145 15.7323C18.7581 16.002 18.874 16.7188 20.4733 16.8055C20.7036 16.8158 20.943 16.8214 21.1804 16.8214C22.126 16.8214 23.1736 16.7188 24.3022 16.5137C24.0577 15.8576 23.9337 15.1628 23.9361 14.4627C23.9361 14.1222 23.9961 13.5617 24.1202 12.7485C24.2422 11.9439 24.4791 11.0245 24.817 10.0149C24.959 9.5534 25.0657 9.16319 25.1354 8.84988C24.8955 9.00987 24.6319 9.3042 24.3663 9.71493C23.8563 10.5084 23.479 11.3798 23.2495 12.2947C23.1441 12.6731 23.0872 13.0633 23.0803 13.4561C23.0719 13.7692 23.1343 14.0801 23.2628 14.3657L23.4284 14.7088L23.1602 14.9785C22.6629 15.4764 22.0681 15.7287 21.3927 15.7287C20.0995 15.7287 19.3576 15.0021 19.3576 13.7355C19.3576 13.6627 19.3611 13.5848 19.3673 13.5043C19.4529 12.0909 19.7825 10.7031 20.3416 9.40214C20.8938 8.09919 21.4348 6.96853 21.9496 6.04145C21.9845 5.97735 22.0224 5.9112 22.0598 5.84864L22.2137 5.58765H22.5177C22.9618 5.58765 23.4346 5.71225 23.9227 5.95838C24.1784 6.08315 24.4067 6.25744 24.5945 6.47115C25.2744 5.88505 25.9974 5.58918 26.7481 5.58918C28.8725 5.58918 29.1899 6.68907 29.1899 7.3449C29.1899 7.3649 29.1899 7.38746 29.1638 8.05971C29.1443 8.56837 28.9074 9.42162 28.4125 10.7451C28.0664 11.7154 27.7967 12.7113 27.606 13.7238C27.5569 13.99 27.5317 14.2601 27.5306 14.5309C27.5281 14.9588 27.6028 15.3837 27.7511 15.7851C27.8536 15.7595 27.9548 15.733 28.0546 15.7056C28.3623 15.6241 28.6535 15.5518 28.9197 15.4959H28.9294H28.9386C29.5474 15.38 30.165 15.3175 30.7846 15.3092C31.7727 15.3092 32.506 15.5143 33.027 15.9374C33.5746 16.3809 33.852 16.8973 33.852 17.4716C33.852 17.8095 33.7012 18.2361 33.3772 18.8135C33.009 19.4693 32.0788 19.8657 30.4508 20.0611L30.4272 20.0642H30.4036C30.2216 20.0703 30.0447 20.0729 29.8703 20.0729C27.9249 20.0729 26.5102 19.636 25.6564 18.7725C24.5227 19.1935 23.3695 19.5878 22.2209 19.9467C20.9179 20.3539 19.735 20.5615 18.7089 20.5615ZM29.816 17.3824C29.9185 17.387 30.0139 17.3895 30.1016 17.3895C30.3471 17.3956 30.5918 17.3597 30.8251 17.2834C30.7918 17.2803 30.7544 17.2783 30.7108 17.2783C30.6672 17.2783 30.6134 17.2808 30.5616 17.2849H30.539H30.5164C30.2578 17.2887 30.0001 17.3182 29.7473 17.3731L29.816 17.3824Z" fill="#070707"/>
<path d="M25.2518 0.540406C27.2718 0.677144 28.5272 1.30631 29.0181 2.42791C29.2041 2.94068 29.2972 3.38081 29.2976 3.74829C29.2976 4.04159 29.2017 4.35473 29.0099 4.68768C28.8181 5.02064 28.4908 5.23789 28.028 5.33941C27.8563 5.38198 27.6803 5.40469 27.5034 5.4071C27.3056 5.41209 27.1099 5.36468 26.9363 5.26968V5.20199C26.9363 4.44993 26.5018 3.80948 25.6328 3.28065C25.0626 2.93162 24.3239 2.75711 23.4166 2.75711C22.8344 2.76258 22.2538 2.8192 21.6814 2.92632C19.9144 3.35021 18.2973 3.94331 16.8301 4.70563C15.9666 5.11585 15.1342 5.47137 14.3329 5.77219C13.9494 7.00284 13.2999 8.34151 12.3844 9.7882C11.4689 11.2349 10.4631 12.4977 9.36675 13.5765C8.27285 14.6544 7.30508 15.1933 6.46345 15.1933H6.42961C5.45945 15.1933 4.9742 14.6939 4.97386 13.695V13.5412C4.97652 13.2198 5.01087 12.8995 5.07641 12.5848C4.57458 13.3294 4.06181 13.95 3.5381 14.4467C3.0144 14.9434 2.51052 15.1918 2.02646 15.1918C1.03306 15.1918 0.536524 14.7063 0.536865 13.7355C0.536865 13.6735 0.539942 13.6088 0.54507 13.5412C0.54507 12.3505 0.875294 10.992 1.53574 9.46567C2.19619 7.93933 2.72366 6.82833 3.11815 6.13267C3.50936 6.13456 3.89271 6.24267 4.22727 6.44546C4.39752 6.54146 4.54622 6.67143 4.66415 6.82729C4.78209 6.98315 4.86673 7.16158 4.91284 7.35152C4.6021 8.04513 4.27342 8.82796 3.92678 9.70001C3.58015 10.5721 3.33043 11.3412 3.17763 12.0075C3.1321 12.1875 3.10648 12.372 3.10123 12.5577C3.10123 12.8568 3.20856 13.0063 3.42324 13.0063C3.59827 13.0063 3.90593 12.6578 4.34623 11.9608C4.78653 11.2638 5.25622 10.4541 5.75532 9.53182C6.25476 8.60883 6.69916 7.77233 7.08852 7.02232C7.29705 6.64424 7.45224 6.34803 7.55411 6.13369C7.94516 6.13565 8.32833 6.24376 8.66272 6.44648C8.83253 6.54197 8.98051 6.67189 9.09716 6.82793C9.21381 6.98396 9.29656 7.16266 9.34009 7.35255C9.03482 8.04615 8.71007 8.82898 8.36583 9.70103C8.02159 10.5731 7.77341 11.3422 7.62129 12.0085C7.57529 12.1914 7.54967 12.3789 7.54488 12.5674C7.54488 12.8607 7.64658 13.0074 7.84998 13.0074C8.4195 12.6183 9.09225 11.7183 9.86824 10.3071C10.6442 8.89598 11.1902 7.53902 11.506 6.23625H11.4809C10.2338 6.23625 9.39017 5.86945 8.94987 5.13585C8.67366 4.67333 8.53556 4.20209 8.53556 3.72214C8.53738 3.42869 8.58584 3.13739 8.67913 2.85915C8.88219 2.18195 9.25036 1.66833 9.78364 1.31828C10.3169 0.968227 10.8741 0.787732 11.4553 0.776793C13.453 0.906695 14.4914 1.89702 14.5703 3.74778C15.8229 3.33756 17.1291 2.86923 18.4889 2.34279C19.8655 1.81772 21.1493 1.36067 22.3403 0.971645C23.3895 0.683811 24.36 0.540064 25.2518 0.540406ZM11.1614 2.58841C11.1275 2.58308 11.0932 2.58033 11.0589 2.5802C10.898 2.58411 10.739 2.6155 10.5887 2.67301C10.4178 2.73557 10.2556 2.86257 10.1021 3.054C10.0279 3.21977 9.98185 3.39668 9.96567 3.57754V3.61959C9.95975 3.73363 9.98305 3.84729 10.0334 3.94981C10.2761 4.29952 10.6627 4.47437 11.1932 4.47437C11.4152 4.47154 11.6364 4.44593 11.8532 4.39797C11.906 4.15876 11.9344 3.91479 11.9378 3.66984C11.9378 3.02717 11.679 2.66669 11.1614 2.58841Z" fill="url(#paint0_linear_23_5950)"/>
<path style="mix-blend-mode:overlay" d="M6.42756 14.8328C5.6584 14.8328 5.33074 14.4918 5.33074 13.6934V13.5396C5.33315 13.2419 5.36493 12.9451 5.42561 12.6536C5.44155 12.5726 5.42915 12.4887 5.39049 12.4159C5.35183 12.343 5.28926 12.2857 5.21332 12.2536C5.16969 12.2351 5.12278 12.2255 5.07538 12.2254C5.01654 12.2254 4.9586 12.2398 4.90664 12.2674C4.85469 12.2951 4.81033 12.335 4.77746 12.3838C4.29187 13.1017 3.7909 13.7104 3.28787 14.1857C2.83458 14.6149 2.41052 14.8328 2.028 14.8328C1.23525 14.8328 0.897339 14.5046 0.897339 13.7355C0.897339 13.6842 0.899903 13.6288 0.904518 13.5704C0.90503 13.5606 0.90503 13.5509 0.904518 13.5412C0.904518 12.4054 1.22808 11.0799 1.86545 9.60821C2.45923 8.23604 2.94893 7.1941 3.32325 6.50596C3.57883 6.53801 3.82481 6.62344 4.04523 6.75671C4.27101 6.88227 4.44341 7.08566 4.53031 7.32895C4.23547 7.99555 3.92063 8.74676 3.59297 9.56873C3.24121 10.4538 2.98329 11.247 2.82792 11.9275C2.77592 12.1337 2.74719 12.3451 2.74228 12.5577C2.74228 13.153 3.09404 13.3653 3.42324 13.3653C3.70732 13.3653 4.01139 13.1602 4.64927 12.1526C5.09128 11.4526 5.56969 10.6281 6.07067 9.70257C6.57164 8.77702 7.01724 7.93813 7.40387 7.19C7.5536 6.91874 7.67461 6.6921 7.76999 6.50442C8.02172 6.53871 8.26367 6.6246 8.48068 6.75671C8.70469 6.88195 8.87425 7.08586 8.95653 7.32895C8.66528 7.99555 8.35403 8.74984 8.02996 9.57078C7.68076 10.4548 7.42489 11.2486 7.26952 11.9295C7.21709 12.1386 7.18836 12.3529 7.18389 12.5684C7.18389 13.1571 7.52693 13.3673 7.84793 13.3673C7.92003 13.3672 7.99043 13.3454 8.04996 13.3048C8.67297 12.8792 9.36983 11.9557 10.181 10.4815C10.9681 9.04981 11.5306 7.64995 11.8532 6.32188C11.866 6.26904 11.8666 6.21399 11.8551 6.16087C11.8435 6.10775 11.82 6.05795 11.7864 6.01524C11.7527 5.97252 11.7098 5.938 11.6609 5.91428C11.612 5.89057 11.5583 5.87827 11.504 5.87833H11.4788C10.3569 5.87833 9.6298 5.57528 9.25599 4.95227C9.01448 4.54872 8.89244 4.13492 8.89244 3.72162C8.89441 3.46599 8.93681 3.21228 9.01807 2.9699L9.02114 2.9617C9.20061 2.36227 9.51391 1.92283 9.97848 1.61824C10.4431 1.31366 10.941 1.14855 11.4455 1.13573C13.2597 1.25777 14.1381 2.09307 14.2093 3.76264C14.2133 3.85515 14.2529 3.94254 14.3198 4.00656C14.3867 4.07059 14.4757 4.10629 14.5683 4.1062C14.6063 4.10608 14.644 4.10003 14.6801 4.08825C15.9312 3.67804 17.2552 3.20219 18.6161 2.67711C19.977 2.15204 21.2635 1.70285 22.4413 1.31468C23.4469 1.03984 24.3899 0.899341 25.2375 0.898315C27.0906 1.02446 28.2495 1.58389 28.6828 2.5602C28.851 3.02733 28.9392 3.42627 28.9392 3.74726C28.9392 3.97544 28.8581 4.23132 28.6992 4.5077C28.5587 4.75127 28.3141 4.90817 27.9516 4.98765H27.9459C27.8013 5.0237 27.653 5.04314 27.5039 5.04559C27.4315 5.04632 27.3593 5.03892 27.2886 5.02355C27.2255 4.21952 26.7327 3.53087 25.82 2.97247C25.1954 2.59353 24.3863 2.39817 23.4166 2.39817C22.8132 2.40367 22.2115 2.46218 21.6183 2.57302L21.5978 2.57712C19.8139 3.00477 18.1561 3.61189 16.6717 4.38207C15.8241 4.78665 14.9954 5.14046 14.2104 5.43376C14.159 5.45285 14.1128 5.48343 14.0751 5.52316C14.0374 5.56289 14.0093 5.61071 13.993 5.66297C13.6207 6.85772 12.9772 8.18015 12.0814 9.59437C11.1855 11.0086 10.1841 12.2649 9.11549 13.3181C8.0956 14.3221 7.20338 14.8318 6.46396 14.8318L6.42756 14.8328ZM11.0589 2.22126C10.8565 2.2251 10.6564 2.26378 10.4672 2.33561C10.2323 2.42021 10.0149 2.58686 9.82106 2.83094C9.80034 2.85622 9.78309 2.88416 9.76979 2.91401C9.68021 3.11695 9.6251 3.3334 9.60673 3.55446C9.60673 3.56266 9.60673 3.57087 9.60673 3.57907V3.62112C9.5997 3.79788 9.6395 3.97336 9.7221 4.12979C9.72723 4.1385 9.73235 4.14722 9.73851 4.15594C10.0508 4.60666 10.5405 4.83485 11.1932 4.83485C11.4399 4.83195 11.6855 4.80394 11.9265 4.75127C11.9949 4.73695 12.0576 4.70297 12.107 4.65351C12.1564 4.60405 12.1902 4.54126 12.2044 4.47283C12.2624 4.20969 12.2933 3.94131 12.2967 3.67188C12.2967 2.5643 11.6178 2.29561 11.2132 2.23613C11.1622 2.22729 11.1106 2.22231 11.0589 2.22126Z" fill="url(#paint1_linear_23_5950)"/>
<path d="M17.6428 6.11841C18.1556 6.11841 18.638 6.32147 19.0899 6.72758C19.496 7.09985 19.6992 7.65005 19.6996 8.37818C19.6996 8.46279 19.6965 8.5474 19.6908 8.63457C19.5825 9.62354 19.1682 10.5541 18.5058 11.2964C17.829 12.072 17.0672 12.474 16.2204 12.5024C16.257 12.6836 16.3462 12.85 16.4768 12.9808C16.6194 13.127 16.8106 13.2158 17.0142 13.2305C17.087 13.2418 17.1605 13.2474 17.2342 13.2474C18.3571 13.2474 19.5958 11.9947 20.9502 9.48935H21.8132C21.0738 11.2615 20.1583 12.6538 19.0668 13.6664C17.9753 14.6789 16.981 15.1845 16.084 15.1831C14.4432 15.1831 13.5373 14.427 13.3664 12.9147C13.3383 12.6532 13.3241 12.3905 13.3238 12.1276C13.3238 10.8747 13.7019 9.55995 14.458 8.18333C15.2142 6.80672 16.2758 6.11841 17.6428 6.11841ZM18.1418 8.13257C18.1169 8.12674 18.0914 8.12399 18.0659 8.12436C17.885 8.12436 17.6466 8.25683 17.3506 8.52176C17.0545 8.78669 16.7879 9.18733 16.5506 9.72369C16.4549 9.99477 16.4071 10.217 16.4071 10.3903C16.4071 10.5657 16.4517 10.698 16.5424 10.7882C16.5951 10.8376 16.6646 10.8649 16.7368 10.8646C16.9227 10.8646 17.1711 10.715 17.4818 10.4159C17.7087 10.1769 17.8907 9.89898 18.0192 9.5955C18.1614 9.29573 18.2571 8.97601 18.3028 8.64739C18.3084 8.58534 18.3115 8.52894 18.3115 8.47817C18.3115 8.28794 18.2546 8.17205 18.1418 8.13257Z" fill="url(#paint2_linear_23_5950)"/>
<path style="mix-blend-mode:overlay" d="M16.084 14.8241C14.6226 14.8241 13.873 14.2047 13.7253 12.8756C13.699 12.6274 13.6856 12.378 13.6853 12.1285C13.6853 10.943 14.0519 9.67385 14.7755 8.35706C15.4697 7.09257 16.4076 6.47827 17.6434 6.47827C18.0685 6.47827 18.4638 6.64749 18.8504 6.99514C19.1796 7.29717 19.3412 7.75045 19.3412 8.37962C19.3412 8.45192 19.3412 8.52678 19.334 8.60165C19.2304 9.51379 18.8475 10.3716 18.2377 11.0578C17.6223 11.7618 16.9604 12.1162 16.2107 12.1413C16.1588 12.143 16.108 12.156 16.0616 12.1793C16.0153 12.2025 15.9745 12.2356 15.9421 12.2761C15.9098 12.3167 15.8866 12.3638 15.8742 12.4141C15.8618 12.4645 15.8604 12.517 15.8702 12.5679C15.9205 12.8172 16.0428 13.0463 16.222 13.2268C16.4206 13.4332 16.6873 13.5607 16.9727 13.5858C17.0606 13.5991 17.1494 13.6058 17.2383 13.6058C18.4853 13.6058 19.7714 12.3751 21.1671 9.84768H21.2697C20.5928 11.3316 19.7724 12.5259 18.8274 13.4027C17.8064 14.3457 16.885 14.8241 16.084 14.8241ZM18.0649 7.76532C17.7864 7.76532 17.4829 7.91915 17.1101 8.25451C16.7778 8.5514 16.4789 8.99853 16.2225 9.57694C16.2189 9.58514 16.2153 9.59386 16.2122 9.60206C16.1015 9.91434 16.0481 10.1723 16.0481 10.3907C16.0481 10.664 16.1292 10.883 16.2886 11.0429L16.302 11.0553C16.4206 11.1641 16.5758 11.2244 16.7368 11.224C17.0265 11.224 17.3424 11.0491 17.7311 10.6748L17.7357 10.6702C17.9932 10.4002 18.2 10.0862 18.3464 9.74307C18.5034 9.40971 18.6089 9.0544 18.6592 8.68933C18.6594 8.68609 18.6594 8.68283 18.6592 8.67959C18.6658 8.60524 18.6694 8.53909 18.6694 8.47807C18.6694 8.00632 18.413 7.84583 18.2592 7.7925C18.2484 7.7884 18.2372 7.78532 18.2264 7.78224C18.1737 7.77038 18.1199 7.7647 18.0659 7.76532H18.0649Z" fill="url(#paint3_linear_23_5950)"/>
<path d="M22.5178 6.12659C22.8787 6.12659 23.2667 6.23102 23.6817 6.43989C24.0967 6.64876 24.3577 6.95351 24.4647 7.35416C25.1922 6.53578 25.9538 6.12659 26.7496 6.12659C28.0193 6.12659 28.6541 6.53287 28.6541 7.34544C28.6541 7.368 28.6457 7.59943 28.6289 8.03973C28.6122 8.48003 28.3729 9.3208 27.9111 10.562C27.5538 11.5605 27.2758 12.5857 27.0799 13.6279C27.0245 13.9266 26.9962 14.2297 26.9953 14.5334C26.9896 15.1869 27.1437 15.8318 27.4439 16.4122C27.6979 16.3558 27.949 16.2938 28.1972 16.2261C28.496 16.1471 28.7753 16.0788 29.0351 16.021C29.6128 15.9107 30.1991 15.8514 30.7872 15.8436C31.6394 15.8436 32.2742 16.0128 32.6916 16.3512C33.109 16.6896 33.3177 17.0621 33.3177 17.4685C33.3177 17.7054 33.1823 18.0644 32.9116 18.5453C32.6409 19.0263 31.8004 19.3528 30.3903 19.5247C30.2153 19.5302 30.0432 19.5329 29.8739 19.5329C27.8769 19.5329 26.5256 19.0675 25.82 18.1367C24.5784 18.6047 23.3271 19.0362 22.066 19.4314C20.8049 19.8266 19.6862 20.0242 18.7099 20.0242C16.9552 20.0242 15.9311 19.395 15.6374 18.1367C15.6158 17.9824 15.6045 17.8268 15.6036 17.6711C15.6036 17.067 15.8068 16.5789 16.2133 16.2066C16.5615 15.8877 17.019 15.7149 17.4911 15.7241C17.7258 15.7268 17.9593 15.7583 18.1864 15.8179C18.3385 16.7604 19.0918 17.2682 20.4462 17.3414C20.6889 17.3526 20.9343 17.3583 21.1825 17.3583C22.3506 17.3583 23.6457 17.2087 25.0678 16.9096C24.6741 16.1547 24.4707 15.3151 24.475 14.4637C24.475 14.1536 24.5343 13.6091 24.6529 12.83C24.7715 12.051 24.9972 11.168 25.3298 10.1811C25.4835 9.70319 25.6107 9.2172 25.7108 8.7253C25.7265 8.64711 25.7351 8.56764 25.7364 8.48789C25.7364 8.27936 25.6545 8.1751 25.4908 8.1751C24.9719 8.19219 24.4471 8.60822 23.9166 9.42318C23.3746 10.265 22.9743 11.19 22.7316 12.1614C22.6146 12.5834 22.5519 13.0187 22.5449 13.4566C22.5449 13.8911 22.6239 14.2719 22.7818 14.5991C22.3846 14.9939 21.9214 15.1915 21.3922 15.1918C20.3934 15.1918 19.8939 14.7064 19.8939 13.7356C19.8939 13.6735 19.897 13.6089 19.9026 13.5412C19.9824 12.188 20.2973 10.859 20.8333 9.61393C21.3803 8.32175 21.9079 7.21861 22.4162 6.30452C22.4501 6.24401 22.4839 6.18299 22.5178 6.12659ZM30.517 16.7491C29.9242 16.7491 29.154 16.924 28.2064 17.2737C28.7192 17.6572 29.2439 17.8717 29.7806 17.9172C29.8934 17.9223 30.0006 17.9254 30.1021 17.9254C30.497 17.9254 30.8327 17.8661 31.1092 17.7475C31.4251 17.6176 31.5832 17.4682 31.5835 17.2993C31.5838 17.2791 31.5809 17.2591 31.5748 17.2398C31.4562 16.9069 31.1683 16.7404 30.7113 16.7404C30.6467 16.7404 30.5841 16.7435 30.5164 16.7491H30.517Z" fill="url(#paint4_linear_23_5950)"/>
<path style="mix-blend-mode:overlay" d="M18.7089 19.6658C17.1373 19.6658 16.2476 19.1443 15.9912 18.0716C15.9729 17.9391 15.9633 17.8055 15.9625 17.6717C15.9625 17.1686 16.124 16.7759 16.4558 16.4718C16.7377 16.2133 17.1088 16.0742 17.4911 16.0836C17.6232 16.0844 17.755 16.0968 17.8849 16.1205C18.0854 16.8384 18.7053 17.6076 20.4257 17.6999C20.6769 17.7117 20.9302 17.7173 21.1815 17.7173C22.3685 17.7173 23.7007 17.5635 25.1406 17.2609C25.1947 17.2495 25.2455 17.2257 25.2889 17.1915C25.3323 17.1572 25.3672 17.1134 25.3909 17.0634C25.4146 17.0134 25.4264 16.9586 25.4254 16.9033C25.4244 16.848 25.4106 16.7937 25.3852 16.7446C25.0188 16.0403 24.829 15.2576 24.8319 14.4638C24.8319 14.173 24.8904 13.6433 25.0057 12.8844C25.1211 12.1255 25.3431 11.2585 25.6682 10.2955C25.6682 10.2955 25.6682 10.2898 25.6708 10.2868C25.8287 9.79564 25.9591 9.29611 26.0615 8.79049C26.0817 8.69088 26.0923 8.58958 26.0933 8.48796C26.0933 7.99211 25.7677 7.81623 25.4888 7.81623H25.477C24.8273 7.83725 24.2176 8.29926 23.6136 9.22789C23.0511 10.1026 22.6354 11.0634 22.3829 12.0722C22.2588 12.5235 22.1925 12.9887 22.1855 13.4567C22.1812 13.8112 22.2372 14.1639 22.3511 14.4997C22.0796 14.718 21.7407 14.8353 21.3922 14.8314C20.5939 14.8314 20.2529 14.5033 20.2529 13.7341C20.2529 13.6828 20.2554 13.6274 20.26 13.569C20.26 13.5659 20.26 13.5628 20.26 13.5592C20.3385 12.2476 20.644 10.9596 21.163 9.75245C21.6989 8.48796 22.2219 7.39371 22.7183 6.49688C22.9983 6.53864 23.2691 6.62776 23.5192 6.76044C23.8412 6.92247 24.0366 7.14707 24.1171 7.44704C24.1338 7.50957 24.1672 7.56641 24.2136 7.61154C24.26 7.65668 24.3177 7.68842 24.3807 7.70342C24.4079 7.7097 24.4358 7.71296 24.4637 7.71317C24.5144 7.71315 24.5645 7.7024 24.6107 7.68163C24.6569 7.66086 24.6982 7.63054 24.7319 7.59266C25.3852 6.85786 26.0651 6.4856 26.7486 6.4856C28.2941 6.4856 28.2941 7.11015 28.2941 7.34551C28.2941 7.36397 28.2895 7.49934 28.269 8.02595C28.2587 8.3008 28.129 8.94176 27.5721 10.436C27.5723 10.4377 27.5723 10.4394 27.5721 10.4411C27.2099 11.4569 26.9277 12.4995 26.7281 13.5592C26.6686 13.8806 26.6382 14.2067 26.6374 14.5335C26.6322 15.2446 26.8001 15.9462 27.1265 16.5779C27.1568 16.6363 27.2025 16.6852 27.2586 16.7194C27.3148 16.7536 27.3792 16.7717 27.445 16.7717C27.4712 16.7716 27.4973 16.7687 27.5229 16.763C27.7793 16.7056 28.0403 16.6415 28.2921 16.5728C28.5797 16.4964 28.8561 16.4302 29.1053 16.3754C29.6601 16.2698 30.223 16.2127 30.7877 16.2046C31.5512 16.2046 32.1158 16.3482 32.466 16.6323C32.7983 16.9015 32.9593 17.1758 32.9593 17.4707C32.9593 17.5491 32.9244 17.7947 32.6003 18.3742C32.4824 18.5844 32.0363 18.9664 30.3637 19.1689C30.1965 19.1741 30.0319 19.1766 29.8745 19.1766C28.0049 19.1766 26.7368 18.7546 26.1066 17.9224C26.0732 17.8782 26.0299 17.8424 25.9802 17.8178C25.9306 17.7932 25.8759 17.7803 25.8205 17.7804C25.7772 17.7802 25.7343 17.788 25.6939 17.8034C24.4632 18.2649 23.208 18.7008 21.9594 19.0915C20.7369 19.4735 19.6442 19.6658 18.7089 19.6658ZM30.5026 16.3902C29.8637 16.3902 29.0715 16.5718 28.0823 16.9369C28.0217 16.9592 27.9682 16.9976 27.9276 17.0478C27.8869 17.098 27.8606 17.1583 27.8513 17.2223C27.8421 17.2862 27.8503 17.3515 27.8751 17.4112C27.8998 17.4709 27.9403 17.5228 27.9921 17.5614C28.5561 17.9839 29.1494 18.2239 29.7509 18.2747H29.7632C29.8832 18.2803 29.9975 18.2834 30.1027 18.2834C30.5431 18.2834 30.9287 18.2142 31.2487 18.0783C31.7102 17.8886 31.943 17.626 31.943 17.2989C31.9431 17.241 31.9343 17.1834 31.9168 17.1281L31.9138 17.1189C31.8153 16.8435 31.5292 16.381 30.7118 16.381C30.6431 16.3815 30.5729 16.3846 30.5016 16.3902H30.5026Z" fill="url(#paint5_linear_23_5950)"/>
<defs>
<linearGradient id="paint0_linear_23_5950" x1="0.536865" y1="7.86583" x2="29.2976" y2="7.86583" gradientUnits="userSpaceOnUse">
<stop stop-color="#FAAC18"/>
<stop offset="0.5" stop-color="#FFCA05"/>
<stop offset="1" stop-color="#FFE7A3"/>
</linearGradient>
<linearGradient id="paint1_linear_23_5950" x1="8.36275" y1="18.754" x2="20.66" y2="-2.54544" gradientUnits="userSpaceOnUse">
<stop stop-color="#FEF4F8" stop-opacity="0"/>
<stop offset="0.09" stop-color="#FEF5F9" stop-opacity="0.12"/>
<stop offset="0.35" stop-color="#FEF9FB" stop-opacity="0.43"/>
<stop offset="0.58" stop-color="#FFFBFD" stop-opacity="0.67"/>
<stop offset="0.77" stop-color="#FFFDFE" stop-opacity="0.85"/>
<stop offset="0.91" stop-color="white" stop-opacity="0.96"/>
<stop offset="1" stop-color="white"/>
</linearGradient>
<linearGradient id="paint2_linear_23_5950" x1="13.3258" y1="10.6508" x2="21.8153" y2="10.6508" gradientUnits="userSpaceOnUse">
<stop stop-color="#76B83F"/>
<stop offset="0.5" stop-color="#ACD479"/>
<stop offset="1" stop-color="#D1E4A5"/>
</linearGradient>
<linearGradient id="paint3_linear_23_5950" x1="4103.18" y1="5787.22" x2="4840.34" y2="4626.98" gradientUnits="userSpaceOnUse">
<stop stop-color="#FEF4F8" stop-opacity="0"/>
<stop offset="0.09" stop-color="#FEF5F9" stop-opacity="0.12"/>
<stop offset="0.35" stop-color="#FEF9FB" stop-opacity="0.43"/>
<stop offset="0.58" stop-color="#FFFBFD" stop-opacity="0.67"/>
<stop offset="0.77" stop-color="#FFFDFE" stop-opacity="0.85"/>
<stop offset="0.91" stop-color="white" stop-opacity="0.96"/>
<stop offset="1" stop-color="white"/>
</linearGradient>
<linearGradient id="paint4_linear_23_5950" x1="15.6026" y1="13.0756" x2="33.3177" y2="13.0756" gradientUnits="userSpaceOnUse">
<stop stop-color="#0095DA"/>
<stop offset="0.41" stop-color="#00AEEE"/>
<stop offset="0.85" stop-color="#2BC4F3"/>
<stop offset="0.97" stop-color="#97DAF7"/>
</linearGradient>
<linearGradient id="paint5_linear_23_5950" x1="11472.5" y1="11057.6" x2="13290.1" y2="6997.4" gradientUnits="userSpaceOnUse">
<stop stop-color="#FEF4F8" stop-opacity="0"/>
<stop offset="0.09" stop-color="#FEF5F9" stop-opacity="0.12"/>
<stop offset="0.35" stop-color="#FEF9FB" stop-opacity="0.43"/>
<stop offset="0.58" stop-color="#FFFBFD" stop-opacity="0.67"/>
<stop offset="0.77" stop-color="#FFFDFE" stop-opacity="0.85"/>
<stop offset="0.91" stop-color="white" stop-opacity="0.96"/>
<stop offset="1" stop-color="white"/>
</linearGradient>
</defs>
</svg>
