<svg width="35" height="35" viewBox="0 0 35 35" fill="none" xmlns="http://www.w3.org/2000/svg">
<path d="M17.5 35C27.165 35 35 27.165 35 17.5C35 7.83502 27.165 0 17.5 0C7.83502 0 0 7.83502 0 17.5C0 27.165 7.83502 35 17.5 35Z" fill="#1969FF"/>
<path d="M16.4388 5.56515C17.0284 5.25432 17.9255 5.25432 18.5151 5.56515L24.5313 8.73686C24.8864 8.92404 25.0814 9.20299 25.1163 9.49095H25.1221V25.4335C25.1142 25.7476 24.9174 26.0596 24.5313 26.2631L18.5151 29.4349C17.9255 29.7457 17.0284 29.7457 16.4388 29.4349L10.4226 26.2631C10.0381 26.0605 9.85363 25.7463 9.84449 25.4335C9.84355 25.4014 9.84347 25.3749 9.84446 25.3531L9.84449 9.59829C9.84359 9.57613 9.84358 9.55406 9.84447 9.53209L9.84449 9.49095H9.84718C9.8739 9.19981 10.0601 8.92798 10.4226 8.73686L16.4388 5.56515ZM24.165 18.3545L18.5133 21.3438C17.9245 21.6553 17.0287 21.6553 16.44 21.3438L10.8008 18.3612V25.3842L16.44 28.3511C16.7732 28.5294 17.1197 28.7031 17.4572 28.7107L17.4766 28.7109C17.8134 28.712 18.1403 28.5408 18.4718 28.3787L24.165 25.3586V18.3545ZM8.90121 25.0879C8.90121 25.699 8.97161 26.1007 9.11139 26.3837C9.22724 26.6183 9.40108 26.7975 9.71849 27.0157L9.73661 27.028C9.80627 27.0754 9.883 27.1251 9.97641 27.1834L10.0866 27.2514L10.4248 27.4574L9.93967 28.2666L9.56108 28.0359L9.49745 27.9965C9.38799 27.9283 9.29726 27.8698 9.21263 27.8122C8.308 27.1969 7.97062 26.526 7.96397 25.1304L7.96387 25.0879H8.90121ZM17.0215 14.1162C16.9777 14.1313 16.9367 14.1487 16.8993 14.1685L10.8923 17.3504C10.886 17.3537 10.8799 17.3571 10.8742 17.3603L10.8691 17.3633L10.8786 17.3687L10.8923 17.3761L16.8993 20.558C16.9367 20.5778 16.9777 20.5953 17.0215 20.6104V14.1162ZM17.9785 14.1162V20.6104C18.0223 20.5953 18.0634 20.5778 18.1008 20.558L24.1077 17.3761C24.114 17.3728 24.12 17.3695 24.1258 17.3662L24.1309 17.3633L24.1214 17.3579L24.1077 17.3504L18.1008 14.1685C18.0634 14.1487 18.0223 14.1313 17.9785 14.1162ZM24.165 10.6299L18.7646 13.4668L24.165 16.3037V10.6299ZM10.8008 10.6299V16.3037L16.2012 13.4668L10.8008 10.6299ZM18.0955 6.41304C17.7828 6.24774 17.2172 6.24774 16.9045 6.41304L10.8923 9.59163C10.886 9.59498 10.88 9.59827 10.8742 9.60155L10.8691 9.60449L10.8786 9.60989L10.8923 9.61735L16.9045 12.7959C17.2172 12.9613 17.7828 12.9613 18.0955 12.7959L24.1077 9.61735C24.114 9.614 24.12 9.61071 24.1257 9.60746L24.1309 9.60449L24.1214 9.59909L24.1077 9.59163L18.0955 6.41304ZM25.0603 6.7334L25.4389 6.96409L25.5025 7.0035C25.612 7.07167 25.7027 7.13024 25.7874 7.18781C26.692 7.80314 27.0294 8.474 27.036 9.86959L27.0361 9.91211H26.0988C26.0988 9.30092 26.0284 8.89926 25.8886 8.61625C25.7728 8.38171 25.5989 8.20246 25.2815 7.98435L25.2634 7.97196C25.1937 7.92458 25.117 7.87494 25.0236 7.8166L24.9135 7.74854L24.5752 7.54259L25.0603 6.7334Z" fill="white"/>
</svg>
