<svg width="35" height="35" viewBox="0 0 35 35" fill="none" xmlns="http://www.w3.org/2000/svg">
<path d="M5.83329 14.583H8.75V11.6663H5.83329V14.583Z" fill="#FED955"/>
<path d="M5.83329 20.4164H8.75V17.4997H5.83329V20.4164Z" fill="#FED955"/>
<path d="M5.83329 17.5007H8.75V14.584H5.83329V17.5007Z" fill="#FED955"/>
<path d="M5.83329 23.3331H8.75V20.4164H5.83329V23.3331Z" fill="#FED955"/>
<path d="M17.4993 8.75012H20.416V5.83341H17.4993V8.75012Z" fill="#FED955"/>
<path d="M17.4993 26.2504L20.416 26.2504L20.416 29.1671L17.4993 29.1671L17.4993 26.2504Z" fill="#FED955"/>
<path d="M20.4163 8.75012H23.333V5.83341H20.4163V8.75012Z" fill="#FED955"/>
<path d="M23.3333 8.75012H26.25V5.83341H23.3333V8.75012Z" fill="#9695F8"/>
<path d="M11.6667 8.75012L8.75 8.75012L8.75 5.83341L11.6667 5.83341L11.6667 8.75012Z" fill="#9695F8"/>
<path d="M29.1667 26.2504L26.25 26.2504L26.25 23.3337L29.1667 23.3337L29.1667 26.2504Z" fill="#9695F8"/>
<path d="M5.83329 26.2504H8.75V23.3337H5.83329V26.2504Z" fill="#9695F8"/>
<path d="M20.4163 5.83289H23.333V2.91618L20.4163 2.91618V5.83289Z" fill="#9695F8"/>
<path d="M20.4163 2.91669L23.333 2.91669V-2.24113e-05L20.4163 -2.24113e-05V2.91669Z" fill="#5552FD"/>
<path d="M20.4163 35.0004H23.333V32.0837H20.4163V35.0004Z" fill="#5552FD"/>
<path d="M20.4163 32.0838H23.333V29.1671H20.4163V32.0838Z" fill="#9695F8"/>
<path d="M14.5843 5.83289H17.501V2.91618L14.5843 2.91618V5.83289Z" fill="#9695F8"/>
<path d="M14.5843 2.91669L17.501 2.91669V-2.24113e-05L14.5843 -2.24113e-05V2.91669Z" fill="#5552FD"/>
<path d="M14.5843 35.0004H17.501V32.0837H14.5843V35.0004Z" fill="#5552FD"/>
<path d="M14.5843 32.0838H17.501V29.1671H14.5843V32.0838Z" fill="#9695F8"/>
<path d="M17.4993 5.83289H20.416V2.91618L17.4993 2.91618V5.83289Z" fill="#9695F8"/>
<path d="M17.4993 2.91669L20.416 2.91669V-2.24113e-05L17.4993 -2.24113e-05V2.91669Z" fill="#5552FD"/>
<path d="M17.4993 35.0004H20.416V32.0837H17.4993V35.0004Z" fill="#5552FD"/>
<path d="M17.4993 32.0838H20.416V29.1671H17.4993V32.0838Z" fill="#9695F8"/>
<path d="M11.6663 5.83289H14.583V2.91618L11.6663 2.91618V5.83289Z" fill="#9695F8"/>
<path d="M11.6663 2.91669L14.583 2.91669V-2.24113e-05L11.6663 -2.24113e-05V2.91669Z" fill="#5552FD"/>
<path d="M11.6663 35.0004H14.583V32.0837H11.6663V35.0004Z" fill="#5552FD"/>
<path d="M11.6663 32.0838H14.583V29.1671H11.6663V32.0838Z" fill="#9695F8"/>
<path d="M26.2493 11.6663H29.166V8.74961H26.2493V11.6663Z" fill="#9695F8"/>
<path d="M8.74972 11.6663L5.83301 11.6663L5.83301 8.74961L8.74972 8.74961L8.74972 11.6663Z" fill="#9695F8"/>
<path d="M26.2497 29.1666L23.333 29.1666L23.333 26.2499L26.2497 26.2499L26.2497 29.1666Z" fill="#9695F8"/>
<path d="M8.74931 29.1666H11.666V26.2499H8.74931V29.1666Z" fill="#9695F8"/>
<path d="M29.1663 14.583H32.083V11.6663H29.1663V14.583Z" fill="#9695F8"/>
<path d="M2.9163 14.583H5.83301V11.6663H2.9163L2.9163 14.583Z" fill="#9695F8"/>
<path d="M0.000282764 14.583H2.91699L2.91699 11.6663H0.000282764L0.000282764 14.583Z" fill="#5552FD"/>
<path d="M2.9163 11.6663H5.83301V8.74961H2.9163L2.9163 11.6663Z" fill="#5552FD"/>
<path d="M32.0827 11.6663L29.166 11.6663L29.166 8.74961L32.0827 8.74961L32.0827 11.6663Z" fill="#5552FD"/>
<path d="M23.3333 32.0838H26.25V29.1671H23.3333V32.0838Z" fill="#5552FD"/>
<path d="M2.91699 23.3337V26.2504H5.8337V23.3337H2.91699Z" fill="#5552FD"/>
<path d="M5.83329 8.75012H8.75V5.83341H5.83329V8.75012Z" fill="#5552FD"/>
<path d="M29.1667 8.75012L26.25 8.75012L26.25 5.83341L29.1667 5.83341L29.1667 8.75012Z" fill="#5552FD"/>
<path d="M26.2493 29.1666H29.166V26.2499H26.2493V29.1666Z" fill="#5552FD"/>
<path d="M5.83301 26.2499V29.1666H8.74972V26.2499H5.83301Z" fill="#5552FD"/>
<path d="M8.74931 5.83289H11.666V2.91618L8.74931 2.91618V5.83289Z" fill="#5552FD"/>
<path d="M26.2497 5.83289L23.333 5.83289L23.333 2.91618L26.2497 2.91618L26.2497 5.83289Z" fill="#5552FD"/>
<path d="M29.1663 26.2504H32.083V23.3337H29.1663V26.2504Z" fill="#5552FD"/>
<path d="M8.75 29.1671V32.0838H11.6667V29.1671H8.75Z" fill="#5552FD"/>
<path d="M32.0833 14.583H35V11.6663H32.0833V14.583Z" fill="#5552FD"/>
<path d="M29.1663 17.5007H32.083V14.584H29.1663V17.5007Z" fill="#9695F8"/>
<path d="M2.9163 17.5007H5.83301V14.584H2.9163L2.9163 17.5007Z" fill="#9695F8"/>
<path d="M0.000282764 17.5007H2.91699L2.91699 14.584H0.000282764L0.000282764 17.5007Z" fill="#5552FD"/>
<path d="M32.0833 17.5007H35V14.584H32.0833V17.5007Z" fill="#5552FD"/>
<path d="M29.1663 20.4164H32.083V17.4997H29.1663V20.4164Z" fill="#9695F8"/>
<path d="M2.9163 20.4164H5.83301V17.4997H2.9163L2.9163 20.4164Z" fill="#9695F8"/>
<path d="M0.000282764 20.4164H2.91699L2.91699 17.4997H0.000282764L0.000282764 20.4164Z" fill="#5552FD"/>
<path d="M32.0833 20.4164H35V17.4997H32.0833V20.4164Z" fill="#5552FD"/>
<path d="M29.1663 23.3331H32.083V20.4164H29.1663V23.3331Z" fill="#9695F8"/>
<path d="M2.9163 23.3331H5.83301V20.4164H2.9163L2.9163 23.3331Z" fill="#9695F8"/>
<path d="M0.000282764 23.3331H2.91699L2.91699 20.4164H0.000282764L0.000282764 23.3331Z" fill="#5552FD"/>
<path d="M32.0833 23.3331H35V20.4164H32.0833V23.3331Z" fill="#5552FD"/>
<path d="M20.4163 26.2504L23.333 26.2504L23.333 29.1671L20.4163 29.1671L20.4163 26.2504Z" fill="#FED955"/>
<path d="M17.4993 14.583H20.416V11.6663H17.4993V14.583Z" fill="#FED955"/>
<path d="M17.4993 20.4164H20.416V17.4997H17.4993V20.4164Z" fill="#FED955"/>
<path d="M17.4993 23.3331H20.416V20.4164H17.4993V23.3331Z" fill="#FED955"/>
<path d="M17.4993 11.6663H20.416V8.74961H17.4993V11.6663Z" fill="#FED955"/>
<path d="M17.4993 23.3331L20.416 23.3331L20.416 26.2498L17.4993 26.2498L17.4993 23.3331Z" fill="#FED955"/>
<path d="M11.6663 20.4164H14.583V17.4997H11.6663V20.4164Z" fill="#FED955"/>
<path d="M11.6663 17.5007H14.583V14.584H11.6663V17.5007Z" fill="#FED955"/>
<path d="M11.6663 23.3331H14.583V20.4164H11.6663V23.3331Z" fill="#FED955"/>
<path d="M11.6663 11.6663H14.583V8.74961H11.6663V11.6663Z" fill="#FED955"/>
<path d="M11.6663 23.3331L14.583 23.3331L14.583 26.2498L11.6663 26.2498L11.6663 23.3331Z" fill="#FED955"/>
<path d="M20.4163 20.4164H23.333V17.4997H20.4163V20.4164Z" fill="#FED955"/>
<path d="M20.4163 17.5007H23.333V14.584H20.4163V17.5007Z" fill="#FED955"/>
<path d="M20.4163 23.3331H23.333V20.4164H20.4163V23.3331Z" fill="#FED955"/>
<path d="M20.4163 11.6663H23.333V8.74961H20.4163V11.6663Z" fill="#FED955"/>
<path d="M20.4163 23.3331L23.333 23.3331L23.333 26.2498L20.4163 26.2498L20.4163 23.3331Z" fill="#FED955"/>
<path d="M14.5843 8.75012H17.501V5.83341H14.5843V8.75012Z" fill="#FED955"/>
<path d="M14.5843 26.2504L17.501 26.2504L17.501 29.1671L14.5843 29.1671L14.5843 26.2504Z" fill="#FED955"/>
<path d="M11.6663 8.75012H14.583V5.83341H11.6663V8.75012Z" fill="#FED955"/>
<path d="M11.6663 26.2504L14.583 26.2504L14.583 29.1671L11.6663 29.1671L11.6663 26.2504Z" fill="#FED955"/>
<path d="M14.5843 14.583H17.501V11.6663H14.5843V14.583Z" fill="#FED955"/>
<path d="M14.5843 20.4164H17.501V17.4997H14.5843V20.4164Z" fill="#FED955"/>
<path d="M11.6663 14.583H14.583V11.6663H11.6663V14.583Z" fill="#5552FD"/>
<path d="M17.4993 17.5007H20.416V14.584H17.4993V17.5007Z" fill="#5552FD"/>
<path d="M23.3333 14.583H26.25V11.6663H23.3333V14.583Z" fill="#5552FD"/>
<path d="M23.3333 20.4164H26.25V17.4997H23.3333V20.4164Z" fill="#5552FD"/>
<path d="M23.3333 17.5007H26.25V14.584H23.3333V17.5007Z" fill="#5552FD"/>
<path d="M23.3333 23.3331H26.25V20.4164H23.3333V23.3331Z" fill="#5552FD"/>
<path d="M23.3333 11.6663H26.25V8.74961H23.3333V11.6663Z" fill="#5552FD"/>
<path d="M23.3333 23.3331L26.25 23.3331L26.25 26.2498L23.3333 26.2498L23.3333 23.3331Z" fill="#5552FD"/>
<path d="M8.74931 14.583H11.666V11.6663H8.74931V14.583Z" fill="#5552FD"/>
<path d="M8.74931 20.4164H11.666V17.4997H8.74931V20.4164Z" fill="#5552FD"/>
<path d="M8.74931 17.5007H11.666V14.584H8.74931V17.5007Z" fill="#5552FD"/>
<path d="M8.74931 23.3331H11.666V20.4164H8.74931V23.3331Z" fill="#5552FD"/>
<path d="M8.74931 11.6663H11.666V8.74961H8.74931V11.6663Z" fill="#5552FD"/>
<path d="M8.74931 23.3331L11.666 23.3331L11.666 26.2498L8.74931 26.2498L8.74931 23.3331Z" fill="#5552FD"/>
<path d="M20.4163 14.583H23.333V11.6663H20.4163V14.583Z" fill="#5552FD"/>
<path d="M14.5843 17.5007H17.501V14.584H14.5843V17.5007Z" fill="#5552FD"/>
<path d="M14.5843 23.3331H17.501V20.4164H14.5843V23.3331Z" fill="#FED955"/>
<path d="M14.5843 11.6663H17.501V8.74961H14.5843V11.6663Z" fill="#FED955"/>
<path d="M14.5843 23.3331L17.501 23.3331L17.501 26.2498L14.5843 26.2498L14.5843 23.3331Z" fill="#FED955"/>
<path d="M26.2493 14.583H29.166V11.6663H26.2493V14.583Z" fill="#FED955"/>
<path d="M26.2493 20.4164H29.166V17.4997H26.2493V20.4164Z" fill="#FED955"/>
<path d="M26.2493 17.5007H29.166V14.584H26.2493V17.5007Z" fill="#FED955"/>
<path d="M26.2493 23.3331H29.166V20.4164H26.2493V23.3331Z" fill="#FED955"/>
</svg>
