<svg width="42" height="35" viewBox="0 0 42 35" fill="none" xmlns="http://www.w3.org/2000/svg">
<ellipse cx="20.6842" cy="17.5" rx="17.6842" ry="17.5" fill="#FDFDFD"/>
<path d="M10.0043 24.6378C8.74801 24.6378 7.94578 24.0173 7.73521 22.9127C7.51087 23.1631 7.28474 23.3958 7.05741 23.6083C6.32817 24.2914 5.59175 24.6378 4.86909 24.6378C3.36693 24.6378 2.50488 23.7989 2.50488 22.3373C2.50488 22.2579 2.50847 22.1739 2.51505 22.0874C2.51924 20.64 2.92544 18.983 3.72168 17.1608C4.50835 15.3611 5.12274 14.0824 5.59893 13.2536L5.7784 12.9405H6.14152C6.71103 12.9427 7.26926 13.0978 7.75674 13.3892C8.02711 13.5406 8.26326 13.7451 8.45063 13.9903C8.63799 14.2355 8.77259 14.5161 8.84612 14.8147L8.90056 15.0243L8.81142 15.222C8.45248 16.0106 8.07141 16.9151 7.6712 17.9103C7.36546 18.6535 7.10712 19.4149 6.89769 20.1901C6.94435 20.1194 6.9946 20.0423 7.04844 19.9586C7.55155 19.1701 8.09773 18.2418 8.67144 17.1904C9.24992 16.1319 9.77158 15.1605 10.2214 14.3027L10.2292 14.2884C10.4685 13.864 10.6426 13.5307 10.7545 13.2968L10.9238 12.9416H11.3204C11.8881 12.9442 12.4446 13.0987 12.9308 13.3886C12.9649 13.4081 12.9984 13.4283 13.0307 13.4478C12.7858 13.2428 12.5769 12.9989 12.4128 12.7262C12.0293 12.0963 11.8367 11.4451 11.8367 10.7773C11.8387 10.3749 11.9049 9.97528 12.0329 9.5933C12.3129 8.67511 12.8321 7.96471 13.5757 7.48164C14.2936 7.01455 15.0629 6.77124 15.8574 6.75467H15.8837H15.91C18.2599 6.90622 19.6729 8.01326 20.0378 9.97277C21.2618 9.56193 22.5402 9.10253 23.8479 8.60289C25.4584 7.9955 26.9797 7.45974 28.3717 7.00923L28.3861 7.00449L28.4011 7.00035C29.6735 6.65521 30.8723 6.47998 31.9635 6.47998H31.985H32.006C34.6035 6.65225 36.2612 7.51006 36.9324 9.02972L36.9402 9.04748L36.9474 9.06642C37.1914 9.73361 37.3105 10.3013 37.3105 10.8022C37.3105 11.2491 37.1693 11.7186 36.8917 12.1963C36.5783 12.735 36.0542 13.0843 35.3423 13.2436C35.0968 13.3038 34.8451 13.3359 34.5921 13.3395C34.2525 13.3466 33.9169 13.2649 33.6194 13.1027L33.3041 12.9251V12.487C33.3041 11.8464 32.9045 11.2941 32.0832 10.798C31.5202 10.4558 30.7599 10.283 29.8224 10.283C29.1862 10.2895 28.5517 10.3505 27.9261 10.4653C25.9316 10.9389 24.0818 11.6108 22.4289 12.4604L22.4194 12.4657L22.4098 12.4698C21.4927 12.9032 20.5924 13.288 19.7303 13.6159C19.2583 15.003 18.5021 16.5132 17.4798 18.1104C16.3892 19.8136 15.1748 21.322 13.8701 22.593C12.4576 23.9688 11.2061 24.6378 10.0414 24.6378H10.0043ZM13.3017 13.6538C13.6567 13.9594 13.9046 14.3685 14.0094 14.8224L14.0597 15.0261L13.9747 15.2185C13.623 16.0106 13.2437 16.9157 12.8483 17.9085C12.5368 18.6692 12.2748 19.4489 12.064 20.2428C12.4337 19.7881 12.9015 19.1049 13.468 18.0808C14.1973 16.7683 14.7518 15.4855 15.121 14.2577C14.3963 14.176 13.7899 13.9747 13.3017 13.6538V13.6538ZM14.7626 10.7347C14.8745 10.8714 15.0839 11.0253 15.5636 11.0253C15.6342 11.0253 15.7096 11.0212 15.7886 11.0141C15.7999 10.9158 15.8057 10.817 15.8059 10.7181C15.8059 10.1373 15.5971 10.1054 15.4296 10.0805H15.4225H15.4057C15.2907 10.0858 15.1773 10.1098 15.0701 10.1516C14.9783 10.1915 14.8973 10.2523 14.8338 10.3292C14.7951 10.4281 14.7696 10.5316 14.7578 10.637V10.6613C14.7577 10.6858 14.7593 10.7103 14.7626 10.7347V10.7347Z" fill="#070707"/>
<path d="M21.272 24.6283C20.1683 24.6283 19.2829 24.3595 18.6398 23.8297C17.9859 23.2892 17.5953 22.4917 17.478 21.4587C17.4429 21.1339 17.4251 20.8074 17.4248 20.4807C17.4248 18.9356 17.8962 17.3035 18.8259 15.6263C19.8219 13.8314 21.2559 12.9209 23.0876 12.9209C23.8432 12.9209 24.5521 13.211 25.1952 13.7834C25.806 14.3376 26.1135 15.1326 26.1135 16.1514C26.1135 16.261 26.1099 16.3728 26.1021 16.4853V16.4995V16.5143C25.9998 17.437 25.6862 18.3244 25.185 19.1091C25.6287 18.4757 26.0345 17.817 26.4 17.1365L26.5795 16.8115H28.9L28.5411 17.6705C27.6473 19.7887 26.5185 21.4842 25.1844 22.7084C23.772 24.0007 22.4942 24.6283 21.272 24.6283ZM22.3979 17.9345C22.362 18.037 22.3381 18.1234 22.3177 18.1956C22.3614 18.1589 22.4093 18.1157 22.4625 18.0648C22.6712 17.8426 22.8389 17.586 22.9578 17.3064C23.0345 17.1406 23.0994 16.9697 23.1523 16.7949C22.8836 17.0359 22.63 17.4201 22.3979 17.9345V17.9345Z" fill="#070707"/>
<path d="M24.3334 30.2171C21.3842 30.2171 20.4246 28.7714 20.1386 27.559L20.1321 27.5306L20.1279 27.5021C20.0988 27.2962 20.0838 27.0885 20.083 26.8806C20.083 26.0062 20.3905 25.2822 20.9971 24.7334C21.5185 24.2597 22.2037 24.002 22.9114 24.0135C23.2359 24.0165 23.5587 24.0586 23.8728 24.139L24.2736 24.2385L24.3394 24.6416C24.3903 24.953 24.5255 25.7806 26.3913 25.8807C26.6599 25.8931 26.9393 25.899 27.2163 25.899C28.3194 25.899 29.5416 25.7806 30.8583 25.5438C30.5732 24.7863 30.4285 23.9841 30.4312 23.1758C30.4312 22.7827 30.5018 22.1357 30.6459 21.1968C30.7889 20.2679 31.0647 19.2065 31.4589 18.0408C31.6247 17.508 31.7491 17.0575 31.8304 16.6958C31.5505 16.8805 31.243 17.2203 30.9331 17.6951C30.3384 18.6107 29.8989 19.6164 29.632 20.6723C29.5093 21.1092 29.443 21.5597 29.4345 22.0131C29.4251 22.3745 29.4983 22.7333 29.6487 23.0628L29.8419 23.4594L29.5279 23.7708C28.947 24.345 28.253 24.6363 27.4652 24.6363C25.9564 24.6363 25.0908 23.7974 25.0908 22.3358C25.0908 22.2511 25.095 22.1582 25.1022 22.0682C25.2016 20.4364 25.5862 18.834 26.2388 17.3322C26.8825 15.8273 27.5136 14.522 28.1142 13.4517C28.1555 13.3777 28.1992 13.3013 28.2429 13.2291L28.4223 12.9277H28.7771C29.2951 12.9277 29.8467 13.0716 30.4168 13.3558C30.7149 13.4999 30.981 13.7011 31.1999 13.9478C31.9938 13.2717 32.8367 12.9295 33.7125 12.9295C36.1903 12.9295 36.5606 14.1993 36.5606 14.9565C36.5606 14.9796 36.5606 15.0062 36.5301 15.7818C36.5074 16.369 36.231 17.3541 35.6537 18.8821C35.2498 20.0023 34.9354 21.1521 34.7133 22.321C34.6556 22.6283 34.626 22.9402 34.6248 23.2528C34.6221 23.7468 34.7092 24.2373 34.882 24.7008C35.0017 24.6712 35.1213 24.6416 35.2362 24.6091C35.5951 24.5149 35.9349 24.4315 36.2454 24.3669H36.2567H36.2675C36.9777 24.2333 37.6983 24.1614 38.4211 24.152C39.5739 24.152 40.43 24.3888 41.0372 24.8766C41.6761 25.3893 42.0004 25.9849 42.0004 26.6479C42.0004 27.0386 41.8209 27.5306 41.4458 28.1972C41.0163 28.9543 39.9317 29.4125 38.0317 29.6381L38.0048 29.641H37.9773C37.7643 29.6481 37.5549 29.6517 37.3551 29.6517C35.0848 29.6517 33.4343 29.1467 32.4382 28.1504C31.1156 28.6358 29.7701 29.0911 28.4301 29.5061C26.91 29.9773 25.5299 30.2171 24.3334 30.2171ZM37.2911 26.5467C37.4107 26.552 37.522 26.555 37.6243 26.555C37.9107 26.5619 38.1961 26.5205 38.4684 26.4324C38.4301 26.4289 38.3858 26.4265 38.3356 26.4265C38.2853 26.4265 38.2213 26.4294 38.1609 26.4342H38.1346H38.1083C37.8065 26.4388 37.5059 26.4729 37.2109 26.536L37.2911 26.5467Z" fill="#070707"/>
<path d="M9.75527 24.3901C8.49899 24.3901 7.69676 23.7697 7.48618 22.665C7.26205 22.916 7.03611 23.1479 6.80839 23.3606C6.07915 24.0438 5.34273 24.3901 4.62006 24.3901C3.11791 24.3901 2.25586 23.5512 2.25586 22.0896C2.25586 22.0102 2.25945 21.9268 2.26603 21.8397C2.27082 20.3923 2.67641 18.7353 3.47266 16.9137C4.25933 15.1135 4.87371 13.8353 5.3499 13.0065L5.52937 12.6934H5.89369C6.46141 12.6959 7.01786 12.8504 7.50413 13.1403C7.77507 13.2916 8.01176 13.4962 8.19955 13.7416C8.38734 13.987 8.52224 14.268 8.5959 14.567L8.65034 14.7766L8.5612 14.9743C8.20226 15.7635 7.82119 16.6675 7.42097 17.6626C7.11524 18.4058 6.8569 19.1672 6.64746 19.9424C6.69413 19.8719 6.74438 19.7956 6.79822 19.7115C7.30133 18.9224 7.84751 17.9912 8.42121 16.9427C9.0003 15.8842 9.52136 14.9128 9.97123 14.055L9.97901 14.0408C10.2183 13.6163 10.3924 13.283 10.5043 13.0492L10.6741 12.694H11.0702C11.6381 12.6965 12.1947 12.851 12.6812 13.1409C12.7147 13.1604 12.7482 13.1806 12.7805 13.2001C12.5358 12.9946 12.327 12.7506 12.1625 12.4779C11.7821 11.848 11.5894 11.1921 11.5894 10.5243C11.5915 10.1219 11.6577 9.72227 11.7857 9.34028C12.0656 8.42209 12.5849 7.71169 13.3285 7.22862C14.0464 6.76213 14.8157 6.51822 15.6101 6.50224H15.6365H15.6634C18.0126 6.6532 19.4257 7.76024 19.7912 9.71975C21.0151 9.30891 22.2936 8.84951 23.6019 8.34987C25.2117 7.74248 26.733 7.20672 28.1257 6.75621L28.1401 6.75147L28.1544 6.74733C29.4263 6.41344 30.6251 6.23584 31.7163 6.23584H31.7372H31.7582C34.3557 6.40811 36.0134 7.26533 36.6846 8.78499L36.6924 8.80334L36.6995 8.82169C36.9442 9.48887 37.0627 10.0566 37.0627 10.5574C37.0627 11.0044 36.9215 11.4738 36.6439 11.9516C36.3304 12.4903 35.8064 12.8431 35.0945 12.9988C34.8487 13.0583 34.5968 13.0897 34.3437 13.0924C34.0041 13.0994 33.6686 13.0177 33.371 12.8556L33.0557 12.678V12.2399C33.0557 11.5999 32.6567 11.047 31.8347 10.5509C31.2718 10.2087 30.5114 10.0359 29.574 10.0359C28.9377 10.0424 28.3032 10.1036 27.6776 10.2188C25.6831 10.6924 23.834 11.3643 22.1805 12.2138L22.1709 12.2186L22.1614 12.2227C21.2443 12.6561 20.3439 13.0409 19.4819 13.3688C19.0099 14.7559 18.2543 16.2661 17.2319 17.8633C16.1414 19.5665 14.9264 21.0749 13.6216 22.3459C12.2098 23.7217 10.9577 24.3907 9.79296 24.3907L9.75527 24.3901ZM13.0533 13.4061C13.4082 13.7119 13.6558 14.1213 13.7604 14.5753L13.8107 14.779L13.7257 14.9708C13.374 15.7629 12.9953 16.668 12.5993 17.6608C12.2885 18.4217 12.0269 19.2013 11.8162 19.9951C12.1865 19.5404 12.6537 18.8573 13.2202 17.8331C13.9495 16.5206 14.504 15.2384 14.8731 14.01C14.1481 13.9283 13.5397 13.7264 13.0533 13.4061ZM14.5136 10.4888C14.6255 10.6255 14.8348 10.7794 15.3146 10.7794C15.3852 10.7794 15.4606 10.7759 15.5396 10.7682C15.551 10.6699 15.557 10.5711 15.5575 10.4722C15.5575 9.89084 15.3487 9.85946 15.1806 9.83401H15.1734H15.1567C15.0416 9.8393 14.9282 9.8633 14.8211 9.90505C14.7294 9.945 14.6487 10.0059 14.5854 10.0826C14.5465 10.1815 14.521 10.285 14.5094 10.3905V10.4153C14.5091 10.4399 14.5105 10.4644 14.5136 10.4888V10.4888Z" fill="#070707"/>
<path d="M21.0234 24.3812C19.919 24.3812 19.0343 24.1124 18.3912 23.5826C17.7373 23.0427 17.3467 22.2446 17.23 21.2146C17.1946 20.8899 17.1768 20.5637 17.1768 20.2372C17.1768 18.6921 17.6476 17.0593 18.5772 15.3828C19.5733 13.5872 21.0072 12.6768 22.839 12.6768C23.5946 12.6768 24.3035 12.9668 24.9466 13.5393C25.5574 14.0934 25.8648 14.8885 25.8648 15.9073C25.8648 16.0168 25.8613 16.1293 25.8535 16.2412V16.256V16.2702C25.7514 17.1931 25.4378 18.0808 24.9364 18.8655C25.3796 18.2321 25.7849 17.5734 26.1502 16.893L26.3297 16.568H28.6502L28.2913 17.4264C27.3981 19.5451 26.2687 21.24 24.9346 22.4643C23.5228 23.7536 22.245 24.3812 21.0234 24.3812ZM22.1486 17.6874C22.1128 17.7898 22.0888 17.8763 22.0691 17.9485C22.1122 17.9118 22.16 17.8686 22.2133 17.8177C22.4221 17.595 22.5897 17.3377 22.7086 17.0575C22.7851 16.8914 22.8501 16.7204 22.903 16.5455C22.635 16.7888 22.3814 17.173 22.1486 17.6874V17.6874Z" fill="#070707"/>
<path d="M24.0815 29.9697C21.1322 29.9697 20.1726 28.5241 19.8867 27.3117L19.8801 27.2838L19.8765 27.2554C19.847 27.0493 19.8318 26.8414 19.8311 26.6332C19.8311 25.7589 20.1385 25.0348 20.7451 24.4861C21.2666 24.0124 21.9518 23.7547 22.6595 23.7662C22.9841 23.7691 23.3072 23.8115 23.6214 23.8923L24.0217 23.9912L24.0875 24.3943C24.1383 24.7057 24.2735 25.5333 26.1394 25.6334C26.408 25.6458 26.6874 25.6523 26.9649 25.6523C28.0675 25.6523 29.2903 25.5339 30.607 25.2971C30.3213 24.5397 30.1764 23.7375 30.1792 22.9291C30.1792 22.5366 30.2498 21.889 30.394 20.9501C30.537 20.0218 30.8128 18.9598 31.207 17.7941C31.3727 17.2613 31.4971 16.8108 31.5785 16.4491C31.2985 16.6338 30.991 16.9736 30.6811 17.4484C30.0867 18.3641 29.6474 19.3697 29.3806 20.4255C29.2575 20.8624 29.191 21.313 29.1826 21.7664C29.1735 22.1278 29.2467 22.4865 29.3967 22.816L29.5906 23.2127L29.2741 23.5223C28.6932 24.0965 27.9999 24.3878 27.2114 24.3878C25.7027 24.3878 24.8376 23.5489 24.8376 22.0873C24.8376 22.0026 24.8412 21.9126 24.8484 21.8203C24.948 20.1885 25.3325 18.5861 25.985 17.0843C26.6269 15.5842 27.2587 14.2788 27.8569 13.2091C27.8982 13.1345 27.9424 13.0581 27.9861 12.9859L28.1656 12.6846H28.5209C29.0384 12.6846 29.59 12.829 30.1601 13.1126C30.4581 13.2567 30.7243 13.4579 30.9432 13.7046C31.737 13.0285 32.5799 12.6863 33.4557 12.6863C35.9336 12.6863 36.3039 13.9568 36.3039 14.7134C36.3039 14.737 36.3039 14.7631 36.274 15.5386C36.2507 16.1259 35.9749 17.1109 35.397 18.6389C34.9936 19.7593 34.6792 20.9091 34.4566 22.0778C34.4022 22.3849 34.3758 22.6961 34.3776 23.0078C34.3748 23.5018 34.4617 23.9923 34.6342 24.4559C34.7539 24.4263 34.8735 24.3967 34.9884 24.3647C35.3473 24.27 35.6871 24.1871 35.9982 24.122H36.009H36.0203C36.7305 23.9884 37.4511 23.9164 38.174 23.9071C39.3268 23.9071 40.1828 24.1439 40.7906 24.6317C41.4289 25.1444 41.7532 25.7399 41.7532 26.403C41.7532 26.7937 41.5737 27.2856 41.1992 27.9522C40.7691 28.71 39.6845 29.1676 37.7845 29.3931H37.7576H37.7301C37.5171 29.3997 37.3077 29.4032 37.1079 29.4032C34.8382 29.4032 33.1871 28.8982 32.1911 27.9019C30.869 28.3873 29.5236 28.8426 28.1859 29.2576C26.6604 29.73 25.2779 29.9697 24.0815 29.9697ZM37.0397 26.2994C37.1594 26.3053 37.27 26.3076 37.3723 26.3076C37.6586 26.3147 37.944 26.2737 38.2164 26.1863C38.1723 26.182 38.128 26.18 38.0836 26.1804C38.028 26.1804 37.9694 26.1804 37.909 26.1875H37.8826H37.8563C37.5555 26.1922 37.256 26.2263 36.962 26.2893C36.9877 26.2934 37.0134 26.2958 37.0397 26.2982V26.2994Z" fill="#070707"/>
<path d="M9.50369 24.1428C8.24741 24.1428 7.44518 23.523 7.23461 22.4177C7.01047 22.6687 6.78454 22.9006 6.55681 23.1133C5.82757 23.7965 5.09115 24.1428 4.36909 24.1428C2.86633 24.1428 2.00488 23.3045 2.00488 21.8423C2.00488 21.7629 2.00787 21.6795 2.01445 21.593C2.01924 20.1456 2.42484 18.488 3.22108 16.6664C4.00836 14.8662 4.62214 13.588 5.09833 12.7592L5.2778 12.4461H5.64212C6.20984 12.4487 6.76628 12.6031 7.25255 12.893C7.52292 13.0444 7.75908 13.249 7.94644 13.4941C8.13381 13.7393 8.2684 14.0199 8.34193 14.3186L8.39697 14.5287L8.30723 14.7264C7.9483 15.515 7.56722 16.419 7.16701 17.4141C6.86127 18.1573 6.60293 18.9187 6.3935 19.6939C6.44076 19.6241 6.49041 19.5471 6.54425 19.463C7.04796 18.6739 7.59355 17.7427 8.16725 16.6943C8.74633 15.6358 9.26799 14.6643 9.71726 13.8065L9.72504 13.7923C9.96433 13.3684 10.1384 13.0345 10.2503 12.8007L10.4202 12.4455H10.8162C11.3841 12.448 11.9408 12.6024 12.4272 12.8924C12.4613 12.912 12.4942 12.9327 12.5271 12.9516C12.2821 12.7463 12.0731 12.5023 11.9086 12.2294C11.5281 11.5995 11.3355 10.9436 11.3355 10.2788C11.3377 9.87631 11.4041 9.47672 11.5323 9.09477C11.8117 8.17658 12.3309 7.46677 13.0745 6.9837C13.7924 6.51661 14.5617 6.2733 15.3562 6.25672H15.3831H15.4094C17.7587 6.40768 19.1717 7.51472 19.5372 9.47424C20.7612 9.06339 22.0396 8.604 23.3479 8.10435C24.9578 7.49755 26.4791 6.9612 27.8717 6.51069L27.8861 6.50596L27.9005 6.50181C29.1735 6.15668 30.3717 5.98145 31.4629 5.98145H31.4838H31.5048C34.1029 6.15372 35.76 7.01152 36.4312 8.53059L36.4396 8.54894L36.4462 8.5673C36.6908 9.23507 36.8093 9.8028 36.8093 10.303C36.8093 10.7506 36.6687 11.2194 36.3905 11.6972C36.0771 12.2365 35.556 12.5887 34.8417 12.745C34.5956 12.8042 34.3436 12.8356 34.0903 12.8386C33.7507 12.8455 33.4152 12.7639 33.1176 12.6018L32.8024 12.4242V11.9861C32.8024 11.3461 32.4033 10.7932 31.582 10.2971C31.0184 9.95494 30.2581 9.78208 29.3207 9.78208C28.6846 9.78857 28.0502 9.84977 27.4249 9.96501C25.4304 10.4386 23.5806 11.1105 21.9271 11.96L21.9176 11.9648L21.908 11.9695C20.9909 12.4023 20.0906 12.7871 19.2285 13.1156C18.7565 14.5021 18.0009 16.0123 16.9786 17.6095C15.888 19.3127 14.673 20.8211 13.3683 22.0921C11.9564 23.4679 10.7049 24.1369 9.53959 24.1369L9.50369 24.1428ZM12.8017 13.1588C13.1566 13.4648 13.4043 13.8741 13.5094 14.328L13.5591 14.5317L13.4741 14.7235C13.1224 15.5162 12.7437 16.4208 12.3477 17.4135C12.0368 18.1746 11.7752 18.9544 11.5646 19.7484C11.9349 19.2931 12.4021 18.6106 12.9686 17.5858C13.6985 16.2739 14.2524 14.9911 14.6221 13.7627C13.8965 13.681 13.2881 13.4791 12.8017 13.1588V13.1588ZM14.262 10.2415C14.3739 10.3782 14.5833 10.5321 15.063 10.5321C15.1342 10.5321 15.209 10.5286 15.288 10.5209C15.2995 10.4226 15.3054 10.3238 15.3059 10.2249C15.3059 9.64355 15.0971 9.61217 14.929 9.58672H14.9219C14.9163 9.58617 14.9107 9.58617 14.9051 9.58672C14.7901 9.59177 14.6767 9.61557 14.5695 9.65717C14.4779 9.69712 14.3971 9.75798 14.3338 9.83477C14.2949 9.93363 14.2694 10.0371 14.2578 10.1426V10.1675C14.2575 10.1922 14.2589 10.2169 14.262 10.2415V10.2415Z" fill="#070707"/>
<path d="M20.7714 24.1322C19.6671 24.1322 18.7823 23.8635 18.1392 23.333C17.4853 22.7931 17.0947 21.9951 16.978 20.965C16.9426 20.6404 16.9249 20.3142 16.9248 19.9877C16.9248 18.4425 17.3956 16.8098 18.3253 15.1333C19.3213 13.3377 20.7553 12.4272 22.5871 12.4272C23.3426 12.4272 24.0515 12.7173 24.6946 13.2898C25.3054 13.8439 25.6129 14.6389 25.6129 15.6578C25.6129 15.7673 25.6093 15.8798 25.6015 15.9917V16.0035V16.0177C25.4998 16.9407 25.1861 17.8284 24.6844 18.613C25.1282 17.9797 25.5339 17.3211 25.8994 16.6405L26.0789 16.3155H28.3971L28.0381 17.1739C27.145 19.2927 26.0155 20.9875 24.6815 22.2118C23.2714 23.5041 21.996 24.1322 20.7714 24.1322ZM21.8973 17.4385C21.8614 17.5403 21.8375 17.6268 21.8171 17.699C21.8602 17.6623 21.9087 17.6191 21.9613 17.5688C22.1703 17.346 22.338 17.0885 22.4566 16.808C22.5343 16.6433 22.6003 16.4734 22.6541 16.2995C22.3831 16.5393 22.1294 16.9235 21.8973 17.4385Z" fill="#070707"/>
<path d="M23.8305 29.7227C20.8812 29.7227 19.9217 28.2776 19.6357 27.0646L19.6291 27.0368L19.6255 27.0084C19.5963 26.8022 19.5811 26.5944 19.5801 26.3862C19.5801 25.5118 19.8876 24.7878 20.4942 24.239C21.0158 23.7656 21.7008 23.508 22.4085 23.5192C22.7329 23.5224 23.0558 23.5648 23.3699 23.6452L23.7701 23.7441L23.8359 24.1473C23.8867 24.4592 24.0219 25.2863 25.8878 25.3863C26.157 25.3987 26.4364 25.4053 26.7134 25.4053C27.8165 25.4053 29.0387 25.2869 30.3554 25.0501C30.0699 24.2927 29.9252 23.4904 29.9283 22.6821C29.9283 22.289 29.9982 21.6413 30.1424 20.7024C30.2854 19.7742 30.5612 18.7121 30.9554 17.5471C31.1217 17.0143 31.2462 16.5632 31.3269 16.2015C31.0469 16.3862 30.7395 16.726 30.4296 17.2008C29.8353 18.1165 29.396 19.1221 29.129 20.1779C29.006 20.6148 28.9394 21.0653 28.931 21.5188C28.9219 21.8801 28.9951 22.2389 29.1452 22.5684L29.339 22.965L29.0243 23.2764C28.444 23.8507 27.7501 24.1419 26.9616 24.1419C25.4529 24.1419 24.5879 23.3037 24.5879 21.8414C24.5879 21.7568 24.5914 21.6674 24.5992 21.5744C24.6985 19.9426 25.0831 18.3402 25.7359 16.8384C26.3796 15.3342 27.0107 14.0288 27.6119 12.9585C27.6526 12.8839 27.6969 12.8075 27.7405 12.7353L27.92 12.4346H28.2753C28.7928 12.4346 29.3444 12.5784 29.9145 12.862C30.2125 13.0061 30.4787 13.2073 30.6976 13.454C31.4914 12.7779 32.3343 12.4363 33.2101 12.4363C35.6886 12.4363 36.0583 13.7062 36.0583 14.4634C36.0583 14.4864 36.0583 14.5125 36.0284 15.288C36.0057 15.8753 35.7293 16.8604 35.1514 18.3883C34.748 19.5088 34.4335 20.6588 34.211 21.8278C34.1537 22.1352 34.1243 22.447 34.123 22.7596C34.1203 23.2536 34.2072 23.7441 34.3797 24.2076C34.4993 24.178 34.619 24.1484 34.7338 24.1159C35.0928 24.0212 35.4332 23.9383 35.7436 23.8738H35.7544H35.7658C36.476 23.7401 37.1966 23.6682 37.9194 23.6589C39.0716 23.6589 39.9277 23.8957 40.5355 24.3835C41.1744 24.8961 41.498 25.4923 41.498 26.1547C41.498 26.5455 41.3221 27.038 40.9441 27.704C40.5139 28.4618 39.4293 28.9194 37.53 29.1449L37.5024 29.1479H37.4749C37.262 29.1544 37.0526 29.1579 36.8528 29.1579C34.5831 29.1579 32.9326 28.6536 31.9359 27.6566C30.6138 28.1421 29.2684 28.5979 27.9278 29.0123C26.4077 29.4829 25.027 29.7227 23.8305 29.7227ZM36.7887 26.0523C36.9084 26.0582 37.0191 26.0612 37.1214 26.0612C37.4082 26.0676 37.694 26.0257 37.9667 25.9375C37.9223 25.9332 37.8778 25.9312 37.8333 25.9315C37.7776 25.9315 37.719 25.9315 37.6586 25.9392H37.6329H37.6077C37.3059 25.9438 37.0054 25.9779 36.7104 26.0411C36.7367 26.0464 36.763 26.0488 36.7887 26.0511V26.0523Z" fill="#070707"/>
<path d="M9.25467 23.893C7.99839 23.893 7.19676 23.2732 6.98558 22.1679C6.76145 22.4189 6.53571 22.6508 6.30839 22.8635C5.57855 23.5467 4.84273 23.893 4.12006 23.893C2.61731 23.893 1.75586 23.0547 1.75586 21.5925C1.75586 21.5131 1.75885 21.4297 1.76543 21.3432C1.77022 19.8958 2.17582 18.2382 2.97206 16.4166C3.75933 14.6164 4.37311 13.3382 4.8493 12.5094L5.02877 12.1963H5.3931C5.961 12.1989 6.51763 12.3533 7.00413 12.6432C7.2743 12.7948 7.5103 12.9995 7.69763 13.2446C7.88496 13.4898 8.01968 13.7702 8.0935 14.0688L8.14794 14.2789L8.05821 14.4767C7.70226 15.2652 7.3182 16.1692 6.91798 17.1643C6.61209 17.9079 6.35355 18.6697 6.14387 19.4453C6.19133 19.3754 6.24158 19.2985 6.29463 19.2144C6.79834 18.4259 7.34452 17.4941 7.91762 16.4456C8.49671 15.3871 9.01837 14.4157 9.46764 13.5579L9.47542 13.5437C9.71471 13.1198 9.88879 12.7859 10.0007 12.5521L10.1706 12.1969H10.5708C11.1385 12.1995 11.6949 12.3539 12.1812 12.6438C12.2153 12.6634 12.2482 12.6841 12.2811 12.703C12.0361 12.4977 11.8271 12.2536 11.6625 11.9808C11.2821 11.3509 11.0894 10.695 11.0894 10.0272C11.0917 9.62474 11.1581 9.22515 11.2863 8.8432C11.5662 7.9256 12.0849 7.2152 12.8291 6.73213C13.547 6.26504 14.3157 6.02173 15.1107 6.00516H15.1371H15.1634C17.5126 6.15611 18.9257 7.26374 19.2912 9.22267C20.5145 8.81241 21.793 8.35243 23.1013 7.85337C24.7111 7.24598 26.2324 6.70963 27.6251 6.25912L27.6395 6.25439L27.6538 6.25083C28.9269 5.90511 30.1251 5.73047 31.2169 5.73047H31.2378H31.2588C33.8563 5.90274 35.5134 6.76055 36.1846 8.27961L36.193 8.29797L36.1995 8.31691C36.4442 8.98409 36.5633 9.55182 36.5633 10.0526C36.5633 10.4996 36.4221 10.9685 36.1445 11.4462C35.8304 11.9855 35.307 12.3378 34.5951 12.4941C34.3488 12.5568 34.0961 12.5914 33.8419 12.5971C33.5023 12.604 33.1668 12.5224 32.8692 12.3603L32.5539 12.1827V11.7404C32.5539 11.0999 32.1549 10.5476 31.3335 10.0509C30.77 9.70929 30.0102 9.53584 29.0728 9.53584C28.4365 9.54232 27.802 9.60353 27.1764 9.71876C25.1819 10.1924 23.3322 10.8643 21.6787 11.7138L21.6691 11.7185L21.6602 11.7233C20.7425 12.156 19.8427 12.5414 18.9801 12.8694C18.5093 14.2582 17.7531 15.769 16.7325 17.3644C15.642 19.0676 14.4276 20.576 13.1228 21.8476C11.7104 23.2234 10.4589 23.8918 9.29415 23.8918L9.25467 23.893ZM12.5527 12.909C12.9085 13.2146 13.1571 13.624 13.2628 14.0782L13.3125 14.2819L13.2275 14.4737C12.8758 15.2664 12.4971 16.1715 12.101 17.1637C11.7902 17.9248 11.5286 18.7046 11.318 19.4986C11.6883 19.0433 12.1555 18.3608 12.7226 17.336C13.4518 16.0241 14.0058 14.7413 14.3755 13.5129C13.6485 13.432 13.0409 13.2307 12.5527 12.909ZM14.013 9.99227C14.1249 10.1284 14.3342 10.2823 14.814 10.2823C14.8852 10.2823 14.96 10.2788 15.0395 10.2717C15.0505 10.1734 15.0563 10.0746 15.0569 9.97569C15.0569 9.39435 14.8481 9.36297 14.6806 9.33752H14.6734H14.6561C14.5411 9.34257 14.4277 9.36637 14.3205 9.40796C14.229 9.44813 14.1482 9.50895 14.0848 9.58556C14.0459 9.68443 14.0204 9.78793 14.0088 9.8934V9.91827C14.0088 9.94299 14.0102 9.9677 14.013 9.99227V9.99227Z" fill="#070707"/>
<path d="M20.5181 23.8852C19.4138 23.8852 18.529 23.6164 17.8859 23.0866C17.232 22.5461 16.8408 21.7481 16.7241 20.7186C16.689 20.3937 16.6713 20.0673 16.6709 19.7406C16.6709 18.1955 17.1423 16.5627 18.0714 14.8862C19.068 13.0907 20.502 12.1802 22.3331 12.1802C23.0887 12.1802 23.7982 12.4708 24.4407 13.0427C25.0515 13.5968 25.359 14.3919 25.359 15.4107C25.359 15.5196 25.3554 15.6321 25.3482 15.744V15.7588V15.773C25.2465 16.6959 24.933 17.5836 24.4317 18.3683C24.8739 17.7342 25.2782 17.0749 25.6425 16.394L25.822 16.069H28.1431L27.7842 16.9274C26.8911 19.0462 25.7616 20.7411 24.4281 21.9659C23.0181 23.2571 21.7403 23.8852 20.5181 23.8852ZM21.644 17.1914C21.6081 17.2933 21.5842 17.3797 21.5638 17.4525C21.6069 17.4152 21.6553 17.372 21.7086 17.3217C21.9173 17.0988 22.0848 16.8413 22.2033 16.561C22.2801 16.3952 22.3451 16.2243 22.3978 16.0495C22.1297 16.2928 21.8737 16.6764 21.644 17.1914V17.1914Z" fill="#070707"/>
<path d="M23.5795 29.4743C20.6308 29.4743 19.6707 28.0286 19.3853 26.8156L19.3788 26.7878L19.3746 26.7594C19.3453 26.5534 19.3301 26.3457 19.3291 26.1378C19.3291 25.2628 19.6366 24.5394 20.2432 23.99C20.7649 23.5167 21.4499 23.2591 22.1575 23.2701C22.4822 23.2733 22.8052 23.3156 23.1195 23.3962L23.5197 23.4957L23.5855 23.8988C23.6364 24.2102 23.7716 25.0372 25.638 25.1373C25.9066 25.1497 26.186 25.1562 26.463 25.1562C27.5661 25.1562 28.7883 25.0378 30.105 24.801C29.8198 24.0436 29.6751 23.2414 29.6779 22.433C29.6779 22.04 29.7479 21.3923 29.892 20.4534C30.035 19.5251 30.3108 18.4631 30.7056 17.298C30.8713 16.7652 30.9958 16.3141 31.0765 15.9524C30.7972 16.1371 30.4897 16.4775 30.1792 16.9517C29.5852 17.8676 29.1459 18.8732 28.8786 19.9289C28.7558 20.3658 28.6895 20.8163 28.6812 21.2698C28.6719 21.6311 28.7449 21.9898 28.8948 22.3194L29.0886 22.716L28.774 23.0274C28.1937 23.6016 27.4997 23.8929 26.7119 23.8929C25.2031 23.8929 24.3375 23.0546 24.3375 21.5924C24.3375 21.5083 24.3411 21.4184 24.3488 21.3254C24.4481 19.6936 24.8327 18.0912 25.4855 16.5894C26.1292 15.0852 26.7603 13.7798 27.3615 12.7095C27.4022 12.6349 27.4465 12.5585 27.4902 12.4869L27.6726 12.1855H28.0274C28.5454 12.1855 29.097 12.3294 29.6665 12.613C29.9646 12.7571 30.2307 12.9583 30.4496 13.205C31.2434 12.5289 32.0863 12.1873 32.9622 12.1873C35.4406 12.1873 35.8103 13.4572 35.8103 14.2143C35.8103 14.2374 35.8103 14.2635 35.7804 15.0396C35.7577 15.6262 35.4813 16.6119 34.9034 18.1399C34.4999 19.2602 34.1855 20.41 33.963 21.5788C33.9057 21.8862 33.8763 22.198 33.8751 22.5106C33.8722 23.0046 33.9593 23.4952 34.1323 23.9586C34.2519 23.929 34.3716 23.8994 34.4859 23.8669C34.8448 23.7721 35.1852 23.6893 35.4957 23.6247H35.5064H35.5178C36.228 23.4911 36.9486 23.4192 37.6714 23.4098C38.8242 23.4098 39.6797 23.6466 40.2875 24.1344C40.9264 24.6471 41.25 25.2433 41.25 25.9057C41.25 26.2964 41.0742 26.789 40.6961 27.4556C40.2665 28.2127 39.1814 28.6703 37.282 28.8959L37.2545 28.8994H37.2269C37.014 28.906 36.8082 28.9095 36.6048 28.9095C34.3351 28.9095 32.6846 28.4051 31.6879 27.4082C30.3658 27.8936 29.0204 28.3495 27.6828 28.7639C26.1567 29.2345 24.7766 29.4743 23.5795 29.4743ZM36.5378 25.8039C36.6574 25.8098 36.7681 25.8128 36.871 25.8128C37.1573 25.8194 37.4427 25.778 37.7151 25.6902C37.6762 25.6867 37.6325 25.6843 37.5817 25.6843C37.5308 25.6843 37.4674 25.6843 37.4076 25.692H37.3813H37.355C37.0532 25.6963 36.7526 25.7304 36.4576 25.7938C36.4857 25.7974 36.5121 25.8003 36.5378 25.8021V25.8039Z" fill="#070707"/>
<path d="M9.00272 23.647C7.74643 23.647 6.94481 23.0266 6.73363 21.9213C6.50949 22.1723 6.28376 22.4042 6.05643 22.6169C5.32659 23.3001 4.59077 23.647 3.86811 23.647C2.36536 23.647 1.50391 22.8081 1.50391 21.3459C1.50391 21.2672 1.5069 21.1831 1.51348 21.0967C1.51826 19.6492 1.92446 17.9916 2.72071 16.1701C3.50738 14.3698 4.12116 13.0917 4.59735 12.2629L4.77682 11.9491H5.14055C5.70846 11.9516 6.26512 12.1061 6.75158 12.3961C7.0219 12.5476 7.258 12.7523 7.44535 12.9976C7.63271 13.2429 7.76734 13.5235 7.84096 13.8222L7.89539 14.0318L7.80626 14.2295C7.44732 15.018 7.06625 15.9226 6.66603 16.9172C6.36038 17.6617 6.10224 18.4245 5.89312 19.2011C5.94058 19.1305 5.99083 19.0533 6.04387 18.9696C6.54758 18.1811 7.09377 17.2493 7.66687 16.2009C8.24596 15.143 8.76761 14.1709 9.21688 13.3137L9.22466 13.2995C9.46395 12.875 9.63804 12.5411 9.7499 12.3073L9.9198 11.9521H10.3164C10.8841 11.9547 11.4406 12.1091 11.9269 12.399C11.961 12.4192 11.9945 12.4393 12.0268 12.4582C11.7814 12.2532 11.5719 12.0093 11.407 11.7366C11.0265 11.1073 10.8339 10.4508 10.8339 9.78595C10.8362 9.3835 10.9026 8.98392 11.0307 8.60196C11.3107 7.68436 11.8294 6.97396 12.5735 6.49089C13.2914 6.0238 14.0602 5.78049 14.8552 5.76391H14.8815H14.9078C17.2577 5.91487 18.6701 7.02251 19.0356 8.98202C20.2596 8.57117 21.5374 8.11178 22.8458 7.61213C24.4592 7.00593 25.9799 6.47313 27.3726 6.02084L27.3869 6.0167L27.4019 6.01255C28.6743 5.66742 29.8732 5.49219 30.9643 5.49219H30.9853H31.0062C33.6037 5.66446 35.2608 6.52227 35.932 8.04133L35.9404 8.05969L35.947 8.07863C36.1917 8.74581 36.3107 9.31354 36.3107 9.81437C36.3107 10.2613 36.1695 10.7302 35.8919 11.2085C35.5779 11.7472 35.0544 12.0965 34.3425 12.2558C34.0965 12.3153 33.8444 12.3466 33.5912 12.3493C33.2517 12.3564 32.9164 12.2747 32.619 12.1125L32.3032 11.9349V11.4974C32.3032 10.8569 31.9041 10.3045 31.0828 9.80845C30.5192 9.46628 29.7595 9.29341 28.8221 9.29341C28.1858 9.29968 27.5513 9.36069 26.9257 9.47575C24.9312 9.94935 23.0815 10.6213 21.4279 11.4708L21.419 11.4755L21.4094 11.4803C20.4917 11.9136 19.592 12.2984 18.7293 12.6264C18.2579 14.0134 17.5018 15.5236 16.4794 17.1202C15.3888 18.824 14.1744 20.3318 12.8697 21.6034C11.4573 22.9792 10.2058 23.6482 9.041 23.6482L9.00272 23.647ZM12.3008 12.6625C12.6557 12.9684 12.9034 13.3777 13.0085 13.8317L13.0587 14.0353L12.9732 14.2283C12.622 15.021 12.2427 15.9262 11.8467 16.9184C11.5362 17.6794 11.2748 18.4593 11.0642 19.2532C11.4339 18.7985 11.9017 18.1154 12.4683 17.0912C13.1975 15.7788 13.7521 14.4959 14.1212 13.2681C13.3957 13.1856 12.7889 12.9837 12.3008 12.6625ZM13.761 9.7457C13.8735 9.88186 14.0823 10.0358 14.5621 10.0358C14.6333 10.0358 14.708 10.0322 14.7876 10.0251C14.7986 9.92682 14.8043 9.82802 14.8049 9.72912C14.8049 9.14778 14.5962 9.1164 14.4287 9.09095H14.4215H14.4041C14.2891 9.096 14.1757 9.1198 14.0685 9.1614C13.9769 9.20145 13.8962 9.26229 13.8328 9.339C13.7941 9.43791 13.7686 9.54139 13.7568 9.64683V9.66992C13.7568 9.69524 13.7582 9.72054 13.761 9.7457V9.7457Z" fill="#070707"/>
<path d="M20.2691 23.6372C19.1654 23.6372 18.28 23.3684 17.6369 22.8386C16.983 22.2981 16.5918 21.5006 16.4751 20.4676C16.44 20.1428 16.4222 19.8163 16.4219 19.4896C16.4219 17.9445 16.8933 16.3124 17.8223 14.6352C18.819 12.8397 20.2529 11.9292 22.0841 11.9292C22.8403 11.9292 23.5492 12.2199 24.1917 12.7923C24.8025 13.3464 25.1106 14.1409 25.1106 15.1603C25.1106 15.2693 25.1064 15.3817 25.0992 15.4942V15.5084V15.5232C24.9974 16.4459 24.6839 17.3334 24.1827 18.118C24.6263 17.4846 25.0318 16.8259 25.3971 16.1454L25.5766 15.8204H27.8971L27.5352 16.6788C26.642 18.7976 25.5132 20.4931 24.1791 21.7173C22.7691 23.009 21.4913 23.6372 20.2691 23.6372ZM21.3968 16.9434C21.3609 17.0453 21.3369 17.1317 21.3166 17.2045C21.3597 17.1672 21.4081 17.124 21.4614 17.0737C21.6703 16.8508 21.838 16.5933 21.9567 16.313C22.0331 16.147 22.098 15.9761 22.1511 15.8015C21.8807 16.0448 21.6271 16.4284 21.3968 16.9434Z" fill="#070707"/>
<path d="M23.3315 29.2252C20.3828 29.2252 19.4232 27.7796 19.1373 26.5666L19.1307 26.5388L19.1265 26.5103C19.0972 26.3044 19.0821 26.0967 19.0811 25.8887C19.0811 25.0138 19.3885 24.2904 19.9951 23.741C20.5168 23.2677 21.2018 23.0101 21.9095 23.0211C22.2341 23.0243 22.5572 23.0666 22.8714 23.1472L23.2717 23.2467L23.3381 23.6498C23.3889 23.9612 23.5241 24.7888 25.39 24.8889C25.6586 24.9007 25.938 24.9072 26.2149 24.9072C27.3181 24.9072 28.5403 24.7888 29.857 24.552C29.5718 23.7945 29.4271 22.9924 29.4298 22.184C29.4298 21.7909 29.4998 21.1439 29.6446 20.205C29.787 19.2761 30.0604 18.2147 30.4576 17.049C30.6233 16.5162 30.7477 16.0657 30.8285 15.704C30.5491 15.8887 30.2416 16.2285 29.9311 16.7027C29.337 17.6188 28.8977 18.6245 28.6306 19.6805C28.5077 20.1173 28.4413 20.5679 28.4332 21.0213C28.4238 21.3827 28.497 21.7415 28.6473 22.0709L28.8406 22.467L28.5259 22.7784C27.9456 23.3532 27.2517 23.6445 26.4638 23.6445C24.9551 23.6445 24.0894 22.8056 24.0894 21.3434C24.0894 21.2593 24.093 21.1693 24.1008 21.0764C24.2007 19.4446 24.5852 17.8423 25.2374 16.3404C25.8817 14.8361 26.5129 13.5308 27.1135 12.4604C27.1542 12.3864 27.1984 12.3101 27.2421 12.2379L27.4216 11.9365H27.7763C28.2944 11.9365 28.846 12.0804 29.4155 12.3639C29.7136 12.5082 29.9799 12.7094 30.1992 12.9559C30.9924 12.2793 31.8359 11.9377 32.7117 11.9377C35.1902 11.9377 35.5599 13.2075 35.5599 13.9647C35.5599 13.9878 35.5599 14.0138 35.53 14.79C35.5072 15.3772 35.2309 16.3623 34.6536 17.8903C34.2498 19.0111 33.9354 20.1615 33.7132 21.3309C33.6559 21.6383 33.6265 21.9502 33.6252 22.2628C33.6223 22.7568 33.7095 23.2473 33.8825 23.7108C34.0021 23.6812 34.1201 23.6506 34.2366 23.619C34.5955 23.5243 34.9353 23.4414 35.2458 23.3769H35.2572H35.2679C35.9781 23.2431 36.6987 23.171 37.4216 23.1614C38.5744 23.1614 39.4298 23.3982 40.0376 23.8866C40.6765 24.3987 41.0002 24.9948 41.0002 25.6579C41.0002 26.048 40.8243 26.5405 40.4462 27.2071C40.0167 27.9643 38.9315 28.4219 37.0321 28.6475L37.0046 28.651H36.9771C36.7647 28.6581 36.5553 28.6611 36.3549 28.6611C34.0853 28.6611 32.4347 28.1567 31.4387 27.1598C30.116 27.6458 28.7706 28.101 27.4305 28.5154C25.9086 28.9855 24.5285 29.2252 23.3315 29.2252ZM36.2897 25.5549C36.4094 25.5602 36.5206 25.5631 36.6229 25.5631C36.9093 25.5698 37.1947 25.5284 37.467 25.4406C37.4282 25.4371 37.3845 25.4347 37.3336 25.4347C37.2828 25.4347 37.22 25.4376 37.1596 25.4424H37.1332H37.1069C36.8051 25.4467 36.5045 25.4808 36.2096 25.5442L36.2897 25.5549Z" fill="#070707"/>
<path d="M8.75332 23.3982C7.49703 23.3982 6.69481 22.7777 6.48423 21.6731C6.2593 21.9235 6.03376 22.1561 5.80643 22.3687C5.07719 23.0518 4.34077 23.3982 3.61811 23.3982C2.11596 23.3982 1.25391 22.5593 1.25391 21.0976C1.25391 21.0183 1.2575 20.9343 1.26408 20.8478C1.26826 19.4004 1.67446 17.7434 2.47071 15.9212C3.25738 14.1215 3.87116 12.8428 4.34795 12.014L4.52742 11.7009H4.89174C5.45962 11.704 6.01608 11.859 6.50218 12.1496C6.77278 12.301 7.00913 12.5057 7.1966 12.7511C7.38408 12.9965 7.5187 13.2774 7.59215 13.5763L7.64659 13.7859L7.55745 13.9836C7.19852 14.7721 6.81744 15.6767 6.41723 16.6713C6.11158 17.4147 5.85324 18.1763 5.64372 18.9517C5.69038 18.8814 5.74063 18.8042 5.79447 18.7202C6.29758 17.9316 6.84376 17.0034 7.41747 15.952C7.99596 14.8935 8.51761 13.922 8.96748 13.0642L8.97466 13.05C9.21395 12.6256 9.38863 12.2917 9.5005 12.0584L9.6698 11.7032H10.0664C10.6341 11.7058 11.1906 11.8602 11.6769 12.1502C11.711 12.1697 11.7445 12.1898 11.7768 12.2094C11.5318 12.0044 11.3229 11.7605 11.1588 11.4877C10.7783 10.8578 10.5857 10.2019 10.5857 9.53414C10.5877 9.13171 10.6539 8.73212 10.7819 8.35014C11.0619 7.43195 11.5811 6.72155 12.3247 6.23848C13.0426 5.77139 13.8119 5.52808 14.6064 5.5115H14.6327H14.659C17.0089 5.66305 18.4219 6.77009 18.7868 8.72961C20.0108 8.31876 21.2892 7.85937 22.5969 7.35972C24.2074 6.75233 25.7287 6.21657 27.1208 5.76606L27.1351 5.76133L27.1501 5.75718C28.4225 5.41205 29.6214 5.23682 30.7125 5.23682H30.7335H30.7544C33.3519 5.40909 35.0096 6.26689 35.6808 7.78596L35.6886 7.80431L35.6952 7.82326C35.9399 8.49044 36.0589 9.05817 36.0589 9.559C36.0589 10.006 35.9177 10.4748 35.6402 10.9532C35.3261 11.4919 34.8026 11.8412 34.0907 12.0004C33.8449 12.0599 33.593 12.0912 33.34 12.0939C33.0003 12.1011 32.6648 12.0194 32.3672 11.8571L32.052 11.6795V11.2421C32.052 10.6015 31.6524 10.0492 30.831 9.55308C30.268 9.2109 29.5077 9.03804 28.5703 9.03804C27.934 9.04431 27.2995 9.10532 26.6739 9.22038C24.6794 9.69398 22.8297 10.3659 21.1768 11.2154L21.1672 11.2207L21.1576 11.2249C20.2399 11.6582 19.3402 12.043 18.4775 12.371C18.0061 13.758 17.25 15.2682 16.2276 16.8654C15.137 18.5686 13.9226 20.077 12.6179 21.3481C11.2055 22.7239 9.95396 23.3928 8.78921 23.3928L8.75332 23.3982ZM12.0508 12.4136C12.4057 12.7195 12.6534 13.1288 12.7585 13.5828L12.8087 13.7865L12.7238 13.9789C12.3726 14.771 11.9933 15.6761 11.5973 16.6689C11.2867 17.4298 11.0253 18.2094 10.8148 19.0032C11.1845 18.5485 11.6493 17.8653 12.2189 16.8412C12.9475 15.5299 13.5015 14.2459 13.8712 13.018C13.1461 12.9364 12.5393 12.7349 12.0508 12.4136V12.4136ZM13.511 9.49684C13.6235 9.63359 13.8329 9.78692 14.3127 9.78692C14.3833 9.78692 14.4586 9.78337 14.5376 9.77626C14.5486 9.67796 14.5544 9.57916 14.5549 9.48026C14.5549 8.89892 14.3462 8.86755 14.1787 8.84268H14.1715H14.1547C14.0396 8.84757 13.9262 8.87158 13.8191 8.91372C13.7272 8.95349 13.6462 9.01438 13.5828 9.09132C13.5442 9.19025 13.5186 9.29373 13.5068 9.39916V9.42343C13.5069 9.44796 13.5083 9.47246 13.511 9.49684V9.49684Z" fill="#070707"/>
<path d="M20.022 23.3895C18.9183 23.3895 18.0329 23.1207 17.3898 22.5909C16.7359 22.0504 16.3453 21.2529 16.228 20.2229C16.1929 19.898 16.1751 19.5716 16.1748 19.2449C16.1748 17.6998 16.6462 16.0676 17.5753 14.3905C18.5719 12.595 20.0059 11.6851 21.8376 11.6851C22.5932 11.6851 23.3021 11.9751 23.9452 12.5476C24.556 13.1017 24.8635 13.8962 24.8635 14.9156C24.8635 15.0251 24.8593 15.137 24.8521 15.2495V15.2637V15.2785C24.7498 16.2012 24.4362 17.0886 23.935 17.8732C24.3787 17.2398 24.7845 16.5812 25.15 15.9007L25.3295 15.5757H27.6506L27.2917 16.4341C26.398 18.5528 25.2691 20.2483 23.935 21.4726C22.5196 22.7619 21.2418 23.3895 20.022 23.3895ZM21.1479 16.6957C21.112 16.7981 21.0881 16.8846 21.0677 16.9568C21.1114 16.9201 21.1593 16.8769 21.2125 16.826C21.4207 16.6026 21.5876 16.3447 21.7054 16.0641C21.7818 15.8981 21.8468 15.7272 21.8999 15.5526C21.6313 15.7971 21.3776 16.1825 21.1455 16.6957H21.1479Z" fill="#070707"/>
<path d="M23.0789 28.9785C20.1302 28.9785 19.1707 27.5328 18.8847 26.3204L18.8782 26.292L18.874 26.2636C18.8449 26.0576 18.8299 25.8499 18.8291 25.642C18.8291 24.767 19.1366 24.0436 19.7432 23.4942C20.2647 23.0207 20.9499 22.7631 21.6575 22.7743C21.9822 22.7775 22.3052 22.8198 22.6195 22.9004L23.0203 22.9999L23.0861 23.403C23.137 23.7144 23.2722 24.542 25.138 24.6421C25.4066 24.6539 25.686 24.6604 25.963 24.6604C27.0661 24.6604 28.2883 24.542 29.605 24.3052C29.3199 23.5477 29.1752 22.7456 29.1779 21.9372C29.1779 21.5441 29.2479 20.8971 29.3926 19.9582C29.535 19.0293 29.8114 17.9679 30.2056 16.8022C30.3713 16.2694 30.4958 15.8189 30.5771 15.4572C30.2972 15.6419 29.9897 15.9817 29.6798 16.4559C29.0842 17.3731 28.6439 18.3803 28.3762 19.4378C28.2536 19.8748 28.1873 20.3253 28.1788 20.7787C28.1707 21.1392 28.2447 21.497 28.3954 21.8253L28.5886 22.2214L28.2739 22.5328C27.6937 23.1076 26.9997 23.3989 26.2119 23.3989C24.7031 23.3989 23.8375 22.56 23.8375 21.0984C23.8375 21.0137 23.8417 20.9237 23.8488 20.8308C23.9484 19.199 24.333 17.5966 24.9855 16.0948C25.6292 14.5905 26.2603 13.2852 26.8609 12.2148C26.9022 12.1408 26.9459 12.0645 26.9896 11.9922L27.172 11.6909H27.5268C28.0448 11.6909 28.5964 11.8348 29.1665 12.1189C29.4646 12.263 29.7308 12.4642 29.9496 12.7109C30.7434 12.0349 31.5863 11.6927 32.4622 11.6927C34.9406 11.6927 35.3109 12.9625 35.3109 13.7197C35.3109 13.7428 35.3109 13.7694 35.2804 14.5449C35.2577 15.1322 34.9813 16.1173 34.404 17.6452C34.0001 18.7655 33.6855 19.9153 33.463 21.0842C33.4058 21.3916 33.3763 21.7034 33.3751 22.016C33.3718 22.5096 33.4581 22.9999 33.6299 23.4634C33.7495 23.4338 33.8676 23.4032 33.984 23.3716C34.343 23.2775 34.6828 23.194 34.9933 23.1295H35.0046H35.0154C35.7256 22.9959 36.4462 22.924 37.169 22.9146C38.3218 22.9146 39.1773 23.1514 39.7851 23.6392C40.424 24.1519 40.7482 24.7474 40.7482 25.4105C40.7482 25.8012 40.5688 26.2932 40.1937 26.9597C39.7641 27.7169 38.679 28.1745 36.7796 28.4001L36.7521 28.4036H36.7251C36.5122 28.4107 36.3028 28.4137 36.103 28.4137C33.8297 28.4137 32.1822 27.9093 31.1861 26.913C29.8634 27.3984 28.518 27.8537 27.178 28.2681C25.6561 28.7387 24.276 28.9785 23.0789 28.9785ZM36.0372 25.3081C36.1568 25.3134 36.2681 25.3164 36.3704 25.3164C36.6568 25.3234 36.9422 25.2819 37.2145 25.1938C37.1762 25.1903 37.1319 25.1879 37.0811 25.1879C37.0302 25.1879 36.9674 25.1879 36.907 25.1956H36.8807H36.8544C36.5526 25.1999 36.252 25.234 35.957 25.2974L36.0372 25.3081Z" fill="#070707"/>
<path d="M8.50039 23.1498C7.2441 23.1498 6.44188 22.5294 6.2313 21.4248C6.00696 21.6752 5.78083 21.9078 5.55351 22.1204C4.82426 22.8035 4.08784 23.1498 3.36518 23.1498C1.86303 23.1498 1.00098 22.311 1.00098 20.8493C1.00098 20.77 1.00457 20.6859 1.01115 20.5995C1.01533 19.1521 1.42153 17.4951 2.21778 15.6735C3.00445 13.8732 3.61883 12.5951 4.09502 11.7663L4.27449 11.4531H4.63881C5.20653 11.4557 5.76297 11.6101 6.24925 11.9001C6.51952 12.0517 6.75552 12.2565 6.94268 12.5019C7.12984 12.7473 7.26419 13.028 7.33743 13.3268L7.39187 13.5364L7.30273 13.7341C6.94379 14.5226 6.56272 15.4272 6.1625 16.4224C5.85677 17.1655 5.59843 17.927 5.38899 18.7022C5.43565 18.6315 5.48591 18.5545 5.53975 18.4713C6.04286 17.6821 6.58904 16.7509 7.16274 15.7025C7.74303 14.6416 8.26468 13.6725 8.71336 12.8147L8.72113 12.8005C8.96042 12.3761 9.13451 12.0428 9.24638 11.8089L9.41568 11.4537H9.8123C10.3802 11.4564 10.9368 11.6108 11.4233 11.9007C11.4568 11.9202 11.4903 11.9403 11.5226 11.9599C11.278 11.7544 11.0692 11.5103 10.9047 11.2376C10.5242 10.6078 10.3316 9.95182 10.3316 9.287C10.3336 8.88458 10.3998 8.48499 10.5278 8.10301C10.8078 7.18482 11.327 6.47442 12.0706 5.99135C12.7885 5.52485 13.5578 5.28095 14.3523 5.26496H14.3786H14.4049C16.7548 5.41592 18.1678 6.52296 18.5327 8.48248C19.7567 8.07163 21.0351 7.61224 22.3428 7.11259C23.9562 6.51053 25.4775 5.97477 26.8696 5.52485L26.884 5.52012L26.8989 5.51597C28.1714 5.17084 29.3702 4.99561 30.4614 4.99561H30.4823H30.5033C33.1008 5.16847 34.7585 6.02568 35.4297 7.54534L35.4375 7.5631L35.4447 7.58205C35.6887 8.24923 35.8078 8.81696 35.8078 9.31779C35.8078 9.76475 35.6666 10.2342 35.389 10.7119C35.0755 11.2507 34.5515 11.5999 33.8396 11.7592C33.5938 11.8187 33.3419 11.8501 33.0888 11.8527C32.7492 11.8597 32.4137 11.7781 32.1161 11.6159L31.8008 11.4383V11.0008C31.8008 10.3603 31.4012 9.80796 30.5798 9.31187C30.0169 8.96969 29.2566 8.79683 28.3191 8.79683C27.6829 8.80339 27.0484 8.8644 26.4228 8.97916C24.4283 9.45276 22.5791 10.1247 20.9256 10.9748L20.916 10.9795L20.9065 10.9837C19.9888 11.4152 19.0885 11.8 18.2252 12.128C17.7532 13.5151 16.997 15.0252 15.9753 16.6225C14.8841 18.3256 13.6697 19.8341 12.3649 21.1051C10.9531 22.4809 9.70103 23.1498 8.53628 23.1498H8.50039ZM11.7978 12.1659C12.1529 12.4714 12.4007 12.8806 12.5055 13.3345L12.5558 13.5387L12.4708 13.7305C12.1191 14.5232 11.7398 15.4278 11.3456 16.4206C11.0348 17.1814 10.7732 17.9611 10.5625 18.7548C10.9328 18.3002 11.397 17.617 11.9665 16.5929C12.6958 15.2804 13.2503 13.9981 13.6194 12.7697C12.8932 12.688 12.286 12.4868 11.7978 12.1659V12.1659ZM13.2599 9.24852C13.3718 9.38528 13.5812 9.53919 14.0609 9.53919C14.1315 9.53919 14.2069 9.53505 14.2859 9.52795C14.2972 9.42967 14.3029 9.33085 14.3032 9.23195C14.3032 8.6506 14.0944 8.61864 13.9269 8.59377H13.9197H13.903C13.7879 8.59907 13.6746 8.62307 13.5674 8.66481C13.4757 8.70488 13.3947 8.76571 13.3311 8.84241C13.2924 8.94135 13.2669 9.04482 13.2551 9.15025V9.17452C13.255 9.19927 13.2566 9.224 13.2599 9.24852V9.24852Z" fill="#070707"/>
<path d="M19.7681 23.1404C18.6638 23.1404 17.779 22.8717 17.1359 22.3418C16.482 21.8019 16.0914 21.0039 15.9747 19.9738C15.9391 19.649 15.9211 19.3226 15.9209 18.9959C15.9209 17.4507 16.3923 15.8186 17.322 14.1415C18.318 12.3465 19.752 11.436 21.5837 11.436C22.3393 11.436 23.0482 11.7261 23.6913 12.2986C24.3021 12.8527 24.6096 13.6477 24.6096 14.6666C24.6096 14.7761 24.606 14.888 24.5982 15.0005V15.0153V15.0295C24.4961 15.9522 24.1824 16.8396 23.6811 17.6242C24.1244 16.9898 24.5297 16.3301 24.8949 15.6487L25.0744 15.3231H27.3949L27.036 16.1821C26.1429 18.3009 25.0134 19.9957 23.6793 21.22C22.2675 22.5159 20.9897 23.1404 19.7681 23.1404ZM20.8934 16.4467C20.8575 16.5491 20.8336 16.6356 20.8138 16.7078C20.8569 16.6711 20.9048 16.6279 20.958 16.5769C21.1679 16.3545 21.3366 16.0972 21.4563 15.8168C21.5329 15.6507 21.5978 15.4796 21.6507 15.3047C21.3791 15.5481 21.1261 15.9323 20.8934 16.4467V16.4467Z" fill="#070707"/>
<path d="M22.8334 28.7332C19.8842 28.7332 18.9246 27.2875 18.6386 26.0751L18.6321 26.0473L18.6279 26.0189C18.5988 25.8127 18.5838 25.6048 18.583 25.3967C18.583 24.5223 18.8905 23.7983 19.4971 23.2495C20.0185 22.7758 20.7037 22.5181 21.4114 22.5296C21.7359 22.5325 22.0588 22.5749 22.3728 22.6557L22.7736 22.754L22.8394 23.1571C22.8903 23.4685 23.0255 24.2961 24.8913 24.3962C25.1599 24.4086 25.4393 24.4145 25.7169 24.4145C26.8194 24.4145 28.0416 24.2961 29.3583 24.0593C29.0732 23.3018 28.9285 22.4997 28.9312 21.6913C28.9312 21.2983 29.0018 20.6512 29.1459 19.7123C29.2889 18.7834 29.5647 17.722 29.9589 16.5563C30.1247 16.0235 30.2491 15.573 30.3304 15.2113C30.0505 15.396 29.743 15.7358 29.4331 16.2106C28.8384 17.1263 28.3989 18.1319 28.1319 19.1878C28.0093 19.6247 27.943 20.0753 27.9345 20.5287C27.9254 20.89 27.9986 21.2487 28.1487 21.5783L28.3425 21.9749L28.0279 22.2863C27.447 22.8605 26.7536 23.1518 25.9652 23.1518C24.4564 23.1518 23.5908 22.3129 23.5908 20.8513C23.5908 20.7666 23.595 20.6737 23.6022 20.5843C23.7016 18.9525 24.0862 17.3501 24.7388 15.8483C25.3825 14.3435 26.0136 13.0381 26.6142 11.9684C26.6555 11.8938 26.6992 11.8174 26.7429 11.7452L26.9223 11.4438H27.2777C27.7951 11.4438 28.3467 11.5877 28.9168 11.8719C29.2149 12.016 29.4811 12.2172 29.6999 12.4639C30.4938 11.7878 31.3367 11.4456 32.2125 11.4456C34.6903 11.4456 35.0606 12.7161 35.0606 13.4726C35.0606 13.4957 35.0606 13.5224 35.0301 14.2979C35.0074 14.8851 34.731 15.8702 34.1537 17.3982C33.7501 18.5185 33.4357 19.6683 33.2133 20.8371C33.155 21.1446 33.1247 21.4566 33.123 21.7695C33.1203 22.2635 33.2075 22.754 33.3802 23.2175C33.4999 23.1879 33.6195 23.1583 33.7344 23.1258C34.0933 23.0316 34.4331 22.9482 34.7436 22.8836H34.755H34.7657C35.4759 22.7501 36.1965 22.6781 36.9193 22.6687C38.0721 22.6687 38.9282 22.9055 39.536 23.3933C40.1743 23.906 40.4986 24.5016 40.4986 25.1646C40.4986 25.5553 40.3191 26.0473 39.9446 26.7139C39.5145 27.471 38.4299 27.9292 36.5299 28.1548L36.503 28.1577H36.4755C36.2625 28.1643 36.0531 28.1678 35.8533 28.1678C33.583 28.1678 31.9325 27.6628 30.9365 26.6665C29.6138 27.1519 28.2683 27.6072 26.9283 28.0222C25.4058 28.4916 24.0299 28.7332 22.8334 28.7332ZM35.7917 25.0628C35.9113 25.0681 36.022 25.0711 36.1243 25.0711C36.4099 25.0761 36.6943 25.0332 36.9654 24.9444C36.9213 24.9401 36.8769 24.9381 36.8326 24.9385C36.777 24.9385 36.7183 24.9385 36.6579 24.9456H36.6316H36.6053C36.3035 24.9501 36.0029 24.9842 35.7079 25.0474C35.7366 25.0551 35.7624 25.0574 35.7887 25.0628H35.7917Z" fill="#070707"/>
<path d="M8.24941 22.9016C6.99312 22.9016 6.1909 22.2812 5.98032 21.1765C5.75618 21.4275 5.53025 21.6594 5.30253 21.8721C4.57328 22.5553 3.83686 22.9016 3.1148 22.9016C1.61205 22.9016 0.75 22.0633 0.75 20.6011C0.75 20.5218 0.753588 20.4383 0.760169 20.3513C0.764955 18.9044 1.17056 17.2468 1.9668 15.4252C2.75347 13.625 3.36785 12.3469 3.84404 11.5181L4.02351 11.2049H4.38783C4.95555 11.2075 5.51199 11.3619 5.99827 11.6518C6.26864 11.8032 6.50479 12.0078 6.69215 12.253C6.87952 12.4981 7.01412 12.7787 7.08764 13.0774L7.14208 13.2875L7.05295 13.4847C6.69401 14.2738 6.31294 15.1778 5.91272 16.1729C5.60699 16.9161 5.34864 17.6775 5.13921 18.4527C5.18587 18.3823 5.23612 18.3059 5.28996 18.2218C5.79367 17.4327 6.33926 16.5015 6.91296 15.4531C7.49205 14.3946 8.01311 13.4231 8.46297 12.5653L8.47075 12.5511C8.71004 12.1266 8.88413 11.7933 8.996 11.5595L9.16589 11.2043H9.56192C10.1298 11.2068 10.6865 11.3612 11.173 11.6513C11.2065 11.6708 11.24 11.6909 11.2723 11.7105C11.0276 11.5049 10.8188 11.2609 10.6543 10.9882C10.2738 10.3583 10.0812 9.7024 10.0812 9.03462C10.0835 8.63222 10.1497 8.23268 10.2774 7.85063C10.5574 6.93244 11.0766 6.22263 11.8202 5.73956C12.5381 5.27247 13.3074 5.02916 14.1019 5.01258H14.1288H14.1551C16.5044 5.16354 17.9174 6.27058 18.2829 8.2301C19.5069 7.81925 20.7853 7.35986 22.0936 6.86021C23.7035 6.25282 25.2248 5.71706 26.6174 5.26655L26.6318 5.26181L26.6462 5.25767C27.9192 4.91254 29.1175 4.7373 30.2086 4.7373H30.2296H30.2505C32.848 4.90958 34.5057 5.76738 35.1769 7.28645L35.1847 7.3048L35.1919 7.32315C35.4366 7.99034 35.555 8.55806 35.555 9.0589C35.555 9.50585 35.4138 9.97531 35.1362 10.4531C34.8228 10.9918 34.2987 11.3446 33.5874 11.5003C33.3414 11.5599 33.0893 11.5915 32.836 11.5944C32.4964 11.6014 32.1609 11.5197 31.8633 11.3576L31.5481 11.18V10.7419C31.5481 10.102 31.149 9.54907 30.3271 9.05297C29.7641 8.7108 29.0038 8.53794 28.0664 8.53794C27.4303 8.54442 26.796 8.60563 26.1706 8.72086C24.1755 9.19446 22.3263 9.86638 20.6728 10.7159L20.6633 10.7206L20.6537 10.7248C19.7366 11.1581 18.8363 11.5429 17.9742 11.8709C17.5022 13.2579 16.7467 14.7681 15.7243 16.3653C14.6355 18.075 13.4199 19.5858 12.1152 20.8574C10.7033 22.2332 9.45125 22.9022 8.2865 22.9022L8.24941 22.9016ZM11.5474 11.9182C11.9023 12.2242 12.15 12.6335 12.2552 13.0874L12.3048 13.2911L12.2199 13.4829C11.8681 14.2756 11.4894 15.1802 11.0934 16.1729C10.7826 16.9338 10.521 17.7135 10.3103 18.5072C10.6806 18.0525 11.1478 17.3694 11.7144 16.3452C12.4442 15.0328 12.9982 13.7505 13.3673 12.5221C12.6422 12.4398 12.0338 12.2379 11.5474 11.9182ZM13.0077 9.00088C13.1196 9.13763 13.329 9.29155 13.8088 9.29155C13.8793 9.29155 13.9547 9.288 14.0337 9.2803C14.0452 9.18204 14.0512 9.08322 14.0516 8.9843C14.0516 8.40296 13.8429 8.37158 13.6748 8.34613H13.6676H13.6508C13.5358 8.35142 13.4224 8.37542 13.3152 8.41717C13.2236 8.45712 13.1428 8.51798 13.0795 8.59477C13.0406 8.69363 13.0151 8.79714 13.0035 8.90261V8.92747C13.0033 8.95181 13.0047 8.97613 13.0077 9.00029V9.00088Z" fill="#070707"/>
<path d="M19.5175 22.8936C18.4132 22.8936 17.5284 22.6248 16.8853 22.0944C16.2314 21.5545 15.8408 20.7565 15.7241 19.7264C15.6887 19.4018 15.6709 19.0755 15.6709 18.749C15.6709 17.2039 16.1417 15.5711 17.0714 13.8946C18.0686 12.0973 19.5026 11.188 21.3367 11.188C22.0923 11.188 22.8012 11.4781 23.4443 12.0505C24.0551 12.6046 24.3626 13.3997 24.3626 14.4185C24.3626 14.528 24.359 14.6405 24.3512 14.7524V14.7672V14.7814C24.2481 15.7041 23.9332 16.5912 23.4305 17.375C23.8742 16.7415 24.2799 16.0829 24.6455 15.4024L24.825 15.0774H27.1455L26.7866 15.9358C25.8934 18.0546 24.764 19.7495 23.4299 20.9737C22.0175 22.2655 20.7385 22.8936 19.5175 22.8936ZM20.6428 16.1998C20.6069 16.3017 20.583 16.3881 20.5632 16.4603C20.6063 16.4236 20.6542 16.3804 20.7074 16.3301C20.9164 16.1073 21.0841 15.8498 21.2027 15.5694C21.279 15.4032 21.3437 15.2321 21.3966 15.0573C21.1291 15.3006 20.8755 15.6848 20.6428 16.1998Z" fill="#070707"/>
<path d="M22.5785 28.4822C19.6293 28.4822 18.6697 27.0366 18.3838 25.8242L18.3772 25.7963L18.3736 25.7679C18.344 25.5618 18.3288 25.3539 18.3281 25.1457C18.3281 24.2713 18.6356 23.5473 19.2422 22.9986C19.7639 22.5249 20.4493 22.2675 21.1572 22.2793C21.4818 22.2825 21.8048 22.3248 22.1191 22.4054L22.5193 22.5042L22.5851 22.9074C22.636 23.2188 22.7712 24.0464 24.6371 24.1464C24.9063 24.1589 25.185 24.1654 25.4626 24.1654C26.5657 24.1654 27.7879 24.047 29.1046 23.8102C28.8192 23.0528 28.6745 22.2505 28.6775 21.4422C28.6775 21.0497 28.7475 20.402 28.8917 19.4631C29.0346 18.5349 29.3104 17.4728 29.7047 16.3078C29.8704 15.775 29.9948 15.3239 30.0762 14.9622C29.7962 15.1469 29.4887 15.4867 29.1788 15.9615C28.5844 16.8772 28.1451 17.8828 27.8783 18.9386C27.7544 19.3754 27.6871 19.8259 27.6779 20.2795C27.6683 20.6418 27.7415 21.0016 27.892 21.3321L28.0858 21.7287L27.7712 22.0401C27.1909 22.6143 26.497 22.9056 25.7085 22.9056C24.1997 22.9056 23.3347 22.0673 23.3347 20.6051C23.3347 20.5204 23.3383 20.4305 23.3461 20.3381C23.4454 18.7063 23.8299 17.1039 24.4827 15.6021C25.1264 14.0979 25.7575 12.7919 26.3582 11.7222C26.3994 11.6476 26.4437 11.5712 26.4874 11.499L26.6698 11.1982H27.0198C27.5373 11.1982 28.0888 11.3421 28.659 11.6257C28.957 11.7698 29.2232 11.971 29.442 12.2177C30.2359 11.5416 31.0788 11.2 31.9546 11.2C34.4325 11.2 34.8028 12.4699 34.8028 13.227C34.8028 13.2501 34.8028 13.2762 34.7729 14.0517C34.7495 14.6389 34.4737 15.624 33.8959 17.152C33.4925 18.2723 33.1781 19.4221 32.9554 20.5909C32.8979 20.8983 32.8685 21.2101 32.8675 21.5227C32.8646 22.0167 32.9516 22.5072 33.1241 22.9707C33.2438 22.9417 33.3634 22.9115 33.4783 22.8796C33.8372 22.7848 34.1776 22.702 34.4881 22.6368H34.4989H34.5102C35.2204 22.5032 35.941 22.4313 36.6639 22.4219C37.8167 22.4219 38.6727 22.6587 39.2805 23.1466C39.9188 23.6592 40.2431 24.2554 40.2431 24.9178C40.2431 25.3085 40.0672 25.8011 39.6891 26.4671C39.259 27.2248 38.1744 27.6824 36.2744 27.908H36.2475H36.22C36.007 27.9145 35.7976 27.9181 35.5978 27.9181C33.3281 27.9181 31.677 27.4131 30.681 26.4168C29.3589 26.9022 28.0135 27.3574 26.6758 27.7724C25.1557 28.2425 23.775 28.4822 22.5785 28.4822ZM35.5368 24.8118C35.6564 24.8178 35.7671 24.8201 35.8694 24.8201C36.155 24.8264 36.4396 24.7847 36.7111 24.697C36.667 24.6927 36.6227 24.6907 36.5783 24.6911C36.5227 24.6911 36.4641 24.6911 36.4036 24.6988H36.3773H36.3522C36.0514 24.7035 35.7518 24.7376 35.4578 24.8006C35.4848 24.8059 35.5105 24.8083 35.5368 24.8107V24.8118Z" fill="#070707"/>
<path d="M7.99979 22.6545C6.7435 22.6545 5.94128 22.0347 5.7307 20.9294C5.50656 21.1804 5.28063 21.4123 5.05291 21.625C4.32366 22.3082 3.58724 22.6545 2.86518 22.6545C1.36243 22.6545 0.500977 21.8162 0.500977 20.354C0.500977 20.2747 0.503968 20.1912 0.510548 20.1048C0.515334 18.6573 0.920935 16.9997 1.71718 15.1781C2.50445 13.3779 3.11823 12.0998 3.59442 11.271L3.77389 10.9578H4.13821C4.70611 10.9604 5.26273 11.1149 5.74925 11.4048C6.0195 11.5562 6.25554 11.7608 6.4428 12.0059C6.63006 12.2511 6.76457 12.5317 6.83803 12.8303L6.89306 13.0404L6.80333 13.2382C6.44738 14.0267 6.06332 14.9307 5.6631 15.9258C5.35746 16.6691 5.09911 17.4305 4.88959 18.2056C4.93705 18.1358 4.9873 18.0588 5.04034 17.9748C5.54405 17.1862 6.08964 16.2544 6.66334 15.206C7.24243 14.1475 7.76408 13.176 8.21336 12.3182L8.22113 12.304C8.46042 11.8801 8.63451 11.5462 8.74638 11.3124L8.91627 10.9572H9.3123C9.88022 10.9597 10.4369 11.1141 10.9233 11.4042C10.9574 11.4237 10.9903 11.4444 11.0232 11.4634C10.7782 11.258 10.5692 11.014 10.4047 10.7411C10.0242 10.1112 9.83157 9.4553 9.83157 8.79048C9.83379 8.38803 9.90021 7.98844 10.0284 7.60649C10.3078 6.68889 10.827 5.97849 11.5706 5.49542C12.2885 5.02833 13.0578 4.78502 13.8523 4.76844H13.8792H13.9055C16.2548 4.9194 17.6678 6.02703 18.0333 7.98596C19.2573 7.5757 20.5357 7.11572 21.844 6.61666C23.4539 6.00927 24.9752 5.47292 26.3678 5.02241L26.3822 5.01768L26.3965 5.01412C27.6696 4.66839 28.8678 4.49316 29.959 4.49316H29.9805H30.0009C32.599 4.66544 34.2561 5.52324 34.9273 7.04231L34.9357 7.06066L34.9423 7.07901C35.1869 7.74679 35.306 8.31452 35.306 8.81476C35.306 9.26231 35.1648 9.73117 34.8872 10.2089C34.5738 10.7482 34.0527 11.1005 33.3384 11.2568C33.0924 11.3162 32.8403 11.3476 32.587 11.3503C32.2474 11.3573 31.9119 11.2756 31.6143 11.1135L31.299 10.9359V10.5043C31.299 9.86378 30.9 9.31085 30.0787 8.81476C29.5151 8.47317 28.7548 8.29972 27.8179 8.29972C27.1817 8.3062 26.5471 8.36741 25.9216 8.48264C23.9271 8.95624 22.0773 9.62816 20.4238 10.4777L20.4143 10.4824L20.4047 10.4872C19.4876 10.9199 18.5879 11.3047 17.7252 11.6333C17.2538 13.0197 16.4976 14.5299 15.4753 16.1271C14.3847 17.8303 13.1703 19.3387 11.8649 20.6103C10.4531 21.9861 9.20163 22.6545 8.03628 22.6545H7.99979ZM11.2978 11.6706C11.6524 11.9765 11.8998 12.3859 12.0043 12.8398L12.054 13.0434L11.969 13.2352C11.6173 14.0279 11.2386 14.9331 10.8426 15.9253C10.5317 16.6863 10.2701 17.4661 10.0595 18.2601C10.4298 17.8048 10.897 17.1223 11.4641 16.0975C12.1934 14.7857 12.7473 13.5028 13.117 12.2744C12.3926 12.1927 11.7842 11.9908 11.2978 11.6706ZM12.7581 8.75319C12.87 8.88994 13.0794 9.04386 13.5591 9.04386C13.6303 9.04386 13.7051 9.04031 13.7841 9.0332C13.7955 8.93493 13.8015 8.83612 13.802 8.7372C13.802 8.15586 13.5932 8.12448 13.4257 8.09903H13.4186H13.4012C13.2862 8.10408 13.1728 8.12788 13.0656 8.16948C12.974 8.20943 12.8932 8.27029 12.8299 8.34708C12.791 8.44594 12.7655 8.54945 12.7539 8.65491V8.67978C12.7536 8.70431 12.755 8.72884 12.7581 8.75319V8.75319Z" fill="#070707"/>
<path d="M19.2671 22.6449C18.1628 22.6449 17.278 22.3762 16.6349 21.8457C15.9805 21.3058 15.5898 20.5078 15.4732 19.4777C15.438 19.1531 15.4203 18.8269 15.4199 18.5004C15.4199 16.9552 15.8907 15.3225 16.8204 13.646C17.817 11.8504 19.2504 10.9399 21.0822 10.9399C21.8377 10.9399 22.5472 11.23 23.1897 11.8025C23.8005 12.3566 24.108 13.1516 24.108 14.1705C24.108 14.28 24.1044 14.3925 24.0972 14.5044V14.5192V14.5334C23.9951 15.4564 23.681 16.3442 23.179 17.1287C23.6228 16.4954 24.0285 15.8367 24.394 15.1562L24.5734 14.8311H26.894L26.532 15.6895C25.6389 17.8083 24.5094 19.5032 23.1754 20.7275C21.7671 22.0168 20.4893 22.6449 19.2671 22.6449ZM20.393 15.9512C20.3571 16.053 20.3332 16.1395 20.3128 16.2117C20.3559 16.175 20.4044 16.1318 20.4576 16.0814C20.6662 15.8585 20.8337 15.601 20.9524 15.3207C21.0291 15.1549 21.0941 14.984 21.1468 14.8092C20.8788 15.052 20.6251 15.4362 20.393 15.9512V15.9512Z" fill="#070707"/>
<path d="M22.3295 28.2331C19.3803 28.2331 18.4207 26.788 18.1347 25.575L18.1282 25.5472L18.1246 25.5188C18.0953 25.3128 18.0801 25.1051 18.0791 24.8972C18.0791 24.0222 18.3866 23.2988 18.9932 22.7494C19.5148 22.276 20.1999 22.0184 20.9075 22.0295C21.2322 22.0327 21.5552 22.075 21.8695 22.1556L22.2697 22.2545L22.3355 22.6582C22.3864 22.9696 22.5216 23.7966 24.388 23.8967C24.6566 23.9091 24.936 23.9156 25.213 23.9156C26.3161 23.9156 27.5383 23.7972 28.855 23.5604C28.5695 22.803 28.4248 22.0008 28.4279 21.1924C28.4279 20.7993 28.4979 20.1517 28.642 19.2128C28.785 18.2845 29.0608 17.2225 29.455 16.0574C29.6213 15.5246 29.7458 15.0735 29.8265 14.7118C29.5472 14.8965 29.2391 15.2363 28.9292 15.7111C28.3349 16.6269 27.8956 17.6325 27.6286 18.6883C27.505 19.1249 27.4379 19.5752 27.4288 20.0286C27.4197 20.3899 27.4929 20.7487 27.643 21.0782L27.8368 21.4748L27.5222 21.7862C26.9419 22.3604 26.2479 22.6517 25.4595 22.6517C23.9507 22.6517 23.0857 21.8134 23.0857 20.3512C23.0857 20.2665 23.0893 20.1771 23.0971 20.0842C23.1963 18.4524 23.5809 16.85 24.2337 15.3482C24.8774 13.8439 25.5085 12.5386 26.1097 11.4683C26.1504 11.3937 26.1947 11.3173 26.2384 11.2457L26.4178 10.9443H26.7726C27.29 10.9443 27.8416 11.0882 28.4117 11.3718C28.7098 11.5159 28.9759 11.7171 29.1948 11.9638C29.9887 11.2877 30.8316 10.9461 31.7074 10.9461C34.1858 10.9461 34.5555 12.216 34.5555 12.9731C34.5555 12.9962 34.5555 13.0223 34.5256 13.7978C34.5029 14.385 34.2265 15.3701 33.6486 16.8987C33.2451 18.019 32.9307 19.1688 32.7082 20.3376C32.6518 20.6458 32.6234 20.9585 32.6233 21.2718C32.6205 21.7657 32.7074 22.2562 32.8799 22.7198C32.9995 22.6902 33.1192 22.6606 33.234 22.628C33.593 22.5333 33.9334 22.4504 34.2439 22.3859H34.2546H34.266C34.9762 22.2523 35.6968 22.1804 36.4196 22.171C37.5718 22.171 38.4279 22.4078 39.0357 22.8956C39.6746 23.4083 39.9982 24.0044 39.9982 24.6669C39.9982 25.0576 39.8224 25.5501 39.4443 26.2161C39.0141 26.9739 37.9296 27.4315 36.0302 27.657L36.0027 27.66H35.9751C35.7622 27.6665 35.5528 27.6701 35.353 27.6701C33.0833 27.6701 31.4328 27.1657 30.4361 26.1688C29.114 26.6542 27.7686 27.11 26.428 27.5244C24.9067 27.9939 23.526 28.2331 22.3295 28.2331ZM35.2878 24.5627C35.4074 24.5686 35.5181 24.5716 35.621 24.5716C35.9073 24.5782 36.1927 24.5368 36.4651 24.449C36.4208 24.4447 36.3762 24.4427 36.3317 24.4431C36.276 24.4431 36.2174 24.4431 36.1576 24.4508H36.1313H36.105C35.8032 24.4553 35.5026 24.4895 35.2076 24.5526C35.2357 24.5568 35.262 24.5591 35.2878 24.5615V24.5627Z" fill="#070707"/>
<path d="M7.74881 22.4054C6.49253 22.4054 5.6909 21.7856 5.47972 20.6804C5.25559 20.9314 5.02985 21.1632 4.80253 21.376C4.07269 22.0591 3.33687 22.4054 2.6142 22.4054C1.11145 22.4054 0.25 21.5672 0.25 20.1049C0.25 20.0262 0.249999 19.9421 0.259571 19.8557C0.264357 18.4083 0.670554 16.7507 1.4668 14.9291C2.25347 13.1288 2.86726 11.8507 3.34345 11.0219L3.52291 10.7087H3.88724C4.45515 10.7112 5.01181 10.8657 5.49827 11.1557C5.76859 11.3073 6.00469 11.512 6.19205 11.7572C6.3794 12.0025 6.51403 12.2831 6.58764 12.5818L6.64208 12.7914L6.55235 12.9891C6.1964 13.7777 5.81234 14.6822 5.41212 15.6768C5.10668 16.42 4.84854 17.1814 4.63921 17.9566C4.68667 17.8867 4.73692 17.8098 4.78996 17.7257C5.29367 16.9372 5.83986 16.0053 6.41296 14.9569C6.99205 13.8984 7.5137 12.927 7.96298 12.0691L7.97075 12.0555C8.21004 11.6311 8.38413 11.2972 8.496 11.0633L8.6659 10.7081H9.06252C9.63023 10.7107 10.1867 10.8652 10.673 11.1551C10.7071 11.1752 10.74 11.1954 10.7729 11.2143C10.5283 11.0106 10.3193 10.7684 10.1543 10.4974C9.77382 9.86751 9.58119 9.21157 9.58119 8.5438C9.58346 8.14134 9.64988 7.74176 9.778 7.3598C10.058 6.4422 10.5766 5.7318 11.3208 5.24873C12.0387 4.78164 12.8074 4.53833 13.6025 4.52176H13.6288H13.6551C16.005 4.67272 17.4174 5.78035 17.7829 7.73927C19.0063 7.32901 20.2847 6.86903 21.593 6.36998C23.2035 5.76259 24.7242 5.22624 26.1169 4.77572L26.1312 4.77099L26.1462 4.76744C27.4186 4.42171 28.6175 4.24707 29.7086 4.24707H29.7296H29.7505C32.348 4.41934 34.0051 5.27715 34.6763 6.79622L34.6847 6.81457L34.6913 6.83351C34.936 7.50069 35.055 8.06842 35.055 8.56925C35.055 9.01621 34.9138 9.48507 34.6362 9.96341C34.3222 10.5021 33.7987 10.8544 33.0868 11.0107C32.8408 11.0701 32.5887 11.1015 32.3354 11.1042C31.9958 11.1112 31.6603 11.0295 31.3627 10.8674L31.0475 10.6898V10.2523C31.0475 9.61176 30.6484 9.05943 29.8271 8.56274C29.2635 8.22116 28.5038 8.0477 27.5664 8.0477C26.9301 8.05419 26.2956 8.11539 25.67 8.23063C23.6755 8.70423 21.8258 9.37614 20.1722 10.2257L20.1633 10.2304L20.1537 10.2351C19.236 10.6685 18.3363 11.0533 17.4736 11.3812C17.0022 12.7677 16.2461 14.2785 15.2237 15.8751C14.1331 17.5789 12.9187 19.0867 11.614 20.3583C10.2016 21.7341 8.95005 22.4025 7.7853 22.4025L7.74881 22.4054ZM11.0468 11.4215C11.4017 11.7274 11.6495 12.1367 11.7546 12.5907L11.8048 12.7943L11.7193 12.9838C11.3675 13.7765 10.9888 14.6816 10.5928 15.6738C10.2819 16.4349 10.0203 17.2147 9.80971 18.0087C10.18 17.554 10.6472 16.8708 11.2144 15.8467C11.9436 14.5342 12.4982 13.2514 12.8673 12.0236C12.1418 11.9434 11.535 11.7428 11.0468 11.4215ZM12.5071 8.50472C12.619 8.64088 12.8284 8.7948 13.3082 8.7948C13.3793 8.7948 13.4541 8.79125 13.5337 8.78415C13.5446 8.68584 13.5504 8.58705 13.551 8.48815C13.551 7.90681 13.3423 7.87543 13.1748 7.84997H13.1676H13.1502C13.0352 7.85502 12.9218 7.87883 12.8146 7.92042C12.723 7.96047 12.6423 8.02132 12.5789 8.09802C12.5399 8.19685 12.5144 8.30037 12.5029 8.40586V8.4254C12.5027 8.4519 12.5041 8.47839 12.5071 8.50472V8.50472Z" fill="#070707"/>
<path d="M19.0171 22.3986C17.9134 22.3986 17.028 22.1298 16.3849 21.6C15.7311 21.0595 15.3398 20.262 15.2232 19.232C15.188 18.9071 15.1703 18.5807 15.1699 18.254C15.1699 16.7089 15.6413 15.0761 16.5704 13.3996C17.5688 11.6029 19.0046 10.6924 20.834 10.6924C21.5895 10.6924 22.299 10.9831 22.9415 11.5555C23.5523 12.1096 23.8598 12.9041 23.8598 13.9235C23.8598 14.0324 23.8562 14.1449 23.849 14.2568V14.2716V14.2864C23.7472 15.2091 23.4337 16.0966 22.9326 16.8811C23.3761 16.2478 23.7816 15.5891 24.147 14.9086L24.3264 14.5836H26.647L26.288 15.442C25.3949 17.5607 24.2654 19.2556 22.932 20.4805C21.5171 21.7699 20.2393 22.3986 19.0171 22.3986ZM20.1412 15.7042C20.1053 15.8061 20.0814 15.8925 20.061 15.9653C20.1041 15.928 20.1526 15.8848 20.2058 15.8345C20.4148 15.6118 20.5823 15.3542 20.7006 15.0738C20.7774 14.908 20.8424 14.7371 20.895 14.5623C20.6288 14.8056 20.3751 15.1892 20.1412 15.7042Z" fill="#070707"/>
<path d="M22.0785 27.9863C19.1299 27.9863 18.1697 26.5406 17.8844 25.3276L17.8778 25.2998L17.8736 25.2714C17.8443 25.0654 17.8291 24.8577 17.8281 24.6498C17.8281 23.7748 18.1356 23.0514 18.7422 22.502C19.2639 22.0287 19.9489 21.7711 20.6566 21.7821C20.9812 21.7853 21.3042 21.8276 21.6185 21.9082L22.0187 22.0077L22.0845 22.4108C22.1354 22.7222 22.2706 23.5492 24.1371 23.6493C24.4057 23.6617 24.685 23.6682 24.962 23.6682C26.0651 23.6682 27.2873 23.5498 28.604 23.313C28.3188 22.5556 28.1741 21.7534 28.1769 20.945C28.1769 20.552 28.2469 19.9043 28.3911 18.966C28.534 18.0371 28.8098 16.9757 29.2047 15.81C29.3704 15.2772 29.4948 14.8261 29.5756 14.4644C29.2962 14.6497 28.9887 14.9895 28.6782 15.4637C28.0841 16.3798 27.6448 17.3856 27.3777 18.4415C27.2547 18.8784 27.1884 19.3289 27.1802 19.7824C27.1709 20.1435 27.2441 20.5021 27.3944 20.8314L27.5876 21.228L27.273 21.5394C26.6927 22.1136 25.9987 22.4049 25.2109 22.4049C23.7003 22.4061 22.8335 21.5684 22.8335 20.1056C22.8335 20.0215 22.8371 19.9315 22.8449 19.8386C22.9447 18.2069 23.3293 16.6045 23.9815 15.1026C24.6252 13.5983 25.2563 12.293 25.8576 11.2226C25.8982 11.1481 25.9425 11.0723 25.9862 11.0001L26.1686 10.6987H26.5234C27.0415 10.6987 27.593 10.8426 28.1625 11.1262C28.4607 11.2701 28.7269 11.4713 28.9456 11.7182C29.7395 11.0415 30.5824 10.6999 31.4582 10.6999C33.9367 10.6999 34.3064 11.9698 34.3064 12.7269C34.3064 12.75 34.3064 12.7761 34.2764 13.5522C34.2537 14.1388 33.9773 15.1245 33.4 16.6525C32.9962 17.7727 32.6815 18.9225 32.459 20.0914C32.4018 20.3988 32.3723 20.7106 32.3711 21.0232C32.3682 21.5172 32.4553 22.0078 32.6283 22.4712C32.748 22.4416 32.8676 22.412 32.9819 22.3795C33.3408 22.2847 33.6812 22.2019 33.9917 22.1373H34.0025H34.0138C34.724 22.0037 35.4446 21.9318 36.1675 21.9224C37.3202 21.9224 38.1757 22.1592 38.7835 22.647C39.4224 23.1597 39.7461 23.7559 39.7461 24.4189C39.7461 24.809 39.5702 25.3016 39.1921 25.9681C38.7626 26.7253 37.6774 27.1829 35.778 27.4085L35.7505 27.412H35.723C35.5106 27.4185 35.3042 27.4221 35.1008 27.4221C32.8311 27.4221 31.1806 26.9177 30.184 25.9208C28.8619 26.4068 27.5165 26.8621 26.1788 27.2765C24.6557 27.7465 23.2756 27.9863 22.0785 27.9863ZM35.0368 24.3159C35.1564 24.3212 35.2671 24.3242 35.37 24.3242C35.6564 24.3309 35.9418 24.2894 36.2141 24.2016C36.1752 24.1981 36.1316 24.1957 36.0807 24.1957C36.0299 24.1957 35.9664 24.1957 35.9066 24.2034H35.8803H35.854C35.5522 24.2077 35.2516 24.2418 34.9566 24.3052L35.0368 24.3159Z" fill="#070707"/>
<path d="M7.49881 22.1607C6.24253 22.1607 5.4409 21.5403 5.22972 20.4351C5.00559 20.6861 4.77985 20.9181 4.55253 21.1313C3.82269 21.8138 3.08687 22.1607 2.3642 22.1607C0.861451 22.1607 0 21.3219 0 19.8596C0 19.7809 0.00358927 19.6968 0.0101698 19.6104C0.0143574 18.163 0.420556 16.506 1.2168 14.6838C2.00347 12.8835 2.61726 11.6054 3.09345 10.7766L3.27292 10.4634H3.63664C4.20515 10.4667 4.76219 10.622 5.24887 10.9128C5.51862 11.0637 5.75438 11.2676 5.9417 11.5119C6.12902 11.7562 6.26396 12.0358 6.33824 12.3336L6.39268 12.5431L6.30355 12.7409C5.94461 13.5294 5.56354 14.434 5.16332 15.4285C4.85758 16.1719 4.59923 16.9335 4.38981 17.7089C4.43647 17.6383 4.48672 17.5611 4.54056 17.4774C5.04368 16.6889 5.58986 15.7606 6.16296 14.7093C6.74205 13.6508 7.2637 12.6793 7.71357 11.8215L7.72075 11.8073C7.96005 11.3828 8.13473 11.0489 8.2466 10.8157L8.4159 10.4605H8.81252C9.3807 10.4649 9.93712 10.6212 10.423 10.9128C10.4571 10.9329 10.4906 10.953 10.5229 10.972C10.2779 10.767 10.069 10.5231 9.90489 10.2503C9.52442 9.62043 9.33179 8.96391 9.33179 8.29673C9.33384 7.8943 9.40006 7.49472 9.52801 7.11273C9.80798 6.19513 10.3266 5.48473 11.0708 5.00166C11.7887 4.53457 12.5574 4.29126 13.3525 4.27469H13.3806H13.4069C15.7568 4.42624 17.1692 5.53328 17.5347 7.49279C18.7587 7.08195 20.0371 6.62255 21.3448 6.12291C22.9553 5.51552 24.4766 4.97976 25.8686 4.52925L25.883 4.52451L25.898 4.52037C27.1704 4.17523 28.3692 4 29.4604 4H29.4814H29.5023C32.0998 4.17227 33.7575 5.03008 34.4281 6.54915L34.4365 6.5675L34.4431 6.58644C34.6878 7.25363 34.8068 7.82135 34.8068 8.32218C34.8068 8.76914 34.6656 9.238 34.388 9.71634C34.074 10.2551 33.5505 10.6043 32.8386 10.7636C32.5928 10.823 32.3409 10.8544 32.0878 10.8571C31.7482 10.8643 31.4127 10.7826 31.1151 10.6203L30.7999 10.4427V10.0052C30.7999 9.36469 30.4002 8.81236 29.5789 8.31626C29.0159 7.97409 28.2556 7.80122 27.3182 7.80122C26.6819 7.80749 26.0474 7.8685 25.4218 7.98356C23.4273 8.45716 21.5775 9.12908 19.924 9.97859L19.9151 9.98333L19.9055 9.98807C18.9878 10.4214 18.0881 10.8062 17.2254 11.1342C16.754 12.5212 15.9979 14.0314 14.9755 15.6286C13.8849 17.3318 12.6705 18.8396 11.3658 20.1112C9.95335 21.487 8.70185 22.156 7.5371 22.156L7.49881 22.1607ZM10.7968 11.1762C11.1517 11.4821 11.3995 11.8914 11.5046 12.3454L11.5548 12.5491L11.4693 12.7409C11.1181 13.5335 10.7388 14.4387 10.3428 15.4309C10.0322 16.192 9.7709 16.9718 9.56031 17.7657C9.93002 17.3111 10.3948 16.6279 10.9644 15.6038C11.6936 14.2913 12.2482 13.0084 12.6173 11.7806C11.8898 11.6978 11.283 11.4957 10.7968 11.1744V11.1762ZM12.2571 8.25943C12.3696 8.39559 12.5784 8.54951 13.0588 8.54951C13.1293 8.54951 13.2047 8.54596 13.2837 8.53885C13.2947 8.44055 13.3005 8.34175 13.301 8.24285C13.301 7.66151 13.0923 7.63014 12.9248 7.60527H12.9176H12.9008C12.7856 7.61026 12.672 7.63406 12.5646 7.67572C12.473 7.71577 12.3923 7.77661 12.3289 7.85332C12.2903 7.95225 12.2647 8.05573 12.2529 8.16116V8.18543C12.253 8.20956 12.2544 8.23367 12.2571 8.25765V8.25943Z" fill="#070707"/>
<path d="M18.7662 22.1487C17.6624 22.1487 16.777 21.88 16.1339 21.3501C15.4801 20.8096 15.0894 20.0122 14.9722 18.9821C14.937 18.6573 14.9193 18.3309 14.9189 18.0042C14.9189 16.459 15.3903 14.8269 16.3194 13.1498C17.3161 11.3542 18.75 10.4443 20.5818 10.4443C21.3374 10.4443 22.0463 10.7344 22.6888 11.3069C23.2995 11.861 23.6076 12.6554 23.6076 13.6749C23.6076 13.7838 23.6034 13.8963 23.5963 14.0088V14.023V14.0378C23.4939 14.9604 23.1803 15.8479 22.6792 16.6325C23.1228 15.9991 23.5283 15.3405 23.8936 14.66L24.0731 14.3349H26.3942L26.0317 15.1933C25.1385 17.3121 24.0096 19.0076 22.6756 20.2318C21.2674 21.5206 19.9895 22.1487 18.7662 22.1487ZM19.892 15.455C19.8561 15.5574 19.8322 15.6433 19.8119 15.7161C19.8555 15.6788 19.9034 15.6362 19.9566 15.5853C20.1656 15.3624 20.3333 15.1049 20.452 14.8245C20.5283 14.6586 20.5933 14.4877 20.6464 14.313C20.3814 14.5564 20.1253 14.9382 19.8932 15.455H19.892Z" fill="#070707"/>
<path d="M21.8276 27.7397C18.8789 27.7397 17.9193 26.294 17.6334 25.0816L17.6268 25.0532L17.6226 25.0248C17.5933 24.8188 17.5782 24.6112 17.5771 24.4032C17.5771 23.5282 17.8852 22.8048 18.4912 22.2554C19.0129 21.7822 19.6979 21.5246 20.4056 21.5355C20.7302 21.5387 21.0533 21.5811 21.3675 21.6616L21.7683 21.7611L21.8341 22.1642C21.885 22.4756 22.0202 23.3033 23.8861 23.4033C24.1547 23.4151 24.4341 23.4217 24.711 23.4217C25.8142 23.4217 27.0364 23.3033 28.3531 23.0665C28.0679 22.309 27.9232 21.5068 27.9259 20.6985C27.9259 20.3054 27.9959 19.6583 28.1407 18.7194C28.2831 17.7906 28.5594 16.7291 28.9537 15.5635C29.1194 15.0307 29.2438 14.5802 29.3252 14.2184C29.0452 14.4031 28.7377 14.743 28.4278 15.2171C27.8328 16.1332 27.3927 17.1392 27.1249 18.1955C27.002 18.6324 26.9356 19.0829 26.9275 19.5364C26.9177 19.8978 26.9905 20.2568 27.1404 20.5866L27.3337 20.9826L27.0208 21.294C26.4405 21.8688 25.7466 22.1601 24.9587 22.1601C23.45 22.1601 22.5843 21.3212 22.5843 19.859C22.5843 19.7749 22.5885 19.685 22.5957 19.592C22.6956 17.9603 23.0801 16.3579 23.7323 14.856C24.3766 13.3518 25.0078 12.0464 25.6084 10.9761C25.6491 10.9021 25.6933 10.8257 25.737 10.7535L25.9165 10.4521H26.2712C26.7893 10.4521 27.3409 10.596 27.9104 10.8802C28.2086 11.0242 28.475 11.2254 28.694 11.4722C29.4873 10.7955 30.3308 10.4539 31.2066 10.4539C33.6851 10.4539 34.0554 11.7238 34.0554 12.4809C34.0554 12.504 34.0554 12.5301 34.0249 13.3062C34.0021 13.8934 33.7258 14.8785 33.1485 16.4065C32.7446 17.5267 32.43 18.6765 32.2075 19.8454C32.1502 20.1528 32.1208 20.4646 32.1195 20.7772C32.1166 21.2712 32.2038 21.7618 32.3768 22.2252C32.4964 22.1956 32.6145 22.165 32.7309 22.1335C33.0898 22.0393 33.4296 21.9559 33.7401 21.8913H33.7515H33.7623C34.4724 21.7575 35.193 21.6854 35.9159 21.6758C37.0687 21.6758 37.9241 21.9126 38.5319 22.401C39.1708 22.9131 39.4945 23.5093 39.4945 24.1723C39.4945 24.5624 39.3186 25.055 38.9405 25.7216C38.511 26.4787 37.4258 26.9363 35.5264 27.1619L35.4989 27.1655H35.4714C35.259 27.1726 35.0526 27.1755 34.8492 27.1755C32.5796 27.1755 30.929 26.6711 29.933 25.6742C28.6103 26.1602 27.2649 26.6155 25.9248 27.0299C24.4047 27.4999 23.0246 27.7397 21.8276 27.7397ZM34.7858 24.0693C34.9055 24.0746 35.0167 24.0776 35.119 24.0776C35.4054 24.0846 35.6909 24.0431 35.9631 23.955C35.9243 23.9515 35.8806 23.9491 35.8297 23.9491C35.7789 23.9491 35.7161 23.9521 35.6557 23.9568H35.6293H35.603C35.3012 23.9611 35.0006 23.9952 34.7057 24.0586L34.7858 24.0693Z" fill="#070707"/>
<path d="M7.49881 22.1607C6.24253 22.1607 5.4409 21.5403 5.22972 20.4351C5.00559 20.6861 4.77985 20.9181 4.55253 21.1313C3.82269 21.8138 3.08687 22.1607 2.3642 22.1607C0.861451 22.1607 0 21.3219 0 19.8596C0 19.7809 0.00358927 19.6968 0.0101698 19.6104C0.0143574 18.163 0.420556 16.506 1.2168 14.6838C2.00347 12.8835 2.61726 11.6054 3.09345 10.7766L3.27292 10.4634H3.63664C4.20515 10.4667 4.76219 10.622 5.24887 10.9128C5.51862 11.0637 5.75438 11.2676 5.9417 11.5119C6.12902 11.7562 6.26396 12.0358 6.33824 12.3336L6.39268 12.5431L6.30355 12.7409C5.94461 13.5294 5.56354 14.434 5.16332 15.4285C4.85758 16.1719 4.59923 16.9335 4.38981 17.7089C4.43647 17.6383 4.48672 17.5611 4.54056 17.4774C5.04368 16.6889 5.58986 15.7606 6.16296 14.7093C6.74205 13.6508 7.2637 12.6793 7.71357 11.8215L7.72075 11.8073C7.96005 11.3828 8.13473 11.0489 8.2466 10.8157L8.4159 10.4605H8.81252C9.3807 10.4649 9.93712 10.6212 10.423 10.9128C10.4571 10.9329 10.4906 10.953 10.5229 10.972C10.2779 10.767 10.069 10.5231 9.90489 10.2503C9.52442 9.62043 9.33179 8.96391 9.33179 8.29673C9.33384 7.8943 9.40006 7.49472 9.52801 7.11273C9.80798 6.19513 10.3266 5.48473 11.0708 5.00166C11.7887 4.53457 12.5574 4.29126 13.3525 4.27469H13.3806H13.4069C15.7568 4.42624 17.1692 5.53328 17.5347 7.49279C18.7587 7.08195 20.0371 6.62255 21.3448 6.12291C22.9553 5.51552 24.4766 4.97976 25.8686 4.52925L25.883 4.52451L25.898 4.52037C27.1704 4.17523 28.3692 4 29.4604 4H29.4814H29.5023C32.0998 4.17227 33.7575 5.03008 34.4281 6.54915L34.4365 6.5675L34.4431 6.58644C34.6878 7.25363 34.8068 7.82135 34.8068 8.32218C34.8068 8.76914 34.6656 9.238 34.388 9.71634C34.074 10.2551 33.5505 10.6043 32.8386 10.7636C32.5928 10.823 32.3409 10.8544 32.0878 10.8571C31.7482 10.8643 31.4127 10.7826 31.1151 10.6203L30.7999 10.4427V10.0052C30.7999 9.36469 30.4002 8.81236 29.5789 8.31626C29.0159 7.97409 28.2556 7.80122 27.3182 7.80122C26.6819 7.80749 26.0474 7.8685 25.4218 7.98356C23.4273 8.45716 21.5775 9.12908 19.924 9.97859L19.9151 9.98333L19.9055 9.98807C18.9878 10.4214 18.0881 10.8062 17.2254 11.1342C16.754 12.5212 15.9979 14.0314 14.9755 15.6286C13.8849 17.3318 12.6705 18.8396 11.3658 20.1112C9.95335 21.487 8.70185 22.156 7.5371 22.156L7.49881 22.1607ZM10.7968 11.1762C11.1517 11.4821 11.3995 11.8914 11.5046 12.3454L11.5548 12.5491L11.4693 12.7409C11.1181 13.5335 10.7388 14.4387 10.3428 15.4309C10.0322 16.192 9.7709 16.9718 9.56031 17.7657C9.93002 17.3111 10.3948 16.6279 10.9644 15.6038C11.6936 14.2913 12.2482 13.0084 12.6173 11.7806C11.8898 11.6978 11.283 11.4957 10.7968 11.1744V11.1762ZM12.2571 8.25943C12.3696 8.39559 12.5784 8.54951 13.0588 8.54951C13.1293 8.54951 13.2047 8.54596 13.2837 8.53885C13.2947 8.44055 13.3005 8.34175 13.301 8.24285C13.301 7.66151 13.0923 7.63014 12.9248 7.60527H12.9176H12.9008C12.7856 7.61026 12.672 7.63406 12.5646 7.67572C12.473 7.71577 12.3923 7.77661 12.3289 7.85332C12.2903 7.95225 12.2647 8.05573 12.2529 8.16116V8.18543C12.253 8.20956 12.2544 8.23367 12.2571 8.25765V8.25943Z" fill="#070707"/>
<path d="M18.7662 22.1487C17.6624 22.1487 16.777 21.88 16.1339 21.3501C15.4801 20.8096 15.0894 20.0122 14.9722 18.9821C14.937 18.6573 14.9193 18.3309 14.9189 18.0042C14.9189 16.459 15.3903 14.8269 16.3194 13.1498C17.3161 11.3542 18.75 10.4443 20.5818 10.4443C21.3374 10.4443 22.0463 10.7344 22.6888 11.3069C23.2995 11.861 23.6076 12.6554 23.6076 13.6749C23.6076 13.7838 23.6034 13.8963 23.5963 14.0088V14.023V14.0378C23.4939 14.9604 23.1803 15.8479 22.6792 16.6325C23.1228 15.9991 23.5283 15.3405 23.8936 14.66L24.0731 14.3349H26.3942L26.0317 15.1933C25.1385 17.3121 24.0096 19.0076 22.6756 20.2318C21.2674 21.5206 19.9895 22.1487 18.7662 22.1487ZM19.892 15.455C19.8561 15.5574 19.8322 15.6433 19.8119 15.7161C19.8555 15.6788 19.9034 15.6362 19.9566 15.5853C20.1656 15.3624 20.3333 15.1049 20.452 14.8245C20.5283 14.6586 20.5933 14.4877 20.6464 14.313C20.3814 14.5564 20.1253 14.9382 19.8932 15.455H19.892Z" fill="#070707"/>
<path d="M21.8276 27.7397C18.8789 27.7397 17.9193 26.294 17.6334 25.0816L17.6268 25.0532L17.6226 25.0248C17.5933 24.8188 17.5782 24.6112 17.5771 24.4032C17.5771 23.5282 17.8852 22.8048 18.4912 22.2554C19.0129 21.7822 19.6979 21.5246 20.4056 21.5355C20.7302 21.5387 21.0533 21.5811 21.3675 21.6616L21.7683 21.7611L21.8341 22.1642C21.885 22.4756 22.0202 23.3033 23.8861 23.4033C24.1547 23.4151 24.4341 23.4217 24.711 23.4217C25.8142 23.4217 27.0364 23.3033 28.3531 23.0665C28.0679 22.309 27.9232 21.5068 27.9259 20.6985C27.9259 20.3054 27.9959 19.6583 28.1407 18.7194C28.2831 17.7906 28.5594 16.7291 28.9537 15.5635C29.1194 15.0307 29.2438 14.5802 29.3252 14.2184C29.0452 14.4031 28.7377 14.743 28.4278 15.2171C27.8328 16.1332 27.3927 17.1392 27.1249 18.1955C27.002 18.6324 26.9356 19.0829 26.9275 19.5364C26.9177 19.8978 26.9905 20.2568 27.1404 20.5866L27.3337 20.9826L27.0208 21.294C26.4405 21.8688 25.7466 22.1601 24.9587 22.1601C23.45 22.1601 22.5843 21.3212 22.5843 19.859C22.5843 19.7749 22.5885 19.685 22.5957 19.592C22.6956 17.9603 23.0801 16.3579 23.7323 14.856C24.3766 13.3518 25.0078 12.0464 25.6084 10.9761C25.6491 10.9021 25.6933 10.8257 25.737 10.7535L25.9165 10.4521H26.2712C26.7893 10.4521 27.3409 10.596 27.9104 10.8802C28.2086 11.0242 28.475 11.2254 28.694 11.4722C29.4873 10.7955 30.3308 10.4539 31.2066 10.4539C33.6851 10.4539 34.0554 11.7238 34.0554 12.4809C34.0554 12.504 34.0554 12.5301 34.0249 13.3062C34.0021 13.8934 33.7258 14.8785 33.1485 16.4065C32.7446 17.5267 32.43 18.6765 32.2075 19.8454C32.1502 20.1528 32.1208 20.4646 32.1195 20.7772C32.1166 21.2712 32.2038 21.7618 32.3768 22.2252C32.4964 22.1956 32.6145 22.165 32.7309 22.1335C33.0898 22.0393 33.4296 21.9559 33.7401 21.8913H33.7515H33.7623C34.4724 21.7575 35.193 21.6854 35.9159 21.6758C37.0687 21.6758 37.9241 21.9126 38.5319 22.401C39.1708 22.9131 39.4945 23.5093 39.4945 24.1723C39.4945 24.5624 39.3186 25.055 38.9405 25.7216C38.511 26.4787 37.4258 26.9363 35.5264 27.1619L35.4989 27.1655H35.4714C35.259 27.1726 35.0526 27.1755 34.8492 27.1755C32.5796 27.1755 30.929 26.6711 29.933 25.6742C28.6103 26.1602 27.2649 26.6155 25.9248 27.0299C24.4047 27.4999 23.0246 27.7397 21.8276 27.7397ZM34.7858 24.0693C34.9055 24.0746 35.0167 24.0776 35.119 24.0776C35.4054 24.0846 35.6909 24.0431 35.9631 23.955C35.9243 23.9515 35.8806 23.9491 35.8297 23.9491C35.7789 23.9491 35.7161 23.9521 35.6557 23.9568H35.6293H35.603C35.3012 23.9611 35.0006 23.9952 34.7057 24.0586L34.7858 24.0693Z" fill="#070707"/>
<path d="M29.46 4.625C31.8167 4.78287 33.2813 5.50925 33.854 6.80415C34.071 7.39615 34.1797 7.90428 34.1801 8.32854C34.1801 8.66717 34.0682 9.02868 33.8445 9.41309C33.6207 9.79749 33.2389 10.0483 32.6989 10.1655C32.4986 10.2147 32.2932 10.2409 32.0869 10.2437C31.8561 10.2494 31.6278 10.1947 31.4252 10.085V10.0069C31.4252 9.1386 30.9183 8.39919 29.9045 7.78864C29.2393 7.38569 28.3775 7.18421 27.319 7.18421C26.6397 7.19052 25.9623 7.25589 25.2946 7.37957C23.2331 7.86896 21.3465 8.5537 19.6347 9.43381C18.6273 9.90741 17.6562 10.3179 16.7213 10.6652C16.2739 12.086 15.5161 13.6315 14.4481 15.3017C13.38 16.9719 12.2065 18.4298 10.9275 19.6754C9.65127 20.9198 8.52221 21.542 7.54032 21.542H7.50083C6.36898 21.542 5.80286 20.9653 5.80246 19.8121V19.6345C5.80557 19.2635 5.84564 18.8937 5.9221 18.5305C5.33664 19.39 4.73841 20.1066 4.12741 20.68C3.51642 21.2535 2.92856 21.5402 2.36384 21.5402C1.20486 21.5402 0.625578 20.9798 0.625977 19.8589C0.625977 19.7873 0.629566 19.7127 0.635549 19.6345C0.635549 18.2599 1.02081 16.6915 1.79133 14.9293C2.56185 13.1671 3.17723 11.8845 3.63747 11.0813C4.09388 11.0835 4.54112 11.2083 4.93144 11.4425C5.13006 11.5533 5.30355 11.7033 5.44114 11.8833C5.57872 12.0632 5.67748 12.2692 5.73127 12.4885C5.36874 13.2893 4.98528 14.1931 4.58087 15.1999C4.17647 16.2067 3.88513 17.0947 3.70686 17.8639C3.65374 18.0717 3.62385 18.2848 3.61772 18.4991C3.61772 18.8444 3.74295 19.0171 3.99341 19.0171C4.19761 19.0171 4.55655 18.6147 5.07023 17.81C5.58391 17.0053 6.13188 16.0705 6.71416 15.0057C7.29684 13.9401 7.8153 12.9744 8.26956 12.1085C8.51284 11.672 8.6939 11.33 8.81275 11.0825C9.26896 11.0848 9.716 11.2096 10.1061 11.4436C10.3042 11.5539 10.4769 11.7039 10.613 11.884C10.7491 12.0642 10.8456 12.2705 10.8964 12.4897C10.5402 13.2905 10.1614 14.1943 9.75975 15.2011C9.35814 16.2078 9.06859 17.0958 8.89112 17.8651C8.83746 18.0762 8.80757 18.2926 8.80198 18.5103C8.80198 18.849 8.92063 19.0183 9.15793 19.0183C9.82236 18.5691 10.6072 17.53 11.5126 15.9008C12.4179 14.2716 13.0548 12.705 13.4233 11.2009H13.394C11.9391 11.2009 10.9548 10.7774 10.4411 9.93049C10.1189 9.39651 9.95776 8.85246 9.95776 8.29835C9.95989 7.95956 10.0164 7.62325 10.1253 7.30202C10.3622 6.52019 10.7917 5.9272 11.4139 5.52306C12.036 5.11893 12.6861 4.91054 13.3641 4.89791C15.6948 5.04789 16.9062 6.19123 16.9983 8.32795C18.4596 7.85435 19.9835 7.31366 21.57 6.70588C23.176 6.09967 24.6738 5.572 26.0633 5.12287C27.2873 4.79056 28.4195 4.62461 29.46 4.625ZM13.0213 6.98944C12.9817 6.98329 12.9417 6.98012 12.9016 6.97997C12.714 6.98448 12.5284 7.02072 12.3531 7.08712C12.1537 7.15935 11.9644 7.30597 11.7854 7.52698C11.6989 7.71836 11.6451 7.92261 11.6262 8.13141V8.17995C11.6193 8.31162 11.6465 8.44284 11.7052 8.5612C11.9884 8.96494 12.4394 9.16681 13.0584 9.16681C13.3174 9.16354 13.5754 9.13398 13.8283 9.07861C13.89 8.80244 13.923 8.52077 13.927 8.23797C13.927 7.496 13.6251 7.07982 13.0213 6.98944Z" fill="url(#paint0_linear_153_1947)"/>
<path style="mix-blend-mode:overlay" d="M7.49976 21.1252C6.60241 21.1252 6.22015 20.7315 6.22015 19.8097V19.6321C6.22296 19.2884 6.26003 18.9457 6.33082 18.6092C6.34942 18.5158 6.33495 18.4189 6.28985 18.3348C6.24474 18.2507 6.17175 18.1845 6.08315 18.1474C6.03225 18.126 5.97753 18.115 5.92223 18.1149C5.85358 18.1148 5.78598 18.1315 5.72537 18.1634C5.66476 18.1953 5.613 18.2414 5.57466 18.2978C5.00813 19.1266 4.42366 19.8293 3.8368 20.3781C3.30797 20.8736 2.81323 21.1252 2.36695 21.1252C1.44209 21.1252 1.04785 20.7463 1.04785 19.8583C1.04785 19.7991 1.05084 19.7351 1.05623 19.6677C1.05682 19.6564 1.05682 19.6452 1.05623 19.6339C1.05623 18.3226 1.43371 16.7923 2.17731 15.0933C2.87006 13.5091 3.44137 12.3062 3.87808 11.5117C4.17625 11.5487 4.46323 11.6473 4.72038 11.8012C4.98379 11.9462 5.18493 12.181 5.28631 12.4619C4.94233 13.2315 4.57501 14.0987 4.19275 15.0477C3.78236 16.0695 3.48145 16.9853 3.30019 17.7709C3.23952 18.009 3.20601 18.253 3.20028 18.4985C3.20028 19.1858 3.61067 19.4309 3.99473 19.4309C4.32615 19.4309 4.6809 19.1941 5.4251 18.0308C5.94077 17.2227 6.49892 16.2708 7.08339 15.2022C7.66786 14.1337 8.18772 13.1651 8.63879 12.3014C8.81347 11.9883 8.95465 11.7266 9.06592 11.5099C9.35962 11.5495 9.64189 11.6487 9.89507 11.8012C10.1564 11.9458 10.3542 12.1812 10.4502 12.4619C10.1104 13.2315 9.74731 14.1023 9.36923 15.0501C8.96183 16.0707 8.66332 16.9871 8.48205 17.7733C8.42088 18.0147 8.38737 18.2621 8.38215 18.5109C8.38215 19.1905 8.78236 19.4332 9.15686 19.4332C9.24097 19.4331 9.3231 19.408 9.39256 19.361C10.1194 18.8696 10.9324 17.8035 11.8788 16.1015C12.7971 14.4486 13.4533 12.8324 13.8296 11.2992C13.8446 11.2382 13.8453 11.1746 13.8318 11.1133C13.8183 11.052 13.7909 10.9945 13.7517 10.9451C13.7125 10.8958 13.6624 10.856 13.6053 10.8286C13.5483 10.8012 13.4857 10.787 13.4222 10.7871H13.3929C12.084 10.7871 11.2357 10.4372 10.7996 9.71794C10.5178 9.25204 10.3755 8.77429 10.3755 8.29714C10.3778 8.00201 10.4272 7.7091 10.522 7.42927L10.5256 7.4198C10.735 6.72775 11.1005 6.22041 11.6425 5.86876C12.1845 5.51712 12.7654 5.32649 13.354 5.31169C15.4706 5.45259 16.4953 6.41695 16.5785 8.3445C16.5831 8.4513 16.6293 8.5522 16.7073 8.62611C16.7854 8.70003 16.8892 8.74124 16.9973 8.74114C17.0416 8.74101 17.0856 8.73402 17.1277 8.72042C18.5873 8.24682 20.132 7.69745 21.7197 7.09124C23.3074 6.48503 24.8083 5.96644 26.1825 5.5183C27.3556 5.20099 28.4557 5.03878 29.4446 5.0376C31.6066 5.18323 32.9586 5.8291 33.4641 6.95627C33.6603 7.49558 33.7632 7.95615 33.7632 8.32674C33.7632 8.59018 33.6687 8.88559 33.4833 9.20468C33.3194 9.48588 33.034 9.66703 32.611 9.75879H32.6045C32.4357 9.8004 32.2627 9.82285 32.0888 9.82568C32.0043 9.82652 31.9201 9.81798 31.8375 9.80023C31.764 8.87197 31.1891 8.07692 30.1242 7.43223C29.3956 6.99475 28.4516 6.76919 27.3203 6.76919C26.6164 6.77555 25.9143 6.8431 25.2223 6.97107L25.1984 6.9758C23.1171 7.46953 21.1831 8.17045 19.4512 9.05964C18.4623 9.52672 17.4956 9.9352 16.5797 10.2738C16.5198 10.2959 16.4658 10.3312 16.4219 10.377C16.3779 10.4229 16.3451 10.4781 16.326 10.5384C15.8917 11.9178 15.1409 13.4446 14.0958 15.0773C13.0507 16.71 11.8824 18.1604 10.6357 19.3764C9.4458 20.5355 8.40488 21.124 7.54224 21.124L7.49976 21.1252ZM12.903 6.56495C12.6669 6.56938 12.4334 6.61404 12.2126 6.69697C11.9386 6.79465 11.685 6.98705 11.4588 7.26884C11.4347 7.29802 11.4145 7.33028 11.399 7.36474C11.2945 7.59903 11.2302 7.84893 11.2088 8.10415C11.2088 8.11362 11.2088 8.12309 11.2088 8.13257V8.18111C11.2006 8.38518 11.247 8.58777 11.3434 8.76837C11.3494 8.77844 11.3554 8.7885 11.3625 8.79857C11.7269 9.31893 12.2982 9.58237 13.0597 9.58237C13.3474 9.57903 13.6341 9.54669 13.9152 9.48588C13.995 9.46935 14.0682 9.43012 14.1258 9.37302C14.1834 9.31592 14.2229 9.24342 14.2394 9.16442C14.307 8.86062 14.3431 8.55078 14.3471 8.23972C14.3471 6.961 13.555 6.65079 13.083 6.58212C13.0235 6.57191 12.9633 6.56617 12.903 6.56495V6.56495Z" fill="url(#paint1_linear_153_1947)"/>
<path d="M20.5838 11.063C21.182 11.063 21.7448 11.2974 22.272 11.7663C22.7458 12.1961 22.9829 12.8313 22.9833 13.6719C22.9833 13.7696 22.9797 13.8673 22.9731 13.9679C22.8467 15.1097 22.3634 16.184 21.5906 17.041C20.801 17.9365 19.9122 18.4006 18.9243 18.4334C18.967 18.6426 19.0711 18.8347 19.2234 18.9857C19.3898 19.1544 19.6128 19.257 19.8504 19.274C19.9353 19.287 20.0211 19.2935 20.107 19.2935C21.4171 19.2935 22.8623 17.8473 24.4424 14.9548H25.4492C24.5866 17.0007 23.5185 18.6082 22.2451 19.7772C20.9717 20.9462 19.8117 21.5299 18.7652 21.5283C16.8509 21.5283 15.794 20.6553 15.5946 18.9093C15.5618 18.6075 15.5452 18.3042 15.5449 18.0006C15.5449 16.5542 15.986 15.0363 16.8682 13.447C17.7504 11.8576 18.9889 11.063 20.5838 11.063ZM21.1659 13.3884C21.1369 13.3816 21.1071 13.3785 21.0774 13.3789C20.8664 13.3789 20.5882 13.5318 20.2428 13.8377C19.8974 14.1436 19.5864 14.6061 19.3096 15.2253C19.1979 15.5383 19.1421 15.7948 19.1421 15.9949C19.1421 16.1974 19.1941 16.3501 19.3 16.4543C19.3614 16.5113 19.4425 16.5429 19.5267 16.5425C19.7437 16.5425 20.0334 16.3699 20.396 16.0245C20.6606 15.7485 20.873 15.4277 21.0229 15.0773C21.1888 14.7313 21.3004 14.3621 21.3537 13.9827C21.3603 13.9111 21.3639 13.846 21.3639 13.7874C21.3639 13.5677 21.2975 13.4339 21.1659 13.3884V13.3884Z" fill="url(#paint2_linear_153_1947)"/>
<path style="mix-blend-mode:overlay" d="M18.7634 21.1154C17.0584 21.1154 16.1838 20.4002 16.0115 18.8658C15.9808 18.5792 15.9652 18.2913 15.9648 18.0032C15.9648 16.6345 16.3926 15.1693 17.2367 13.6491C18.0467 12.1892 19.1408 11.48 20.5826 11.48C21.0785 11.48 21.5397 11.6753 21.9908 12.0767C22.3749 12.4254 22.5633 12.9487 22.5633 13.6751C22.5633 13.7586 22.5633 13.845 22.5549 13.9314C22.4341 14.9845 21.9874 15.9749 21.2759 16.7671C20.5581 17.5799 19.7857 17.989 18.9111 18.018C18.8506 18.02 18.7913 18.035 18.7372 18.0618C18.6831 18.0887 18.6356 18.1269 18.5978 18.1737C18.56 18.2205 18.533 18.2749 18.5185 18.333C18.504 18.3912 18.5025 18.4517 18.5139 18.5106C18.5726 18.7984 18.7153 19.0629 18.9243 19.2713C19.1561 19.5095 19.4672 19.6567 19.8001 19.6857C19.9027 19.7011 20.0062 19.7088 20.11 19.7088C21.5649 19.7088 23.0652 18.288 24.6936 15.37H24.8133C24.0236 17.0832 23.0664 18.462 21.9639 19.4743C20.7728 20.563 19.6978 21.1154 18.7634 21.1154ZM21.0743 12.9659C20.7495 12.9659 20.3953 13.1435 19.9604 13.5307C19.5728 13.8734 19.224 14.3897 18.9249 15.0574C18.9207 15.0669 18.9165 15.077 18.9129 15.0864C18.7837 15.447 18.7215 15.7447 18.7215 15.9969C18.7215 16.3125 18.816 16.5652 19.0021 16.75L19.0176 16.7642C19.156 16.8899 19.3371 16.9594 19.5249 16.9589C19.8629 16.9589 20.2314 16.7571 20.6849 16.3249L20.6903 16.3196C20.9907 16.008 21.232 15.6454 21.4028 15.2492C21.586 14.8644 21.709 14.4542 21.7677 14.0327C21.7679 14.0289 21.7679 14.0252 21.7677 14.0214C21.7754 13.9356 21.7796 13.8592 21.7796 13.7888C21.7796 13.2441 21.4805 13.0588 21.3011 12.9973C21.2885 12.9925 21.2753 12.989 21.2628 12.9854C21.2013 12.9717 21.1385 12.9652 21.0755 12.9659H21.0743Z" fill="url(#paint3_linear_153_1947)"/>
<path d="M26.2706 11.0737C26.6918 11.0737 27.1444 11.1943 27.6286 11.4354C28.1128 11.6766 28.4173 12.0284 28.5421 12.491C29.3908 11.5461 30.2794 11.0737 31.2078 11.0737C32.689 11.0737 33.4296 11.5428 33.4296 12.4809C33.4296 12.507 33.4199 12.7741 33.4003 13.2825C33.3808 13.7908 33.1016 14.7615 32.5628 16.1945C32.146 17.3473 31.8217 18.5308 31.5931 19.7341C31.5285 20.0789 31.4955 20.4288 31.4944 20.7795C31.4878 21.534 31.6675 22.2786 32.0178 22.9486C32.3141 22.8835 32.6071 22.8119 32.8966 22.7337C33.2452 22.6426 33.571 22.5636 33.8741 22.4969C34.5482 22.3697 35.2322 22.3011 35.9183 22.2921C36.9125 22.2921 37.6532 22.4875 38.1401 22.8782C38.6271 23.2689 38.8705 23.6989 38.8705 24.1681C38.8705 24.4417 38.7126 24.8561 38.3967 25.4113C38.0809 25.9666 37.1004 26.3435 35.4553 26.5421C35.2511 26.5484 35.0503 26.5515 34.8528 26.5515C32.5229 26.5515 30.9464 26.0142 30.1232 24.9395C28.6747 25.4798 27.2148 25.9781 25.7436 26.4343C24.2723 26.8906 22.9672 27.1187 21.8282 27.1187C19.781 27.1187 18.5862 26.3923 18.2436 24.9395C18.2184 24.7614 18.2052 24.5818 18.2041 24.402C18.2041 23.7046 18.4412 23.141 18.9154 22.7112C19.3216 22.3431 19.8554 22.1436 20.4062 22.1542C20.68 22.1573 20.9525 22.1937 21.2174 22.2625C21.3949 23.3506 22.2737 23.9369 23.8538 24.0213C24.1369 24.0344 24.4233 24.0409 24.7128 24.0409C26.0756 24.0409 27.5865 23.8682 29.2456 23.5229C28.7864 22.6513 28.549 21.682 28.5541 20.699C28.5541 20.3411 28.6233 19.7124 28.7617 18.8129C28.9001 17.9135 29.1633 16.8941 29.5513 15.7547C29.7306 15.203 29.879 14.6419 29.9958 14.074C30.0142 13.9837 30.0242 13.892 30.0257 13.7999C30.0257 13.5591 29.9302 13.4388 29.7392 13.4388C29.1338 13.4585 28.5216 13.9388 27.9026 14.8797C27.2703 15.8516 26.8033 16.9195 26.5201 18.041C26.3836 18.5282 26.3104 19.0308 26.3023 19.5363C26.3023 20.038 26.3945 20.4776 26.5787 20.8553C26.1153 21.3112 25.5749 21.5393 24.9575 21.5397C23.7922 21.5397 23.2095 20.9792 23.2095 19.8584C23.2095 19.7868 23.2131 19.7122 23.2197 19.634C23.3127 18.0717 23.6801 16.5374 24.3054 15.0999C24.9436 13.6081 25.5591 12.3345 26.1522 11.2792C26.1917 11.2093 26.2311 11.1389 26.2706 11.0737ZM35.603 23.3376C34.9115 23.3376 34.0129 23.5394 32.9074 23.9432C33.5056 24.386 34.1178 24.6337 34.744 24.6861C34.8756 24.6921 35.0006 24.6956 35.119 24.6956C35.5797 24.6956 35.9713 24.6271 36.294 24.4902C36.6625 24.3402 36.8469 24.1678 36.8473 23.9728C36.8477 23.9495 36.8442 23.9263 36.8372 23.9041C36.6988 23.5197 36.363 23.3275 35.8297 23.3275C35.7544 23.3275 35.6814 23.3311 35.6024 23.3376H35.603Z" fill="url(#paint4_linear_153_1947)"/>
<path style="mix-blend-mode:overlay" d="M21.8272 26.704C19.9936 26.704 18.9557 26.102 18.6565 24.8635C18.6351 24.7105 18.6239 24.5562 18.623 24.4018C18.623 23.821 18.8115 23.3675 19.1985 23.0165C19.5274 22.7181 19.9603 22.5574 20.4064 22.5683C20.5605 22.5693 20.7142 22.5835 20.8658 22.611C21.0997 23.4398 21.823 24.3278 23.83 24.4343C24.1232 24.4479 24.4187 24.4544 24.7118 24.4544C26.0967 24.4544 27.6509 24.2768 29.3308 23.9276C29.3939 23.9144 29.4531 23.8869 29.5038 23.8474C29.5544 23.8078 29.5951 23.7572 29.6228 23.6995C29.6504 23.6418 29.6642 23.5785 29.663 23.5147C29.6619 23.4508 29.6458 23.3881 29.6161 23.3314C29.1887 22.5183 28.9672 21.6147 28.9706 20.6982C28.9706 20.3625 29.0388 19.751 29.1734 18.8749C29.308 17.9987 29.5671 16.9976 29.9463 15.8859C29.9463 15.8859 29.9463 15.8793 29.9493 15.8758C30.1336 15.3088 30.2858 14.7321 30.4052 14.1483C30.4287 14.0333 30.4411 13.9164 30.4423 13.7991C30.4423 13.2266 30.0624 13.0235 29.737 13.0235H29.7232C28.9652 13.0478 28.2539 13.5812 27.5492 14.6533C26.8931 15.6632 26.4081 16.7724 26.1135 17.9371C25.9687 18.4581 25.8913 18.9952 25.8832 19.5355C25.8781 19.9448 25.9435 20.352 26.0764 20.7397C25.7596 20.9918 25.3642 21.1271 24.9577 21.1227C24.0263 21.1227 23.6284 20.7438 23.6284 19.8558C23.6284 19.7966 23.6314 19.7327 23.6368 19.6652C23.6368 19.6616 23.6368 19.6581 23.6368 19.6539C23.7284 18.1396 24.0848 16.6526 24.6903 15.2589C25.3154 13.7991 25.9256 12.5357 26.5047 11.5003C26.8314 11.5485 27.1474 11.6514 27.4392 11.8046C27.8148 11.9917 28.0428 12.251 28.1367 12.5973C28.1562 12.6695 28.1951 12.7351 28.2492 12.7872C28.3034 12.8393 28.3707 12.876 28.4442 12.8933C28.476 12.9005 28.5085 12.9043 28.5411 12.9045C28.6002 12.9045 28.6587 12.8921 28.7126 12.8681C28.7665 12.8442 28.8147 12.8092 28.854 12.7654C29.6161 11.9171 30.4094 11.4873 31.2068 11.4873C33.0099 11.4873 33.0099 12.2084 33.0099 12.4801C33.0099 12.5014 33.0045 12.6577 32.9806 13.2657C32.9686 13.583 32.8172 14.323 32.1676 16.0481C32.1678 16.05 32.1678 16.052 32.1676 16.054C31.745 17.2267 31.4158 18.4304 31.1829 19.6539C31.1134 20.0249 31.078 20.4014 31.077 20.7787C31.071 21.5996 31.2669 22.4097 31.6477 23.139C31.683 23.2064 31.7363 23.2629 31.8018 23.3024C31.8673 23.3418 31.9425 23.3627 32.0192 23.3628C32.0498 23.3626 32.0803 23.3593 32.1101 23.3527C32.4093 23.2864 32.7138 23.2124 33.0075 23.1331C33.3431 23.0449 33.6655 22.9685 33.9563 22.9052C34.6035 22.7833 35.2603 22.7174 35.9191 22.708C36.8098 22.708 37.4685 22.8738 37.8771 23.2018C38.2647 23.5126 38.4526 23.8293 38.4526 24.1697C38.4526 24.2603 38.4119 24.5438 38.0338 25.2128C37.8962 25.4555 37.3758 25.8966 35.4243 26.1304C35.2293 26.1363 35.0373 26.1393 34.8536 26.1393C32.6725 26.1393 31.1931 25.6521 30.4578 24.6912C30.4188 24.6403 30.3683 24.5989 30.3104 24.5705C30.2525 24.542 30.1887 24.5272 30.124 24.5273C30.0735 24.527 30.0234 24.5361 29.9763 24.5539C28.5405 25.0867 27.076 25.5899 25.6193 26.041C24.1932 26.482 22.9183 26.704 21.8272 26.704ZM35.5865 22.9223C34.8411 22.9223 33.9168 23.1319 32.7628 23.5534C32.6921 23.5792 32.6297 23.6235 32.5823 23.6815C32.5348 23.7395 32.5041 23.8091 32.4933 23.8829C32.4825 23.9568 32.4921 24.0321 32.521 24.1011C32.5499 24.17 32.5971 24.2299 32.6575 24.2745C33.3156 24.7623 34.0077 25.0393 34.7094 25.0979H34.7238C34.8638 25.1045 34.9972 25.108 35.1198 25.108C35.6337 25.108 36.0836 25.0281 36.4569 24.8712C36.9953 24.6522 37.2669 24.3491 37.2669 23.9714C37.267 23.9045 37.2567 23.838 37.2364 23.7742L37.2328 23.7636C37.1179 23.4457 36.7841 22.9117 35.8305 22.9117C35.7504 22.9123 35.6684 22.9158 35.5853 22.9223H35.5865Z" fill="url(#paint5_linear_153_1947)"/>
<defs>
<linearGradient id="paint0_linear_153_1947" x1="0.625977" y1="13.0823" x2="34.1801" y2="13.0823" gradientUnits="userSpaceOnUse">
<stop stop-color="#FAAC18"/>
<stop offset="0.5" stop-color="#FFCA05"/>
<stop offset="1" stop-color="#FFE7A3"/>
</linearGradient>
<linearGradient id="paint1_linear_153_1947" x1="9.75748" y1="25.6522" x2="23.8801" y2="0.933673" gradientUnits="userSpaceOnUse">
<stop stop-color="#FEF4F8" stop-opacity="0"/>
<stop offset="0.09" stop-color="#FEF5F9" stop-opacity="0.12"/>
<stop offset="0.35" stop-color="#FEF9FB" stop-opacity="0.43"/>
<stop offset="0.58" stop-color="#FFFBFD" stop-opacity="0.67"/>
<stop offset="0.77" stop-color="#FFFDFE" stop-opacity="0.85"/>
<stop offset="0.91" stop-color="white" stop-opacity="0.96"/>
<stop offset="1" stop-color="white"/>
</linearGradient>
<linearGradient id="paint2_linear_153_1947" x1="15.5473" y1="16.2957" x2="25.4516" y2="16.2957" gradientUnits="userSpaceOnUse">
<stop stop-color="#76B83F"/>
<stop offset="0.5" stop-color="#ACD479"/>
<stop offset="1" stop-color="#D1E4A5"/>
</linearGradient>
<linearGradient id="paint3_linear_153_1947" x1="4787.03" y1="6685.42" x2="5634.28" y2="5337.88" gradientUnits="userSpaceOnUse">
<stop stop-color="#FEF4F8" stop-opacity="0"/>
<stop offset="0.09" stop-color="#FEF5F9" stop-opacity="0.12"/>
<stop offset="0.35" stop-color="#FEF9FB" stop-opacity="0.43"/>
<stop offset="0.58" stop-color="#FFFBFD" stop-opacity="0.67"/>
<stop offset="0.77" stop-color="#FFFDFE" stop-opacity="0.85"/>
<stop offset="0.91" stop-color="white" stop-opacity="0.96"/>
<stop offset="1" stop-color="white"/>
</linearGradient>
<linearGradient id="paint4_linear_153_1947" x1="18.2029" y1="19.0965" x2="38.8705" y2="19.0965" gradientUnits="userSpaceOnUse">
<stop stop-color="#0095DA"/>
<stop offset="0.41" stop-color="#00AEEE"/>
<stop offset="0.85" stop-color="#2BC4F3"/>
<stop offset="0.97" stop-color="#97DAF7"/>
</linearGradient>
<linearGradient id="paint5_linear_153_1947" x1="13384.5" y1="12770.1" x2="15468.4" y2="8066.32" gradientUnits="userSpaceOnUse">
<stop stop-color="#FEF4F8" stop-opacity="0"/>
<stop offset="0.09" stop-color="#FEF5F9" stop-opacity="0.12"/>
<stop offset="0.35" stop-color="#FEF9FB" stop-opacity="0.43"/>
<stop offset="0.58" stop-color="#FFFBFD" stop-opacity="0.67"/>
<stop offset="0.77" stop-color="#FFFDFE" stop-opacity="0.85"/>
<stop offset="0.91" stop-color="white" stop-opacity="0.96"/>
<stop offset="1" stop-color="white"/>
</linearGradient>
</defs>
</svg>
